<svg width="423" height="227" xmlns="http://www.w3.org/2000/svg" preserveAspectRatio="none">
 <metadata id="metadata7">image/svg+xml</metadata>

 <g>
  <title>background</title>
  <rect x="-1" y="-1" width="425" height="229" id="canvas_background" fill="none"/>
 </g>
 <g>
  <title>Layer 1</title>
  <path id="6.682e+282" d="m509.28743,262.893121c1.50771,-0.05939 2.71101,-2.24484 3.22486,-3.20394c0.95756,-1.79052 0.014,-3.78295 1.45854,-5.41413c1.71254,-1.93304 0.1393,-3.35834 -1.31913,-4.89745c-1.51247,-1.59653 -1.45158,-4.44712 -1.59669,-6.39501c-0.1686,-2.26958 0.22234,-3.55927 2.18073,-5.13996c0.72925,-0.58892 1.6376,-1.2392 1.87163,-2.10922c0.30326,-1.12737 0.64729,-2.53584 2.53783,-1.93207c1.22673,0.39195 2.0683,1.23129 3.37235,1.53317c1.40817,0.32763 3.11837,0.30882 4.30995,1.11451c1.39765,0.94722 3.25528,4.55499 5.45004,4.42335c-0.36872,0.45728 -0.62154,0.95613 -0.75972,1.49754c0.62281,-2.37152 5.42779,1.69749 2.69235,3.27817c1.32507,-0.41274 0.55485,-1.45994 1.21507,-2.20623c1.00187,-1.13429 1.78032,1.50942 1.85755,2.07261c0.36519,2.67045 -2.0578,5.49727 -3.70002,7.62333c-1.88701,2.44279 -3.19913,4.51046 -4.42936,7.26304c-0.45645,1.02145 -1.04522,1.88555 -2.06018,2.58037c-0.42138,0.28903 -1.17639,0.95416 -1.73126,1.07789c-0.91415,0.20488 -1.634,-0.41373 -2.6114,-0.02376c0.40264,-0.97099 -0.31729,-0.97494 -1.18002,-0.74927c-1.2056,0.31575 -2.23578,-0.09898 -3.38173,-0.4266c-0.57821,-0.16529 -2.82681,1.21248 -3.18628,1.57377c-0.66716,0.67008 -3.77376,-1.14717 -4.21511,-1.54011" stroke-miterlimit="3.974468" stroke-width="0.53819" stroke="#FFFFFF" fill="#B9B9B9"/>
  <g id="8.82e+281">
   <path id="5.882e+282" d="m58.04765,67.696581c0.12173,0.5325 0.34648,1.03135 0.67423,1.49754c0.01405,-0.89575 -0.56303,-1.71233 -1.34847,-2.28145c0.22475,0.26031 0.44949,0.5226 0.67424,0.78391" stroke-miterlimit="3.974468" stroke-width="0.32709" stroke="#FFFFFF" fill="#B9B9B9"/>
   <path id="8.882e+282" d="m-17.38368,31.779291c-1.06988,0.45431 -1.00316,1.46983 -0.42139,2.20821c0.57591,-0.72156 -0.15334,-1.48567 0.42139,-2.20821" stroke-miterlimit="3.974468" stroke-width="0.32709" stroke="#FFFFFF" fill="#B9B9B9"/>
   <path id="B882E279" d="m6.46742,38.763201c-0.57825,0.57309 -2.36099,2.45863 -0.84279,2.99212c0.5045,-0.88882 1.29462,-1.96274 0.84279,-2.99212" stroke-miterlimit="3.974468" stroke-width="0.32709" stroke="#FFFFFF" fill="#B9B9B9"/>
   <path id="E882E279" d="m22.22886,69.121871c-0.15451,0.56318 0.2025,0.79875 0.84279,0.71264c-0.37574,0.56715 -0.16504,1.17686 0.42023,1.56782c-1.64345,-1.7638 0.9458,-4.18877 0.8428,-5.98621c-0.07609,1.36095 -1.18226,2.6546 -2.10582,3.70575" stroke-miterlimit="3.974468" stroke-width="0.32709" stroke="#FFFFFF" fill="#B9B9B9"/>
   <path id="9.82e+281" d="m26.27311,33.275841c0.21655,-0.85616 -0.45769,-4.49956 -1.77807,-4.55499c-2.01451,-0.08215 1.44212,4.30853 1.77807,4.55499" stroke-miterlimit="3.974468" stroke-width="0.32709" stroke="#FFFFFF" fill="#B9B9B9"/>
   <path id="3.982e+282" d="m23.91445,71.616121c0.66838,0.56517 1.24663,1.27386 2.27555,1.35304c-0.31722,-0.82152 -1.21269,-1.45795 -2.27555,-1.35304" stroke-miterlimit="3.974468" stroke-width="0.32709" stroke="#FFFFFF" fill="#B9B9B9"/>
   <path id="7.982e+282" d="m32.7638,35.556301c1.35198,-1.20951 1.10734,-2.77733 1.85415,-4.2046c-2.36685,0.28506 -2.2697,2.10329 -3.62402,3.34943c0.57708,0.30287 1.16703,0.58793 1.76987,0.85517" stroke-miterlimit="3.974468" stroke-width="0.32709" stroke="#FFFFFF" fill="#B9B9B9"/>
   <path id="9.982e+282" d="m35.79786,58.503461c-1.16938,0.13263 -1.60014,1.03532 -1.60131,1.92315c0.36521,-0.74432 1.64696,-1.01156 1.60131,-1.92315" stroke-miterlimit="3.974468" stroke-width="0.32709" stroke="#FFFFFF" fill="#B9B9B9"/>
   <path id="C982E279" d="m36.4721,66.698881c-0.17091,0.74827 0.03511,1.49655 0.50567,2.13793c1.10968,-0.65821 0.4015,-1.6856 -0.50567,-2.13793" stroke-miterlimit="3.974468" stroke-width="0.32709" stroke="#FFFFFF" fill="#B9B9B9"/>
   <path id="F982E279" d="m42.45594,75.179351c0.14398,-0.57507 -0.13461,-1.13924 -0.67424,-1.49656c-0.00936,0.57408 0.21538,1.07293 0.67424,1.49656" stroke-miterlimit="3.974468" stroke-width="0.32709" stroke="#FFFFFF" fill="#B9B9B9"/>
   <path id="1A82E279" d="m58.80499,67.268991c-0.32424,0.57012 -0.18377,1.04521 0.4214,1.42529c0.1709,-0.54042 0.03043,-1.01552 -0.4214,-1.42529" stroke-miterlimit="3.974468" stroke-width="0.32709" stroke="#FFFFFF" fill="#B9B9B9"/>
   <path id="5A82E279" d="m64.95857,96.059841c-0.08194,0.61168 0.36872,1.01452 1.09563,0.9977c0.00936,-0.57111 -0.40618,-0.98385 -1.09563,-0.9977" stroke-miterlimit="3.974468" stroke-width="0.32709" stroke="#FFFFFF" fill="#B9B9B9"/>
   <path id="DB82E279" d="m4.61327,3.202241c7.04319,-0.58893 14.07351,-1.37877 21.15416,-1.56881c-0.53143,0.6008 -1.28058,1.05412 -1.60131,1.7826l27.67391,9.85106l23.66986,0.10815l0.07555,-3.78789l15.16031,-0.02278c2.07304,0.02177 2.31886,0.78292 2.79995,2.17653c0.40267,1.16795 2.13977,1.42826 2.81986,2.5972c0.58995,1.01453 1.67388,2.73576 2.77771,3.38902c1.04179,0.61663 2.56116,1.0947 2.84443,2.28046c0.40969,1.7153 0.37692,3.19008 0.11705,4.88162c-0.57708,3.7493 3.33607,5.4062 6.42866,7.17395c1.07924,0.61664 2.75196,1.92711 4.10628,1.22338c0.97624,-0.50776 2.13859,-1.37976 2.66066,-2.26265c0.67189,-1.13726 2.02154,-2.94461 3.22603,-3.7305c0.75852,-0.49489 2.37739,-0.67899 3.26817,-1.03135c2.40077,-0.04551 4.86155,0.4341 7.28082,0.68196c0.68945,0.11679 1.5498,1.64997 2.21701,2.17456c1.0933,0.85814 2.50824,2.83118 2.79503,4.03772c0.38745,1.63414 0.8723,3.30153 0.98233,4.97228c0.11589,1.75588 1.44446,2.81198 2.11987,4.40949c0.31019,0.73046 0.60868,1.46488 1.04881,2.14882c0.34531,0.53647 0.9657,0.51766 1.28526,0.97395c0.78544,1.11846 -0.32541,2.92184 -0.3336,4.11156c-0.00937,1.49656 1.59966,2.55959 1.37842,4.18877c0.7042,2.49661 2.88647,1.96987 1.98105,2.05083c1.18401,0.09839 1.94153,0.87071 3.23543,1.54149c0.83953,0.43523 1.13752,0.94845 2.04609,0.97257c2.09728,0.05566 3.71291,-0.22543 5.16211,1.2976c1.19639,1.25733 2.08241,-0.68134 3.57954,-0.69421c-4.2364,5.764 -6.70591,12.10262 -9.54562,18.36321c-1.03286,4.51139 0.70844,-5.12787 4.85155,-11.16483c0.78046,-1.13722 1.0617,-2.62072 0.12886,-2.43716c0.10646,0.00944 -0.59937,1.84773 -1.70689,0.58014c-0.02914,0.60691 -0.89901,1.41868 -0.87858,1.51643c0.65626,3.14123 -0.0893,2.67707 -0.10915,3.60715c-0.00154,0.07203 -1.18433,2.5399 -1.23058,2.64603c-0.04625,0.10611 -0.81437,-0.53338 -0.90151,-0.45584c0.07009,1.3938 0.54652,1.24935 0.50947,1.84522c-0.03708,0.5965 -0.77459,1.66871 -0.91332,3.79323c-0.03258,0.49878 -0.03149,0.2177 -0.57061,0.677c1.2361,1.62028 -0.4331,3.94429 -0.63209,5.62989c-0.24699,2.09736 -1.82489,3.79385 -1.95131,5.94762c-0.12993,2.20722 0.1592,4.20361 1.70783,6.03768c1.66569,1.97264 0.90484,1.8895 -0.0515,3.90668c-0.10535,-0.79579 1.06754,-1.91721 0.48812,-2.57641c-1.09681,-1.24713 -1.33911,-2.70211 -2.17371,-4.05119c0.37809,1.24119 -0.22709,2.56157 0.33712,3.77702c0.50919,1.0947 1.15767,1.20754 1.25717,2.53682c0.20718,2.77535 1.52288,5.65365 3.17218,7.98063c1.89746,2.67539 2.56116,4.83213 3.39459,7.8094c0.34883,1.24712 1.43627,2.17356 1.92322,3.36427c0.42022,1.02938 0.56771,1.97165 1.88341,2.46655c-0.70467,-0.04553 -1.20098,-0.76511 -1.68559,-0.35534c1.51469,0.34247 -0.01171,1.97462 -0.50568,2.49426c1.42222,-0.05642 0.15217,-1.34017 1.38125,-1.53714c0.44247,0.02277 0.71286,-0.15341 0.81002,-0.52953c0.78895,0.37513 1.71485,0.42264 2.5951,0.45332c2.8538,0.09898 5.23353,1.3471 6.54805,3.41377c1.11788,1.75587 2.28726,1.61335 4.62835,1.11845c1.47138,-0.31178 4.00211,-0.73244 5.10828,-1.70737c-0.89781,0.18311 -1.79211,0.42065 -2.61267,0.78489c1.1764,-0.59585 10.33478,-2.37647 10.61922,-1.28375c-0.53026,-1.9954 6.41812,-3.07229 7.33349,-1.49655c-1.85064,-0.2811 0.00819,1.07985 -0.25284,1.78161c0.62507,-0.45035 1.12841,-0.23458 1.85415,-0.28506c0.4448,0.08018 0.8943,0.12769 1.34847,0.14352c0.11354,-0.28011 0.2704,-0.5424 0.47056,-0.78688c1.03008,-0.34741 3.39108,-2.26759 0.79363,-2.42002c0.57123,-0.40086 1.16119,-0.78094 1.76987,-1.14023c-0.82992,0.42165 -1.64696,0.86705 -2.52838,1.21249c1.03008,-1.46587 3.34425,-2.02114 4.98887,-2.83574c2.29194,-1.13429 2.26384,-2.78624 3.3068,-4.60348c0.54197,-0.94624 1.52406,-1.38966 2.25916,-2.18545c0.74096,-0.80271 0.5525,-1.90137 0.67541,-2.84563c0.29381,-2.25868 1.70198,-3.8948 2.33993,-5.98621c-0.18729,0.28506 -0.41204,0.54636 -0.67424,0.78391c1.35315,-3.19206 6.71427,-3.80176 10.11705,-4.13136c2.45464,-0.23755 4.41648,-0.79381 6.73066,-1.51437c3.02235,-0.94129 5.59873,0.13164 8.60587,0.37216c-0.5127,-0.17816 -1.04764,-0.27219 -1.60131,-0.28506c1.36486,-0.29595 2.69811,0.41571 3.96113,0.71363c-2.13742,-0.37117 1.55098,-1.53416 3.01885,-0.969c2.19127,0.84429 1.51235,3.22472 0.8147,4.72721c-0.92473,1.99343 -2.87838,3.08813 -4.5745,4.57083c-0.88845,0.77797 -1.94428,1.7539 -2.37739,2.78822c-0.24347,0.58001 0.21655,2.93372 -0.50567,1.63908c0.3418,1.15706 -2.02622,2.18248 -2.19127,3.34943c4.19525,-0.43847 -1.19513,1.79349 -0.25284,2.92185c0.25869,-0.53449 0.80768,-0.93139 1.51703,-0.92644c-1.16001,1.38867 -1.49713,3.10198 -2.38558,4.6025c-0.72574,1.22634 -2.35514,3.64042 -2.41952,5.01721c-1.96886,-1.84892 -0.47407,-3.25441 -0.92707,-5.27357c-1.30634,0.76906 -1.22791,0.79777 -1.90098,1.84199c-0.54313,0.84231 -1.39295,0.81162 -2.2732,1.22634c-1.86937,0.87992 -3.20496,3.3821 -4.1695,4.91329c-0.57942,-0.53547 -1.81212,-1.23751 -2.30024,0.05119c-0.37575,0.99276 -1.03114,0.44766 -2.68161,0.44766c-3.62519,0 -7.24921,0 -10.8744,0c-0.82289,0 -3.13941,-0.29181 -3.31031,0.77221c-0.13929,0.86606 -0.08896,1.59932 -0.18377,2.47231c-0.25284,2.325 -2.25799,1.60147 -4.41648,1.60147c1.52953,1.31146 2.65056,2.94757 4.48788,3.77701c1.72672,0.77952 1.53762,2.45662 3.24348,3.15589c0.35282,0.14463 -0.42479,3.36688 -0.52643,3.15039c-2.85852,0.92404 -7.41391,-0.16587 -11.43455,-0.06999c-5.40913,8.52 -4.65029,7.26819 -4.34406,8.28878c0.41087,0.56318 -1.42047,4.23036 -2.04437,4.85887c-0.81587,-0.86309 -1.73592,-1.65096 -2.55414,-2.51306c-0.47407,-0.49984 -2.6431,-4.00863 -1.15416,-2.12012c-0.31136,-1.03829 -1.81669,-1.44806 -2.63373,-2.13497c-1.19864,-1.00859 -2.03793,-2.25077 -3.32202,-3.24055c-2.57521,-1.98551 -3.95762,-3.83739 -7.44352,-4.81431c-0.22708,1.12439 3.06684,1.63215 3.7083,2.42299c-2.03324,-0.89476 -4.13555,-1.7727 -6.48952,-1.71035c0.61688,-0.19993 1.11319,-0.61861 1.34847,-1.14023c-0.69062,-0.08512 -1.25249,0.10492 -1.68559,0.57012c0.16622,-1.73905 -1.75231,-1.1917 -2.02271,0.07027c0.6239,-0.05345 1.21386,0.04157 1.76987,0.28605c-3.13707,0.17816 -4.65527,1.77765 -7.50321,2.50119c-2.5717,0.65325 -4.70795,1.64007 -7.32296,2.07359c-1.97354,0.32762 -2.81634,0.12175 -4.75594,-0.76312c-2.15498,-0.98385 -3.51164,-1.11747 -5.90541,-1.43717c-1.25015,-0.16628 -2.00984,-0.71363 -2.92872,-1.40054c-1.17054,-0.87497 -2.31534,-1.06105 -3.72936,-1.49854c-1.14597,-0.35434 -1.39881,-1.17586 -2.25916,-1.79546c-1.04881,-0.75521 -2.89243,-0.90467 -4.18237,-1.1828c-1.27356,-0.27516 -2.73557,-0.38304 -3.92602,-0.87398c-1.24664,-0.51567 -2.17371,-1.38371 -3.47302,-1.8697c-3.00129,-1.12241 -6.02364,-1.75687 -8.67377,-3.48107c-2.18658,-1.42331 -3.37469,-3.41772 -5.31546,-4.92121c-0.75968,-0.58892 -1.74411,-0.35335 -2.63841,-0.20587c-1.3473,0.22369 -3.62636,-0.58595 -4.8929,-0.96603c-2.10464,-0.63148 -4.99707,-1.48963 -6.35725,-3.07625c-0.67423,-0.78589 -1.13894,-1.66185 -1.70783,-2.49822c-0.96804,-1.42331 -2.35982,-1.47576 -3.81833,-2.3349c-0.31136,-1.32136 -4.22568,-1.99738 -5.59756,-3.04061c-0.71989,-0.54736 -0.50568,-1.42034 -1.21035,-2.01125c-0.79246,-0.66414 -1.52756,-2.20029 -1.98408,-3.07427c-0.53611,-1.02442 -1.57204,-3.83937 -0.05852,-4.62922c1.05232,-0.54933 2.27437,-0.25239 3.17452,-1.09767c0.84163,-0.79084 -1.04764,-1.45003 -1.74177,-1.32532c0.38979,-1.066 4.87299,-4.64011 3.61699,-5.95751c-1.15533,-1.22139 -1.58609,-1.93206 -2.1936,-3.42861c-0.65434,-1.60939 0.15217,-2.84662 -0.05385,-4.45502c-0.44364,-3.45237 -4.33922,-6.3366 -6.16177,-9.35247c-2.10347,-3.48108 -4.37083,-6.05253 -8.01826,-8.51908c0.9938,0.36424 1.80499,1.40253 2.27555,0.07127c-1.5896,0.15242 -4.31698,-1.11846 -3.68137,-2.59621c0.45768,-1.06401 0.57825,-4.13235 -1.71252,-3.31973c0,-1.26099 -0.2224,-0.30684 -1.27121,-0.775c-0.71521,-0.32069 -1.31921,-0.85914 -2.0988,-1.07689c1.02892,0.1742 1.11671,0.11383 0.26104,-0.18113c-0.45886,-0.44342 -0.34298,-1.08381 -0.85099,-1.53021c-0.51739,0.39295 -1.10734,0.679 -1.76987,0.85518c-0.24348,-0.9017 1.0371,-0.9789 1.17991,-1.7826c-1.27707,0.99374 -1.93023,0.39195 -3.53974,0.07126c0.31371,-0.16034 0.62273,-0.32663 0.92708,-0.49885c-0.74681,-0.52756 -1.11203,-0.38503 -1.09564,0.42759c-0.04214,-1.03136 0.13813,-2.05183 0.71287,-2.97233c0.21421,-0.34246 1.78274,-2.68429 1.56268,-1.37382c0.32775,-0.54933 1.0851,-1.58563 1.60131,-0.71264c0.1709,-0.74531 0.04448,-1.37976 -1.01135,-0.78391c0.44246,-0.91852 0.28327,-2.09735 -0.80885,-2.65658c-0.86504,-0.44244 -1.78275,0.34939 -2.71802,-0.36226c-1.01369,-0.77203 0.19197,-3.1396 -1.05583,-3.42367c-0.86621,-0.19696 -3.66148,-0.45332 -3.73288,-1.49457c-0.07726,-1.1046 -0.17793,-4.83807 1.48894,-4.81926c-0.79949,-0.07918 -2.71217,-0.32366 -2.44411,-0.92743c-0.36287,0.2712 -0.61571,0.60377 -0.75734,0.9977c-0.04683,-1.05313 -1.76051,-1.1135 -2.40314,-1.80239c-0.54899,-0.59189 -0.72457,-1.5985 -1.04998,-2.28838c-0.33595,-0.70869 -1.2958,-0.74333 -1.77338,-1.32533c-0.73628,-0.89872 -0.51739,-2.53681 -1.32038,-3.29202c-1.39179,-1.30849 -0.32307,-2.55067 -0.78661,-4.04822c-1.48543,0.97098 -0.99614,-1.74103 -1.17991,-2.35172c-0.60869,-2.0251 -0.61454,-3.18711 -0.45184,-5.21716c0.13345,-1.65887 -1.25248,-3.16434 -0.78778,-4.82123c0.21656,-0.76808 1.77339,-2.70113 1.47724,-3.28807c-0.48578,-0.96306 -2.35866,-0.95118 -3.34426,-1.24515c-1.59897,-0.47608 0.47758,-2.28442 -2.04495,-2.43586c-0.85918,-0.05146 -1.20683,0.79282 -2.17137,0.73145c-0.92239,-0.06037 -1.67739,-0.67998 -2.24277,-1.23327c-1.19045,-1.16893 -2.766,-1.52525 -4.0021,-2.72883c0.10183,0.90268 1.31452,1.73905 0.8744,2.67143c-0.54548,1.1521 -1.5264,2.41903 -2.19712,3.55827c-0.68009,1.15112 0.33946,2.28442 0.05969,3.46227c-0.30668,1.29364 -0.4249,2.64173 -1.00784,3.87797c-1.42456,3.01191 0.15217,4.19471 2.38675,6.4138c2.02973,2.01619 2.5717,3.4395 2.41484,6.02779c1.44095,-0.92545 2.11987,1.2689 2.32237,2.05776c0.10652,0.41472 0.05151,1.25109 0.45417,1.56584c0.32425,0.25437 1.63175,0.50479 1.32741,1.06897c-0.69882,1.30057 -1.12139,4.86182 0.24698,5.95058c1.84713,1.47082 1.62238,4.10265 3.82418,5.17657c-1.26653,0.79876 -0.18026,3.36527 -0.08428,4.48966c0.85568,-0.62752 0.34649,-2.14585 0.16856,-2.92184c4.28538,0.61367 1.00668,12.24759 3.87686,11.68836c-0.22006,1.17982 -0.33478,2.54672 0.08428,3.70575c0.44247,1.22437 1.58961,1.88554 0.52089,3.17721c-1.38827,1.67868 -0.43427,4.84203 2.42889,4.59062c-1.90448,0.16332 -0.22357,0.21577 0.03863,-0.10294c0.31839,-0.38799 0.35351,-0.88288 0.71989,-1.25207c0.44364,0.92643 2.21351,2.22701 3.11015,2.84662c0.4928,0.34147 0.37223,2.47347 0.68243,3.06833c0.70467,1.35006 2.99894,2.30125 0.92122,3.93538c-0.82407,0.64732 -3.82653,2.68132 -4.9444,2.25968c-1.46787,-0.55527 -0.70935,-3.31875 -1.31219,-4.37287c-0.44129,-0.77302 -1.24078,-1.34512 -1.99695,-1.89247c-1.22088,-0.88289 -1.87171,-2.16961 -2.92637,-3.17325c-1.5381,-1.4629 -3.95295,-2.10032 -5.23353,-3.79978c-1.07339,-1.42529 -3.68254,-2.25572 -3.04927,-4.28675c-0.15452,0.48697 -0.35117,0.96207 -0.58996,1.4243c0.24933,-4.11256 4.25846,-6.7345 1.85532,-10.99453c-0.92708,-1.64403 -3.03055,-1.85386 -4.26782,-3.37912c-0.56421,-0.69582 -1.42924,-1.78062 -1.46436,-2.65757c-0.02458,-0.63049 0.85333,-0.77797 0.58996,-1.49755c-0.52207,0.54538 -0.58762,1.6183 -1.43275,1.92414c-0.86036,0.31179 -1.57088,-0.33553 -2.45581,0.20786c-0.71638,0.44045 -1.15651,-0.50578 -1.35433,-0.90466c-0.47407,-0.95712 -1.37305,-1.12539 -2.25799,-1.72718c-0.1709,-0.29297 -0.38394,-0.56021 -0.64029,-0.80469c-0.4928,-0.09799 -0.98209,-0.20984 -1.46669,-0.33554c-0.89196,-0.55527 -0.46939,-0.85913 -0.63795,-1.59751c-0.40033,-1.75687 -3.60178,-2.05776 -3.74459,-4.03238c2.01335,0.17024 4.55695,1.08678 6.31979,-0.21379c-0.07023,1.85089 3.81131,1.36293 2.69695,3.27816c1.02423,-0.67701 1.54395,-3.00894 0.4214,-3.77603c0.01053,0.43848 -0.44247,2.21613 -1.46085,1.79349c-0.59932,-0.24942 0.22826,-1.70243 0.28093,-2.07854c-0.31488,0.15935 -0.62273,0.32564 -0.92707,0.49885c0.99379,-1.82615 4.11214,-3.57411 2.8655,-5.84369c-1.29463,-2.35964 -2.77654,-5.42402 -5.31429,-7.01064c-2.08709,-1.30454 -3.768,-2.34876 -4.26665,-4.62526c-0.18729,-0.85419 0.51036,-1.46785 0.72691,-2.27948c0.28444,-1.065 -0.91654,-1.52426 -0.33243,-2.11813c-0.26455,0.20686 -0.54548,0.3969 -0.8428,0.57011c-0.54665,-1.91424 1.77806,-2.75754 -0.11237,-4.53123c-0.86621,-0.81261 0.19665,-1.43816 0.19665,-2.31016c0,-1.1719 -1.11085,-1.94195 -1.31687,-3.01983c-0.15334,-0.80469 0.37341,-1.46191 1.01136,-1.9667c0.55835,-0.44243 -0.19548,-1.14518 -0.42842,-1.58069c-0.26806,-0.28604 -0.501,-0.59189 -0.69882,-0.91555c0.12291,-0.4741 0.23528,-0.94821 0.33712,-1.42529c-0.21421,-1.02838 -0.38868,-0.68162 0.28204,-1.7882" stroke-miterlimit="3.974468" stroke-width="0.54515" stroke="#FFFFFF" fill="#B9B9B9"/>
   <path id="0C82E279" d="m189.94506,122.142631c1.18811,0.22369 1.98876,-0.82647 3.03406,-1.06897c-1.10382,-0.1356 -2.14327,0.65821 -3.03406,1.06897" stroke-miterlimit="3.974468" stroke-width="0.32709" stroke="#FFFFFF" fill="#B9B9B9"/>
   <path id="4C82E279" d="m235.1177,108.318311c1.1249,-0.75124 2.20064,-1.72915 2.78123,-2.85156c-1.06052,0.81756 -3.59593,0.88486 -2.78123,2.85156" stroke-miterlimit="3.974468" stroke-width="0.32709" stroke="#FFFFFF" fill="#B9B9B9"/>
  </g>
  <g id="EC82E279">
   <path id="2D82E279" d="m223.06145,133.903571c0.66604,-0.17025 1.10734,-0.60377 0.8428,-1.21249c-0.28913,0.40086 -0.57006,0.80469 -0.8428,1.21249" stroke-miterlimit="3.974468" stroke-width="0.32709" stroke="#FFFFFF" fill="#89D800"/>
   <path id="7D82E279" d="m209.49245,146.731171c0.67307,-3.6919 1.82372,-7.17792 2.24277,-10.9094c0.16973,-1.50546 0.52792,-9.09018 3.74108,-6.12281c0.88961,-1.41341 3.17335,-5.6388 5.64672,-5.2023c-0.51621,0.40284 -0.77022,0.90169 -0.75851,1.49655c3.72819,-1.59751 0.47173,4.55598 0.1112,5.59723c-0.43779,1.26395 -0.7035,2.84563 -0.96336,4.17689c-0.18729,0.95811 0.24815,1.67076 -0.1393,2.64965c-0.38277,0.96801 -0.97272,1.86476 -1.36837,2.82584c0.64965,-1.97165 -0.58293,0.54339 -0.84982,0.82548c-0.74915,0.79182 -1.71719,1.08579 -2.61734,1.70638c-0.7632,0.52558 -1.45266,1.19863 -1.91151,1.938c-0.21772,0.31475 -0.33478,0.65425 -0.35234,1.0175c-0.92005,-0.19202 -1.85766,-0.07918 -2.78122,0.00099" stroke-miterlimit="3.974468" stroke-width="0.54515" stroke="#FFFFFF" fill="#89D800"/>
  </g>
  <g id="1.892e+282">
   <path id="A892E279" d="m366.09039,128.344941c0.37691,-0.65524 0.79246,-1.9093 0.29732,-2.59522c-0.42725,-0.5909 -1.08744,-1.79052 -1.64697,-2.25077c1.13309,0.05147 3.74576,-1.48863 2.46752,-2.55463c-1.23259,-1.02839 2.41016,-1.64502 0.92825,-3.0327c-0.48461,-0.45332 0.14631,-1.48764 0.29849,-1.95185c0.29029,-0.88289 -0.65902,-1.81626 -0.15569,-2.65065c1.16704,-1.93403 3.50814,-0.08908 4.92099,-0.56714c1.16352,-0.39295 2.33056,-0.61664 3.49409,-0.09106c1.15767,0.5226 2.31885,0.59783 3.42385,1.06501c1.01604,0.42857 1.55449,0.85319 2.74611,0.87595c1.21269,0.02376 1.39529,-0.17519 1.53459,0.98682c0.25049,2.08152 1.32974,2.33193 3.55612,1.84694c0.80417,-0.17519 1.85649,-0.41868 2.57755,0.08809c-0.34063,0.95118 -1.33911,0.95712 -2.31183,0.81954c-0.96219,-0.1356 -3.0844,0.4454 -1.25015,0.88487c0.77022,0.18509 3.8792,1.19368 4.57451,0.92149c2.011,-0.78886 3.24007,1.37085 4.49607,2.33886c2.48976,1.91919 -1.44797,2.85255 -1.92672,3.63646c-0.82172,1.34611 -1.14948,0.03564 -1.86,-0.56615c-0.67892,-0.57507 -1.43744,-0.20192 -2.27555,-0.3494c-0.58761,-0.17222 -1.19162,-0.28703 -1.80967,-0.34543c-0.72808,0 -1.40583,0.53745 -2.11167,0.16529c-2.9966,-1.58068 -3.78321,1.37481 -6.0728,1.72817c-0.55133,0.08512 -2.36919,0.39096 -2.8538,0.05938c-0.67424,-0.46124 0.07023,-1.48467 -0.92473,-1.88059c-0.42608,0.80668 -1.52757,0.71265 -2.16786,1.31147c-0.53611,0.50182 -1.32506,-0.29001 -1.59077,0.37315c-0.87206,2.18148 -1.97823,3.63943 -3.74576,5.44183c-0.34882,-0.66316 -1.33325,-0.97197 -1.51586,-1.71134c-0.17909,-0.72155 -0.25284,-1.56881 -1.09563,-1.99639" stroke-miterlimit="3.974468" stroke-width="0.54515" stroke="#FFFFFF" fill="#B9B9B9"/>
   <path id="D892E279" d="m394.32402,127.774821c-0.60518,-0.06137 -1.16704,-0.22666 -1.68559,-0.49885c0.56537,-0.1158 1.50064,-0.13659 1.68559,0.49885" stroke-miterlimit="3.974468" stroke-width="0.32709" stroke="#FFFFFF" fill="#B9B9B9"/>
  </g>
  <g id="1.992e+282">
   <path id="B992E279" d="m256.02019,95.420751c1.62238,-0.49588 3.33958,-1.78062 5.14105,-0.9977c0.59113,-1.12439 -1.06052,-2.07459 0.11237,-3.17721c0.95166,-0.89476 2.46869,-2.24087 3.63807,-2.90006c1.38476,-0.77995 3.17687,-1.07293 4.73721,-1.50547c1.34262,-0.37216 2.55765,-1.11944 4.00796,-1.09272c3.01533,0.05642 5.53084,-1.24317 8.5134,-1.43024c1.38358,-0.0871 3.05162,-0.17123 4.36146,0.29793c0.30083,0.1069 0.66487,0.29594 0.67189,0.61366c1.08979,-0.4355 2.30599,-0.581 3.37118,-1.06797c-1.7488,0.38898 0.16037,1.21941 1.10851,0.92842c0.8744,-0.26824 3.50931,-0.29298 3.81599,0.12867c0.4811,0.66018 1.77104,1.64205 2.79527,1.38174c1.1963,-0.30387 2.79059,0.86705 3.8277,0.12669c-0.24348,0.24942 -0.46822,0.51073 -0.67424,0.78391c1.93141,0.42758 1.55566,1.19467 2.89126,2.30718c1.74997,1.45796 2.54477,1.09669 4.85075,1.27485c2.2018,0.17024 3.0563,1.0076 4.81681,1.90632c0.66721,0.34049 1.61652,0.25932 2.06953,0.89675c0.41788,0.58892 0.96453,1.64601 1.8916,0.81261c-0.34648,0.87299 0.4928,1.47577 1.44563,1.54901c1.11319,0.08611 1.46084,0.91654 2.43123,1.22931c-0.40384,-0.68196 -0.68243,-1.56584 -1.68559,-1.78161c0.90717,0.16925 3.84642,1.13528 3.37118,2.28145c-0.604,-0.06928 -1.19396,-0.18805 -1.76987,-0.35632c0.4132,0.45035 0.57357,0.95118 0.92707,1.4243c1.28995,-1.8697 1.68325,0.26724 3.20263,0.28605c-0.20836,0.24843 -0.43311,0.48598 -0.67424,0.71264c0.55601,-0.27615 1.14597,-0.34741 1.76987,-0.21379c-0.11589,0.26031 -0.22826,0.52063 -0.33712,0.78292c0.63912,0.10591 1.20098,0.34444 1.68559,0.71363c-0.12057,-1.93601 3.11951,0.30882 3.77853,0.70374c0.8627,0.51667 1.65165,-0.10294 2.57404,-0.17519c1.4983,-0.11779 2.03207,1.63809 0.38979,1.82318c0.30903,0.14253 0.61805,0.28407 0.92708,0.42759c-0.70467,0.18608 -1.32741,0.57209 -1.76987,1.06897c2.40547,0.43352 6.48015,-0.30189 8.394,1.09371c1.61887,1.1818 2.05548,2.42101 4.30996,2.68726c2.66768,0.31376 -0.85333,1.88752 -1.94896,1.99541c-0.33244,0.03266 -6.05525,1.32334 -6.17231,1.16398c0.0398,-0.25239 0.19666,-0.45233 0.47408,-0.59783c-1.05935,0 -1.00082,1.14122 -2.80698,0.99276c-1.92906,-0.15936 -3.73288,-0.74135 -5.69004,-0.81361c-4.90342,-0.18014 -9.84548,1.38174 -14.76413,1.24713c0.07141,-2.1993 3.29744,-2.72586 4.99239,-3.79384c0.99848,-0.6295 1.60951,-1.22337 0.63327,-1.90237c-0.73042,-0.50875 0.29615,-2.131 -1.46787,-1.76478c-3.30446,0.6879 -6.63584,0.17321 -8.5251,-2.40617c-0.67775,-0.92545 -0.55718,-2.15179 -0.74915,-3.18809c-0.08897,-0.47411 -0.22709,-0.98682 -0.6005,-1.36689c-0.44363,-0.45234 -1.41987,-0.26824 -0.43544,-0.68691c-1.50884,-0.60971 -3.00597,0.34147 -4.46681,0.46321c-1.5182,0.1267 -2.80932,-1.07094 -4.20227,-1.28375c-1.36252,-0.20884 -2.19946,-0.02078 -2.93808,-0.77599c-1.17523,-1.20061 -2.7344,-1.1333 -2.97319,-3.03567c-0.25986,1.59158 -5.9698,1.11846 -6.06813,-0.9977c-0.3336,0.45926 -0.50216,0.95811 -0.50684,1.49656c-0.50919,-0.01485 -0.90601,-0.19499 -1.19045,-0.54241c-0.7234,-0.61663 -1.87054,-0.38304 -2.76952,-0.38304c-1.48074,0 -2.76132,-0.74135 -3.79258,-1.5698c0.78427,-0.72947 2.29428,-0.35038 3.30212,-0.49291c1.49947,-0.21281 1.40115,-1.49755 0.09599,-1.86773c-2.5717,-0.73046 -7.41543,-0.80073 -9.73429,0.48896c-1.43626,0.79974 -3.07152,1.6856 -4.22568,2.7704c-1.07924,1.01255 -1.84478,0.25438 -3.12068,0.70275c-0.73042,0.25635 -1.51118,-0.13362 -2.21117,0.22072c-0.73978,0.37513 -0.48811,0.98385 -1.04647,1.45697c-1.17172,0.99374 -3.07386,0.9007 -4.29825,1.85287c0.35936,-2.88819 -3.64509,0.7463 -4.04542,-1.14023c0.11003,0.07126 0.22241,0.14154 0.33478,0.21379" stroke-miterlimit="3.974468" stroke-width="0.32709" stroke="#FFFFFF" fill="#B9B9B9"/>
   <path id="F992E279" d="m272.79181,99.269031c-0.90249,-0.17717 -1.90097,-0.47905 -2.10699,-1.35402c1.80967,1.63908 1.04881,-1.26989 1.06403,-1.73311c0.03161,-1.00067 1.83776,-1.40253 2.72855,-1.0462c0.93176,0.37413 1.6376,1.81031 1.61536,2.63084c-0.02927,1.1145 -2.38324,1.2788 -3.30095,1.50249" stroke-miterlimit="3.974468" stroke-width="0.32709" stroke="#FFFFFF" fill="#B9B9B9"/>
   <path id="2A92E279" d="m298.41278,86.227641c-0.30903,-0.04751 -0.61805,-0.09601 -0.92708,-0.14352c0.28679,-0.16134 0.59581,-0.28011 0.92708,-0.35632c0,0.16727 0,0.33355 0,0.49984" stroke-miterlimit="3.974468" stroke-width="0.32709" stroke="#FFFFFF" fill="#B9B9B9"/>
   <path id="4A92E279" d="m311.56038,107.179391c-0.32307,-0.22468 -0.63327,-0.46223 -0.92707,-0.71363c0.76553,-0.01683 0.72691,0.21478 0.92707,0.71363" stroke-miterlimit="3.974468" stroke-width="0.32709" stroke="#FFFFFF" fill="#B9B9B9"/>
   <path id="7A92E279" d="m313.41453,90.859831c-0.58059,-0.17915 -1.14246,-0.39196 -1.68559,-0.64138c0.95517,-0.36523 2.68173,-0.9403 3.03406,0.35632c-0.45417,0.08215 -0.90366,0.17717 -1.34847,0.28506" stroke-miterlimit="3.974468" stroke-width="0.32709" stroke="#FFFFFF" fill="#B9B9B9"/>
   <path id="AA92E279" d="m316.70143,92.142591c-0.755,-0.37711 -1.88575,-0.39889 -2.10699,-1.28276c1.33092,-0.65128 1.63877,0.51666 2.10699,1.28276" stroke-miterlimit="3.974468" stroke-width="0.32709" stroke="#FFFFFF" fill="#B9B9B9"/>
   <path id="DA92E279" d="m317.88017,93.567881c-0.97389,-0.12472 -1.54395,-0.9987 -0.92707,-1.71134c0.27742,0.42165 1.26185,1.1333 0.92707,1.71134" stroke-miterlimit="3.974468" stroke-width="0.32709" stroke="#FFFFFF" fill="#B9B9B9"/>
   <path id="0B92E279" d="m318.97698,95.206961c-0.56187,-0.38008 -1.12373,-0.76015 -1.68559,-1.13924c1.19981,-0.92446 3.57251,0.08908 1.68559,1.13924" stroke-miterlimit="3.974468" stroke-width="0.32709" stroke="#FFFFFF" fill="#B9B9B9"/>
  </g>
  <path id="3E92E279" d="m417.16142,189.632381c-0.28093,-0.07127 -0.56186,-0.14253 -0.84279,-0.21379c0.23879,-0.23458 0.51972,-0.42462 0.84279,-0.57012c0.37809,0.31178 0.37809,0.5721 0,0.78391" stroke-miterlimit="3.974468" stroke-width="0.32709" stroke="#FFFFFF" fill="#1EFF00"/>
  <path id="6E92E279" d="m428.03582,189.846171c-0.21772,-0.53448 -4.19642,-1.27583 -2.13157,-1.8311c1.0968,-0.29495 1.14948,0.69384 1.79211,0.61961c1.06637,-0.12274 1.24546,-1.18873 2.18892,-1.49755c0.5724,1.91029 0.31488,1.7153 -1.84946,2.70904" stroke-miterlimit="3.974468" stroke-width="0.32709" stroke="#FFFFFF" fill="#B9B9B9"/>
  <path id="70A2E279" d="m180.92945,158.205491c0.95292,-0.95911 0.79136,-1.97168 1.13319,-3.1218c0.1661,-0.5602 1.0956,-0.94819 0.8966,-1.56683c-0.36987,-1.14912 -0.35613,-1.34046 0.43866,-2.45991c1.19392,-1.68064 2.20529,-3.84229 3.02975,-5.26855c0.84014,-1.4535 4.05706,-0.62434 5.7602,-0.62434c0.97749,0 6.10916,0.51767 6.61369,-0.17816c0.16736,-0.22962 0.60738,-2.90699 0.47054,-3.00695c-0.58879,-0.43354 -1.38948,-0.23755 -1.57206,-1.03928c-0.21071,-0.91656 -0.45541,-1.41343 -1.46556,-1.93107c-1.93606,-0.99077 -3.14061,-2.61503 -4.68334,-3.96412c1.17045,0 3.25878,0.46423 3.96347,-0.63838c0.72686,-1.1353 -0.16038,-2.8674 0.84044,-3.8562c1.07226,-1.05907 5.87613,-0.3514 7.41314,-0.3514c2.9509,0 5.90191,0 8.85279,0c-0.74681,2.6952 -0.8217,5.48046 -1.43269,8.19443c-0.62506,2.77834 -1.34381,5.54282 -1.85416,8.33894c1.56501,-0.13658 4.89283,-0.19793 5.14101,1.63812c0.25516,-0.4761 0.51621,-1.04521 1.17998,-1.21151c-0.20842,-0.24842 -0.4332,-0.48598 -0.67423,-0.71264c1.17284,0.3593 1.96995,1.20061 3.03398,1.71035c-2.84441,1.00562 -4.60488,3.42664 -7.22574,4.73416c-1.21973,0.6087 -2.80589,1.3352 -2.45584,2.75853c0.24695,1.00759 0.51389,1.69547 -0.46472,2.45761c-0.92589,0.72057 -3.55028,1.16103 -3.29624,2.30623c0.151,0.67699 -0.44367,0.53646 -1.0125,0.95809c-0.11239,0.08314 -1.09096,1.18676 -0.94819,1.13233c-1.15302,0.44046 -4.0618,0.59386 -3.47536,2.61401c-1.37422,-0.50578 -2.61033,-1.35204 -4.12031,-1.57176c-1.53936,-0.2237 -3.17691,0.19398 -4.75016,0.03561c-3.89318,-0.39195 -6.73058,-3.17227 -9.33634,-5.37551" stroke-miterlimit="3.974468" stroke-width="0.53819" stroke="#FFFFFF" fill="#89D800"/>
  <g id="F0A2E279">
   <path id="91A2E279" d="m258.04173,211.709721c-0.80885,-0.66019 1.24429,-1.48072 1.39061,-2.1033c0.27742,-1.16794 -1.14948,-2.44377 0.76554,-3.14355c1.56151,-0.57111 -1.31336,-1.39065 -1.31336,-1.8796c0,-1.01255 0.93808,-3.40149 0.66885,-3.7984c1.11671,-0.93998 2.18612,1.22866 2.954,-0.12115c0.58293,0.43749 1.43392,0.98682 1.68559,1.63909c-0.00117,0.47608 -0.02926,0.95118 -0.08428,1.4243c0.10184,0.37314 0.88025,-0.03564 0.81587,0.50776c-0.27508,2.32995 2.43474,1.48962 4.15662,1.77369c-0.33009,-0.49489 -0.6953,-0.969 -1.0968,-1.42529c1.45733,-0.37612 2.87838,2.62194 4.56514,2.81891c3.55144,0.41373 5.54489,-1.92415 8.54149,-2.87038c2.05431,-0.64831 4.45394,-1.16498 6.01077,-2.49525c0.85099,-0.72749 1.32857,-1.65887 2.69928,-1.66877c1.53459,-0.01089 3.02353,0.56517 4.56163,0.43847c-0.27625,0.29496 -0.52909,0.60377 -0.75852,0.92743c2.99778,-0.28308 7.08065,0.30881 9.28011,2.25374c1.04647,0.92545 3.39459,4.79056 5.30025,4.30259c-1.4152,1.84298 0.19595,2.66589 0.93573,4.57122c0.79715,2.05083 -1.73639,4.11909 -3.5484,5.19201c-0.19548,-0.52755 -0.5045,-1.00364 -0.92707,-1.42529c-0.61688,0.76001 -0.26503,0.88261 -0.32541,1.47379c-0.06232,0.61014 -0.87825,1.15545 -1.41076,2.51247c-2.28491,-1.39361 -4.38814,-4.76423 -4.50051,-7.12189c1.91618,0.60278 1.25482,-1.3471 2.07187,-2.0835c0.906,-0.81855 3.29392,1.20754 4.08053,1.58465c-0.52675,-0.54438 -1.26536,-0.85716 -1.90331,-1.2887c-0.90718,-0.61367 -0.74213,-1.63711 -1.29931,-2.41706c0.23528,0.6008 -0.15217,1.12935 -0.75852,1.42529c0.37809,-1.43518 -1.057,0.0584 -1.68559,-1.28375c0.19665,0.57903 0.16856,1.14914 -0.08428,1.71134c-0.97506,-1.51734 -1.03359,-3.0515 -2.6232,-3.82849c-0.71754,-0.35038 -1.39763,-0.76312 -2.04143,-1.20357c-1.14597,-0.7849 -0.57591,-0.7463 -1.89746,-0.68097c-1.82255,0.08908 -4.91865,0.41867 -5.43954,2.37647c-0.39682,1.49358 -2.93691,4.05316 -5.10945,3.75524c-3.42502,-0.46916 0.26104,3.81562 1.03009,4.52826c0.58995,0.54636 1.84946,1.6668 1.13075,2.47842c-0.63444,0.7176 -2.10114,0.24349 -2.88892,0.83637c-1.03008,0.775 -3.40512,1.98056 -4.86597,1.2986c-0.34648,-0.16134 -0.2224,-2.13497 -0.44832,-2.61303c-0.44364,-0.93931 -0.11003,-2.37747 -0.78075,-3.16929c-0.45535,0.44837 -0.93293,0.47212 -1.43276,0.07027c1.4468,2.36361 -1.71836,2.95451 -3.03406,0.96603c-1.1167,-1.68659 -1.07807,-2.92481 -3.44375,-3.63845c-0.77256,-0.2326 -1.5662,0.34346 -2.09294,-0.36721c-0.65785,-0.88486 -1.53342,-0.1841 -2.04846,-0.87991c-0.83226,1.00364 -2.05666,-0.05345 -3.11834,0.42758c-1.17992,0.5335 -0.33946,1.70045 -1.17992,2.35272c0.0995,-0.87595 -0.1151,-1.63677 -0.50333,-2.13991" stroke-miterlimit="3.974468" stroke-width="0.54515" stroke="#FFFFFF" fill="#89D800"/>
   <path id="C1A2E279" d="m263.09967,211.923511c0.00117,0.52063 0.19782,0.49786 0.58995,-0.07126c-0.22708,-0.12571 -0.42373,-0.10195 -0.58995,0.07126" stroke-miterlimit="3.974468" stroke-width="0.32709" stroke="#FFFFFF" fill="#89D800"/>
   <path id="F1A2E279" d="m268.66211,217.125821c-0.53025,0.45728 -1.44328,0.80073 -1.16118,1.59652c0.23294,0.65721 1.0137,1.07292 1.75114,0.61267c-0.55133,-0.66216 -0.37457,-1.46983 -0.58996,-2.20919" stroke-miterlimit="3.974468" stroke-width="0.32709" stroke="#FFFFFF" fill="#89D800"/>
   <path id="22A2E279" d="m272.9592,218.551111c0.64848,-0.16332 1.21035,-0.44838 1.68559,-0.85518c-0.64731,0.16332 -1.20918,0.44837 -1.68559,0.85518" stroke-miterlimit="3.974468" stroke-width="0.32709" stroke="#FFFFFF" fill="#89D800"/>
   <path id="42A2E279" d="m294.70448,210.141901c-0.84279,0.1158 -0.93761,0.95019 -0.75852,1.49655c1.18109,0.14748 0.97039,-0.89872 0.75852,-1.49655" stroke-miterlimit="3.974468" stroke-width="0.32709" stroke="#FFFFFF" fill="#89D800"/>
  </g>
  <path id="E5A2E279" d="m233.68971,194.051531c0.49983,-0.34343 1.84827,-1.93995 1.9407,-2.47048c0.14995,-0.85814 -2.12453,-1.90533 -1.26295,-2.33588c1.02424,-0.51076 1.28876,-1.24419 1.98412,-2.22407c0.27385,-0.38702 3.63338,0.99376 4.11789,1.19666c2.35753,0.9888 2.04491,0.34382 4.23169,-0.16853c0.96153,-0.22529 1.38313,1.03747 2.97605,0.79785c0.71757,0.79083 0.95867,1.54682 2.20006,1.74418c1.55822,0.24772 3.8158,0.29763 3.74547,-1.1028c0.68829,0.9888 0.01307,1.15822 0.68388,2.02133c0.56068,0.72354 0.90362,1.57078 1.27816,2.37051c0.79139,1.68958 1.58024,2.28048 2.90996,3.4029c1.20456,1.01553 1.82962,2.64272 3.36649,3.31382c0.84523,0.36818 0.71891,1.15211 -0.33231,0.88487c-0.80189,-0.20392 -0.99832,-1.02069 -2.00024,-0.41593c0.45062,0.66613 -0.52826,2.27739 -0.56826,3.37455c-0.0411,1.12949 3.18711,1.50178 0.98824,2.46934c-1.77503,0.78102 0.60643,2.46128 -0.93416,3.60577c-1.70072,1.26357 -0.10645,2.01029 -0.4635,3.56425c0.10302,-0.78491 -0.30081,-1.39065 -0.90014,-1.95384c-0.38049,-0.21873 -0.72684,-0.47014 -1.03948,-0.75522c0.1042,-0.29595 0.19546,-0.59485 0.27159,-0.89675c-0.33363,-0.94424 -1.61421,-3.02676 -3.13703,-2.23889c0.29141,1.14816 2.04611,1.57276 1.51701,2.92184c-1.25485,-0.33155 -3.21902,-0.7047 -3.52574,-2.02213c-0.20014,-0.85715 1.15886,-1.51733 1.25131,-2.39627c0.2282,-2.1706 -2.57283,-2.99608 -4.22796,-4.08681c-1.00783,-0.66416 -1.25722,-1.13331 -2.65363,-1.16399c-1.37544,-0.02968 -2.18421,-0.59784 -2.1258,-1.81327c0.13941,-2.88327 -3.92127,-2.87632 -5.23582,-4.90836c0.26108,0.5513 0.31717,1.14121 0.55834,1.69548c0.38161,0.87796 1.31094,0.77007 2.02975,1.29663c1.00082,0.73344 -0.18851,2.22404 -1.12141,2.53288c-1.13071,0.37414 -2.09177,-1.64305 -3.31617,-1.87367c-2.0602,-0.39197 -3.62862,-2.56256 -3.20611,-4.36597" stroke-miterlimit="3.974468" stroke-width="0.53819" stroke="#FFFFFF" fill="#89D800"/>
  <g id="96A2E279">
   <path id="07A2E279" d="m346.19925,123.213901c2.01101,0.70571 2.6911,0.44837 4.63538,0.49885c-2.3212,0.24051 1.04647,0.73343 1.60014,0.79083c1.3075,0.13462 2.57637,0.16629 3.88622,0.35039c1.78743,0.24942 1.44445,-0.35929 2.87721,-0.76511c0.91068,-0.25734 2.36685,0.30981 2.50848,-0.66018c0.2505,-1.72223 -3.58305,-2.26958 -3.0563,-4.49956c0.51972,-2.1993 0.91654,-3.62063 -2.42187,-4.19471c-1.30984,-0.22468 -4.44223,-0.10986 -1.81435,-1.67273c3.03875,-1.80636 5.35175,-0.61169 8.37411,0.13461c1.99461,0.49291 5.5654,-0.2294 5.72796,2.18149c0.05317,0.78845 -0.82911,1.9015 -0.16996,2.79851c0.71518,0.97329 -1.16177,1.63485 -1.356,2.21296c-0.13645,0.40613 0.66794,0.47965 0.55322,1.29226c-0.15451,1.10163 -1.51397,1.87584 -2.80392,1.81843c1.48962,1.10175 2.62771,3.22674 1.34965,4.84599c-1.79211,-2.13101 -4.94557,-1.84892 -7.58633,-1.28276c-2.53541,0.54339 -8.44083,-2.04292 -10.01873,0.41966c-1.20215,1.87664 -2.65948,-1.24415 -4.47968,-1.50546c-2.92638,-0.42066 0.09598,-3.92746 2.19477,-2.76347" stroke-miterlimit="3.974468" stroke-width="0.54515" stroke="#FFFFFF" fill="#B9B9B9"/>
   <path id="37A2E279" d="m350.07494,128.202411c-0.30902,-0.07127 -0.61805,-0.14253 -0.92707,-0.2138c0.65082,-0.21181 0.50333,0.01782 0.92707,0.2138" stroke-miterlimit="3.974468" stroke-width="0.32709" stroke="#FFFFFF" fill="#B9B9B9"/>
   <path id="57A2E279" d="m357.57699,122.715041c-0.22826,-0.14351 -5.12818,-1.90533 -3.40045,-2.20524c1.10149,-0.19102 4.28772,0.89378 3.40045,2.20524" stroke-miterlimit="3.974468" stroke-width="0.32709" stroke="#FFFFFF" fill="#B9B9B9"/>
   <path id="87A2E279" d="m359.85253,111.526521c-0.28093,-0.07126 -0.56186,-0.14253 -0.84279,-0.21379c0.64848,-0.48203 1.50649,-0.31475 2.02271,0.21379c-0.39331,0 -0.78661,0 -1.17992,0" stroke-miterlimit="3.974468" stroke-width="0.32709" stroke="#FFFFFF" fill="#B9B9B9"/>
  </g>
  <path id="18A2E279" d="m196.44494,165.209481c-0.31331,-1.08054 0.09704,-1.56312 0.90577,-2.19353c1.22058,-0.95249 2.30359,-0.56698 3.35537,-1.13472c0.14394,-0.07767 1.08118,-1.52019 2.27981,-1.96973c0.4565,-0.17118 0.07064,-0.79827 0.1927,-1.27949c0.26763,-1.06561 2.36883,-0.65561 3.1953,-0.46166c1.37932,0.32332 8.82617,4.2613 8.07032,5.69745c1.51748,-0.01241 4.90129,-2.37372 5.39969,0c1.31035,-0.72988 3.59107,-0.25738 2.97937,1.27453c-0.13097,0.32953 -1.20445,4.73004 -1.60288,3.38092c-1.09406,1.24716 1.10293,2.25807 -1.90587,2.95442c-2.85272,0.65902 -4.92619,-1.70226 -7.41142,-1.16384c2.76163,0.64036 -1.43087,0.33568 -2.1323,0.06214c-1.72198,-0.67023 -3.1689,-1.8552 -5.00572,-2.32026c-1.71898,-0.43645 -3.71454,0.18155 -5.35716,-0.51724c-0.96758,-0.41285 -1.89111,-1.77565 -2.96298,-2.32899" stroke-miterlimit="3.974468" stroke-width="0.676113" stroke="#FFFFFF" fill="#89D800"/>
  <path id="B9A2E279" d="m206.46384,159.202451c0.63444,-1.33423 2.69578,-1.63611 1.71018,-3.30786c-0.5525,-0.93534 0.98794,-2.36756 1.84595,-2.69617c1.98291,-0.75817 3.53812,-2.20747 5.14529,-3.43876c0.63092,-0.484 1.48002,-0.91035 2.2198,-1.28548c0.85684,-0.43452 1.34145,0.16331 2.03559,-0.52855c0.95634,-0.95316 3.1359,-1.8014 4.26899,-0.82449c0.82406,0.71166 4.90694,0.79183 6.1325,0.69681c1.71017,-0.13164 4.31699,0.21973 5.78836,-0.57605c0.52675,-0.28506 4.43755,-1.0175 2.2896,-1.5797c1.92087,-0.05147 3.57251,0.969 5.47934,0.99771c1.96652,0.0287 4.25494,-1.18874 6.01427,0.12867c1.49597,1.12043 2.3493,0.01088 3.84643,0.65523c1.74294,0.75125 2.64778,2.48733 3.96113,3.63449c-0.60751,-0.2613 -1.17991,-1.06896 -1.92555,-1.06896c-0.72691,0 -1.36252,0.10689 -1.9513,-0.35633c0.5642,0.26823 0.59229,0.8146 0.73627,1.27484c0.10652,0.33851 1.2162,1.05314 1.53927,1.36195c0.2306,-0.57111 -0.07725,-0.95019 -0.75734,-1.06798c0.81821,-0.74729 2.10933,1.39659 3.7083,0.71265c0.10417,0.46816 0.28561,0.6483 -0.08428,1.06896c1.69963,-0.36226 0.14749,-1.32631 -0.67424,-1.56782c2.73323,0.32564 2.21936,2.28047 4.38253,2.99212c-1.53927,0.2227 -2.97085,-0.00792 -4.3322,0.79777c-1.18927,0.70472 -3.62636,1.37679 -5.07315,1.34413c-1.14831,-0.02475 -2.20063,1.01452 -3.18624,0.76411c-0.69764,-0.17717 -1.35198,-0.39493 -1.98876,-0.69681c-0.29498,-0.14055 -0.3219,-0.64237 -0.61454,-0.69285c-1.60365,-0.27516 -1.76753,1.44806 -2.33524,2.1894c-0.36638,0.47807 -1.01253,0.70572 -1.34847,1.2115c-0.18378,0.27615 0.24361,0.75994 -0.07141,0.95316c-1.16829,0.71661 -4.8446,2.46852 -5.40676,4.10662c-2.55226,-1.37692 -3.06093,-2.58131 -4.70678,-0.23755c-1.14342,1.6283 -4.62063,0.13075 -4.43872,1.55594c0.18048,1.41394 0.9142,3.06041 -1.05583,3.33953c-1.03711,0.14649 -0.87089,1.09371 -1.14597,1.72421c-0.47758,1.09371 -2.28608,0.69878 -3.3185,0.81558c0.76319,-1.04917 -3.03758,-2.5002 -0.33712,-3.35042c-0.83343,0.23359 -1.95248,0.2227 -2.10699,-0.71265c-0.24581,0.79084 -1.01252,1.01552 -1.76987,0.49886c1.00082,-0.27615 0.82056,-1.16003 0.87323,-1.85486c0.08662,-1.12637 1.30048,-2.38637 -1.04764,-2.40221c-0.77022,0.51469 -1.18577,0.41868 -1.24898,-0.28703c-0.23879,-0.2524 -0.54781,-0.35039 -0.92707,-0.29595c-1.09329,0.10492 -2.01803,0.84033 -3.12771,0.84924c0.83343,-1.58465 -6.14538,-4.11256 -6.99637,-4.845" stroke-miterlimit="3.974468" stroke-width="0.54515" stroke="#FFFFFF" fill="#89D800"/>
  <path id="E9A2E279" d="m232.75905,143.453001c1.01955,-0.5711 2.14678,-0.9878 3.2869,-1.35402c-1.18108,0.0099 -2.69812,0.40482 -3.2869,1.35402" stroke-miterlimit="3.974468" stroke-width="0.32709" stroke="#FFFFFF" fill="#408000"/>
  <path id="AAA2E279" d="m220.7106,170.961821c1.06177,0.37714 1.09453,1.32335 2.4442,1.2125c0.18787,-0.26696 -0.39797,-0.54019 0.14704,-0.61154c0.55473,-0.05912 2.07165,-0.13031 2.58379,-0.26046c1.11085,-0.2811 0.40852,-1.57077 1.19517,-2.03796c0.58766,-0.3484 1.50647,-0.07622 1.64927,-0.7859c0.18146,-0.89773 -0.75965,-2.71795 -0.09713,-3.43157c0.61218,-0.66021 2.01919,-0.12869 2.78586,-0.04355c0.97047,0.10588 1.36141,-0.61765 1.91042,-1.16797c2.05782,-2.06073 2.33283,-0.59386 4.4902,0.57013c0.35726,-1.72991 3.11996,-2.89234 4.82619,-4.10169c1.16177,-0.07342 -0.06518,-0.76758 1.26763,-1.71233c1.00602,-0.71305 0.98143,-1.87185 2.06186,-2.55973c1.22442,-0.77998 1.68983,0.521 2.68947,0.98545c1.45031,0.67384 2.12534,-0.05651 3.49528,-0.45737c1.48744,-0.43526 4.08166,-0.56554 5.46523,-1.20393c0.62866,-0.29002 1.13077,-0.78689 1.85413,-0.92745c0.90136,-0.17417 1.7921,0.13065 2.697,0c-0.76791,0.30983 -1.18816,1.6886 -2.19129,0.92745c-0.94813,1.39459 1.49125,3.70178 0.67428,5.48737c-0.79011,1.72915 -2.42895,2.71795 -3.09969,4.6025c-0.83455,2.34678 -0.49624,4.69355 -0.95517,7.06408c-0.22239,1.15113 0.36291,4.19174 -1.25483,4.36795c0.05162,-1.34711 0.95515,-2.33097 0.67421,-3.77705c-1.07332,0.22667 -0.03388,1.87666 -2.02264,2.423c1.3497,1.47181 0.35939,3.00698 0.42141,4.63219c-0.31138,-0.44638 -0.3956,-0.92146 -0.25283,-1.42528c-0.1943,0.97495 -0.93179,1.842 -0.92711,2.85157c2.17258,-0.65919 0.46243,1.79843 0.03167,2.39825c-1.02547,1.42827 -1.76293,3.09702 -0.44947,4.68268c0.58525,0.70572 1.689,1.35402 -0.08906,1.95285c-1.04058,0.35038 -2.82689,0.29199 -3.72349,-0.3098c-0.26919,-0.19599 -0.4975,-0.42166 -0.68471,-0.67801c-0.75737,-0.94329 -0.49877,-0.60476 -1.51824,-0.75421c-0.78313,-0.11483 -1.27009,-0.91356 -2.12574,-0.76313c-0.69293,0.12076 -1.32398,0.31828 -1.92443,0.5954c-0.37787,0.17394 -1.35962,-0.10674 -1.85823,-0.294c-2.55457,-0.95947 -3.70725,-1.41541 -4.05649,-1.44363c-0.17452,-0.01411 -0.84998,-0.05921 0.26664,-0.21984c0.71176,0.09619 8.27881,3.47142 6.30028,-0.96294c-0.40512,-0.37526 -2.21267,-3.16296 -2.61338,-3.50579c-0.38466,-0.32917 -2.71594,-1.66682 -2.94797,-2.1999c-0.24874,-0.57153 -2.15114,-0.94172 -2.53094,-0.88623c-1.5695,0.22937 -0.55248,3.99753 -0.86109,3.57424c0.3743,0.32642 1.25148,3.42186 2.64407,3.983c-0.18742,-0.01328 0.04556,0.31471 -0.33423,0.21099c-1.01117,-0.27609 -0.75995,2.62237 -2.14856,0.07776c-0.77978,-1.42891 -2.41836,-2.41411 -3.71063,-3.46327c-2.56118,-2.07953 -3.62868,-4.91823 -6.37023,-6.93246c-1.76047,-1.29363 -5.55307,-3.84234 -3.82772,-5.68237" stroke-miterlimit="3.974468" stroke-width="0.53819" stroke="#FFFFFF" fill="#89D800"/>
  <path id="7DC2E279" d="m-5.49578,0.283221c-0.14045,0 -0.28093,0 -0.42139,0c0.05388,0.57112 0.33482,1.0462 0.84279,1.42429c0.07734,-0.52063 -0.06311,-0.99571 -0.4214,-1.42429" stroke-miterlimit="3.974468" stroke-width="0.322914" stroke="#FFFFFF" fill="#B9FFB9"/>
  <path id="EDC2E279" d="m159.35511,46.890221c0.72451,-0.64037 1.34374,-1.3639 1.85412,-2.13791c-1.2326,1.16198 -3.47771,2.59917 -3.37118,4.34711c0.42378,-0.77498 0.96805,-1.49554 1.51706,-2.2092" stroke-miterlimit="3.974468" stroke-width="0.322914" stroke="#FFFFFF" fill="#B9FFB9"/>
  <path id="2EC2E279" d="m165.08606,41.402881c0,0.16627 0,0.33254 0,0.49884c1.13429,-0.71066 2.47819,-1.1818 3.45554,-2.06669c-1.17876,0.48103 -2.26857,1.10264 -3.45554,1.56785" stroke-miterlimit="3.974468" stroke-width="0.322914" stroke="#FFFFFF" fill="#B9FFB9"/>
  <path id="EEC2E279" d="m184.38611,31.924701c-0.7339,0.58198 -1.65512,0.95513 -2.35981,1.56781c1.16006,-0.58895 2.40439,-1.10462 3.37118,-1.92415c-0.33704,0.11878 -0.67424,0.23756 -1.01137,0.35634" stroke-miterlimit="3.974468" stroke-width="0.322914" stroke="#FFFFFF" fill="#B9FFB9"/>
  <path id="1FC2E279" d="m212.19722,29.644211c-0.52909,-0.8819 -1.89628,-0.52063 -2.61153,-0.07125c0.80301,0.47906 1.92101,1.0274 2.61153,0.07125" stroke-miterlimit="3.974468" stroke-width="0.322914" stroke="#FFFFFF" fill="#B9FFB9"/>
  <path id="5FC2E279" d="m216.24264,32.423541c1.10267,-2.01124 -2.61262,0.23756 0,0" stroke-miterlimit="3.974468" stroke-width="0.322914" stroke="#FFFFFF" fill="#B9FFB9"/>
  <path id="9FC2E279" d="m235.03812,24.869471c-0.28094,0.14255 -0.56185,0.28508 -0.84282,0.42759c0.82184,0.53449 1.10271,0.39099 0.84282,-0.42759" stroke-miterlimit="3.974468" stroke-width="0.322914" stroke="#FFFFFF" fill="#B9FFB9"/>
  <path id="98D2E279" d="m340.13231,82.379881c-0.28093,-0.09502 -0.56187,-0.19003 -0.8428,-0.28505c0.31254,0.03167 0.5923,0.12768 0.8428,0.28505" stroke-miterlimit="3.974468" stroke-width="0.32709" stroke="#FFFFFF" fill="#B9B9B9"/>
  <path id="4AD2E279" d="m336.25545,80.028161c1.16119,0.11976 1.44914,1.20258 2.19127,1.78161c-0.82524,-0.388 -2.03324,-0.88289 -2.19127,-1.78161" stroke-miterlimit="3.974468" stroke-width="0.32709" stroke="#FFFFFF" fill="#B9B9B9"/>
  <path id="AAD2E279" d="m342.49213,80.099421c1.12022,1.34116 0.75267,2.76249 1.37306,4.14423c0.40033,0.8908 2.35163,1.29464 1.23961,2.41309c-0.19431,-1.32334 -1.89395,-1.39361 -2.44411,-2.49425c1.93609,1.29265 -0.36872,-3.23858 -0.16856,-4.06307" stroke-miterlimit="3.974468" stroke-width="0.32709" stroke="#FFFFFF" fill="#B9B9B9"/>
  <path id="DAD2E279" d="m346.70494,80.384481c-0.28093,-0.07127 -0.56186,-0.14253 -0.8428,-0.21379c0.77959,-0.67207 1.05935,-0.6008 0.8428,0.21379" stroke-miterlimit="3.974468" stroke-width="0.32709" stroke="#FFFFFF" fill="#B9B9B9"/>
  <path id="FAD2E279" d="m349.74017,92.641971c1.2958,-0.82548 2.27321,-1.95978 3.7083,-2.63679c-1.73358,-0.85418 -0.29147,-1.91325 0.23762,-1.14518c1.22088,1.77666 -2.75079,3.12277 -3.94592,3.78197" stroke-miterlimit="3.974468" stroke-width="0.32709" stroke="#FFFFFF" fill="#B9B9B9"/>
  <path id="5BD2E279" d="m351.67743,88.793691c-0.89079,-0.11482 -1.9197,-0.68197 -1.68559,-1.56782c0.70584,0.33553 1.86819,0.68691 1.68559,1.56782" stroke-miterlimit="3.974468" stroke-width="0.32709" stroke="#FFFFFF" fill="#B9B9B9"/>
  <path id="8BD2E279" d="m353.11135,103.687961c-0.78427,-1.12143 1.13309,-2.16565 2.17839,-2.40716c0.71989,-0.16628 0.91771,0.23359 1.53576,0.34049c1.03594,0.17915 1.8284,-0.99473 2.52253,-1.42529c-0.19431,0.91555 -0.52323,2.06667 -1.37656,2.71597c-1.19162,0.90565 -3.42854,0.29792 -4.86012,0.77599" stroke-miterlimit="3.974468" stroke-width="0.32709" stroke="#FFFFFF" fill="#B9B9B9"/>
  <path id="ABD2E279" d="m359.26375,99.269561c-0.1826,-0.59783 0.09014,-0.93138 0.8428,-0.78391c-0.25635,0.2811 -0.53611,0.54241 -0.8428,0.78391" stroke-miterlimit="3.974468" stroke-width="0.32709" stroke="#FFFFFF" fill="#B9B9B9"/>
  <path id="DBD2E279" d="m362.55065,92.000591c-0.61219,-0.89576 -2.81165,-0.19499 -2.8655,-1.28375c0.61688,-0.06632 3.44493,0.31673 2.8655,1.28375" stroke-miterlimit="3.974468" stroke-width="0.32709" stroke="#FFFFFF" fill="#B9B9B9"/>
  <path id="20E2E279" d="m308.1061,126.421341c2.34344,-2.61303 6.68149,-2.19831 10.02926,-1.63908c2.06016,0.34445 3.65562,1.39461 5.6081,1.89544c2.02271,0.51865 2.14327,1.28078 3.15697,2.73774c-0.89664,0.35929 -1.85532,0.42759 -2.83273,0.42759c-0.90366,0 -1.3473,-0.78787 -2.30832,-0.64039c1.24429,-0.17816 -0.302,-0.38602 -0.64966,-0.12471c-0.36638,0.27516 -0.68828,0.82152 -1.24195,0.84131c-1.08393,0.03761 -2.49912,-0.13065 -1.56385,1.20754c-1.12022,0.00891 -1.26771,-1.14221 -2.32705,-1.06006c-1.02306,0.07918 -2.79995,-0.0099 -3.35714,-0.87497c-0.34414,-0.53448 -0.92239,-1.03828 -1.3988,-1.48863c-0.82056,-0.776 -2.4722,-0.31674 -3.11483,-1.28178" stroke-miterlimit="3.974468" stroke-width="0.32709" stroke="#FFFFFF" fill="#B9B9B9"/>
  <path id="E0E2E279" d="m417.32531,128.986871c-2.8421,-0.17619 -6.49772,0.67404 -9.21573,-0.01584c-0.61688,-0.15639 -1.94663,0.24052 -1.54045,-0.9789c0.23294,-0.33356 0.39214,-0.69186 0.47876,-1.07193c-0.05619,-0.59783 -0.9458,-0.83538 -0.8428,-1.49656c0.35585,-2.28145 9.06941,-0.92743 10.46822,-0.50083c1.12958,0.34445 3.79843,-0.38404 3.77736,1.28474c-0.0117,0.96306 -2.1503,2.47842 -3.12536,2.77932" stroke-miterlimit="3.974468" stroke-width="0.32709" stroke="#FFFFFF" fill="#B9B9B9"/>
  <path id="13E2E279" d="m387.16143,179.727151c-1.44797,-0.3009 -3.41918,-1.35799 -3.45312,-2.78031c0.77841,0.09898 3.24008,2.12705 3.45312,2.78031" stroke-miterlimit="3.974468" stroke-width="0.32709" stroke="#FFFFFF" fill="#B9B9B9"/>
  <path id="43E2E279" d="m391.53928,179.869681c-0.1908,-0.4078 0.09481,-1.45499 -0.52089,-1.66383c-0.51856,-0.17717 -0.74681,-0.12768 -0.56772,-0.76016c1.0968,0.70077 2.46752,1.22734 1.08861,2.42399" stroke-miterlimit="3.974468" stroke-width="0.32709" stroke="#FFFFFF" fill="#B9B9B9"/>
  <path id="59E2E279" d="m421.21269,127.918871c0.37925,-0.47807 1.00199,-0.76214 1.68559,-0.57111c-0.46471,0.39691 -1.02658,0.58694 -1.68559,0.57111" stroke-miterlimit="3.974468" stroke-width="0.32709" stroke="#FFFFFF" fill="#B9B9B9"/>
  <path id="89E2E279" d="m426.26946,131.409841c-0.05619,-1.50546 1.84946,-0.40977 2.7742,-0.71265c-0.80651,0.52558 -1.81787,0.56913 -2.7742,0.71265" stroke-miterlimit="3.974468" stroke-width="0.32709" stroke="#FFFFFF" fill="#B9B9B9"/>
  <path id="1BE2E279" d="m282.99081,117.299491c0.8545,0.04454 1.68208,-0.1643 2.52838,-0.21379c-0.76085,0.44342 -1.65281,0.82944 -2.61266,0.71264c0.02692,-0.16628 0.05618,-0.33256 0.08428,-0.49885" stroke-miterlimit="3.974468" stroke-width="0.32709" stroke="#FFFFFF" fill="#B9B9B9"/>
  <path id="2FE2E279" d="m376.36898,175.878881c-0.14046,-0.23754 -0.28093,-0.4741 -0.4214,-0.71264c0.93059,-0.3098 1.32155,0.82845 1.43861,1.35403c-0.36873,-0.18015 -0.70818,-0.39394 -1.01721,-0.64139" stroke-miterlimit="3.974468" stroke-width="0.32709" stroke="#FFFFFF" fill="#B9B9B9"/>
  <path id="EFE2E279" d="m427.11226,125.993741c-0.28093,-0.09502 -0.56186,-0.19004 -0.84279,-0.28506c0.81704,-0.31574 1.09914,-0.22072 0.84279,0.28506" stroke-miterlimit="3.974468" stroke-width="0.32709" stroke="#FFFFFF" fill="#B9B9B9"/>
  <text xml:space="preserve" text-anchor="start" font-family="Oswald, sans-serif" font-size="10" id="svg_1" y="76" x="89" stroke-width="0" stroke="#000" fill="#000000">Mexico</text>
  <text xml:space="preserve" text-anchor="start" font-family="Oswald, sans-serif" font-size="10" id="svg_2" y="138" x="297" stroke-width="0" stroke="#000" fill="#000000">Jamaica</text>
 </g>
</svg>