<?xml version="1.0" encoding="utf-8"?>
<!-- Generator: Adobe Illustrator 21.0.2, SVG Export Plug-In . SVG Version: 6.00 Build 0)  -->
<svg version="1.1" id="Layer_1" xmlns="http://www.w3.org/2000/svg" xmlns:xlink="http://www.w3.org/1999/xlink" x="0px" y="0px"
	 viewBox="0 0 355.7 588.6" style="enable-background:new 0 0 355.7 588.6;" xml:space="preserve">
<style type="text/css">
	.st0{fill:#CCCCCC;}
	.st1{font-family:'Helvetica';}
	.st2{font-size:12px;}
</style>
<g>
	<title>Layer 1</title>
	<g id="g2675">
		<g id="Peru">
			<path id="path2120" class="st0" d="M0,147.7c1-2.1,1.5-3.5,3.1-5.2c0.7-0.8,1.2-1.7,2.1-2.4c0.6-0.5,1.9-1.1,2-2
				c1,0.3,2,4.3,1.2,4.9c-0.6,0.4-1.3,0-1.8,0.7c-0.5,0.7-0.4,1.7,0.6,1.9c-0.8,1.1-0.5,2.8,0.9,1.4c1.2-1.3,1.6-0.7,2.7,0.3
				c1,0.8,2-0.4,2.8,0.8c0.8,1.3,0.8,3.3,2.6,3.7c1.5,0.3,1.7,0.5,2.2-1.2c0.4-1.3,1.9-1.6,1.9-3c0.1-1.8,0.4-3.5,1.1-5.1
				c0.4-0.9,0.9-1.5,0.9-2.5c0-0.6,0.7-2.4,1.1-0.7c0.2-0.4,0.3-0.8,0.1-1.2c-0.1-0.6,0.8-1.2,1-1.5c0.8-1,1.7-1.8,2.9-2.3
				c2.5-1.2,5.5-1.6,7.8-3.2c4.8-3.4,8.2-8.4,9.2-14.1c0.4,0.4,0.9,0.6,1.4,0.5c-0.7-1.7,0-3.1-1-4.5c-0.4-0.6-2.3-2.3-2.2-2.9
				c0.8,0.1,1.8,0.4,2.5,0c0.8-0.5,0.5-0.6,1.4-0.3c1.5,0.6,2.6,1.1,3.6,2.4c1.3,1.6,2.1,2.2,2.7,4.3c0.3,0.9-0.1,1.6,1.1,1.7
				c1.2,0.1,0.8,0.6,1.6,1.3c1.5,1.4,2.7,0.6,3.2,3c0.4,1.8,0.3,2.3,2.3,2.8c2.1,0.6,0.1,3.1,1.2,4.3c0.6,0.7,1.5,0.9,2.3,0.9
				c0.5-0.1,1.1-0.1,1.6-0.1c0.7,0,1.5,0.4,2.2,0.4c1.4-0.1,3.2-1.1,3.8-2.4c0.7-1.3,2.5,1.2,3.3,1.3c1.2,0.1,3-1.6,3.9-1
				c0.7,0.5,1.3,1.2,1.9,1.7c0.6,0.4,2.1,0.3,2.5,0.7c1.6,1.7,1.6,2.3,0.4,4.2c-1,1.6-2.9,4.2-3.2,6c-0.3,2.2,2.2,0.5,3.1,1.3
				c0.8,0.7,1.3,1.5,1.9,2.4c0.6,1,0.2,2.5-0.7,1.1c-0.2,0.2-0.4,0.5-0.6,0.7c-1.1-1.5-3.6-2.5-5-0.7c-1.6,2-5.1,1.5-7.4,2.1
				c-1.2,0.3-1.8,1.7-3,2c-1.3,0.4-0.9,0.9-1.7,1.7c-2,1.8-3.4,1.3-3.4,4.4c0,1.1,0.1,2-0.6,2.9c-0.6,0.9-1.3,1.8-1.1,2.9
				c0.2,1.2,1.3,2.9-0.1,3.8c-1.1,0.8-2.2,1.2-3.1,2.2c-0.7,0.8-1,1.7-0.8,2.7c0.1,0.5,0.3,1,0.5,1.4c-0.6,0.2-1.1,0.5-1.6,1
				c-1.6,1.7,3.2,3.3,1.2,4.5c1,0.7,1.7,1.9,1.9,3c0.1,0.7,0.6,0.9,1.1,1.3c0.6,0.5,0.6,1.3,1,1.9c0.7,1.1,2.1,1.6,2.6,2.8
				c0.6,1.5-0.6,2.4-1.4,3.5c1.8,0.9,4.4,0.1,6.2,1.3c1.1,0.8,2.2,2.7,1.8,4.1c2.4,0.3,5.4,0.8,7.6-0.6c1.3-0.9,3.1-4.2,4.9-4.3
				c-0.2,0.9-0.9,0.9-0.4,1.8c0.6,1-0.4,1.9-0.3,3c0.2,2.8,0.3,5.7,0.6,8.5c0.9-0.8,1.6,0.8,2.5,0.8c1.3-0.1,2.3-1.2,3.6-1.2
				c1.3,0,2,0,2.6,1.2c1,1.8,2,3.6,3,5.4c1,1.8,2,3.6,3,5.4c0.8,1.3,1.4,2.6,0,3.8c-1.2,1.1-0.9,2.4-0.8,3.9c0.1,1.6-0.4,4,0.2,5.4
				c0.3,0.9,1.2,1.7,1.2,2.7c0,0.1-0.8,2.4-0.9,2.4c-0.9,0.8-1.5,2.1-1.9,3.2c-0.7,2,1.4,2.3,1.4,3.9c0,1.1-1,2-1.2,3.1
				c-0.2,0.9,0.5,2.1,0.8,3c0.3,0.8,0.9,2.3,1.9,2.5c0.5,0.1,3,0.3,1.5,1.3c-1,0.7-0.1,2.3-0.8,2.6c-1.2,0.7-1.5,2.6-2.4,3.5
				c-0.4,0.4-1,0.6-1.3,1.1c-0.6,0.9,0.3,0.6,0.8,1.3c1.2,1.6-1.3,2-1.7,3c-0.5,1.1,0.7,2.5-0.1,3.8c-0.7,1.1-2,1.5-3.2,1.5
				c-1.4,0-2.4-1-3.3-1.9c-1.1-1-2.3-1.5-3.5-2.3c-2.1-1.5-1.9-4.2-4.4-5.2c-3-1.2-5-4.1-8.1-4.9c-1.5-0.4-3-1.4-4.3-2.2
				c-1.5-1-3.2-1.3-4.7-2.1c-1.5-0.8-2.8-2.1-4.4-3c-1.7-1-3.4-1.9-5.2-2.9c-1.5-0.8-2.4-2.7-3.5-3.8c-1.5-1.6-3.7-2.4-4.8-4.4
				c-0.6-1.1-1.4-2.4-2.4-3.1c-0.9-0.6,0.3-2.8-1.3-2.5c0-0.3,0.1-0.5,0.2-0.8c0.2,0.1,0.5,0.3,0.7,0.4c0.6-3.2-0.7-4.9-2.3-7.5
				c-1.5-2.4-2.4-4.9-4.5-6.8c-0.6-0.6-1.2-0.9-1.1-1.7c0.2-0.9-0.3-1.9-0.8-2.7c-0.4-0.7-0.9-1.6-1.6-2.1c-0.6-0.5-1.7-0.8-2-1.5
				c0-0.4,0-0.8,0.1-1.2c-0.1-0.9-0.7-1.9-1.1-2.6c-0.8-1.5-1.8-2.8-2.6-4.2c-0.8-1.3-1.2-2.9-1.8-4.4c-1.3-3.4-3.4-5.9-4.3-9.2
				c-1.3-4.4-5-7.1-6.8-11.5c-2-5-6-8.6-10.9-10.6c-0.4-0.2-2-0.6-2.1-1.2c-0.1-0.8-0.3-2.2,0.9-2.1c2.1,0.3,1.3-1.7,0.6-2.8
				c-1-1.5-1.9-2.1-2-3.9c0.2-0.2,0.4-0.5,0.6-0.7c0-0.3-0.9-1.1-1.1-1.3C-0.2,149.6,0.4,148.9,0,147.7"/>
		</g>
		<g id="FrenchGuiana">
			<path id="path2122" class="st0" d="M203.6,88.7c1.3-0.1,2.3-2.3,2.8-3.2c0.8-1.8,0-3.8,1.2-5.5c1.5-2,0.1-3.4-1.1-4.9
				c-1.3-1.6-1.2-4.5-1.4-6.5c-0.1-2.3,0.2-3.6,1.9-5.2c0.6-0.6,1.4-1.3,1.6-2.1c0.3-1.1,0.6-2.6,2.2-2c1,0.4,1.8,1.2,2.9,1.5
				c1.2,0.3,2.7,0.3,3.7,1.1c1.2,1,2.8,4.6,4.7,4.5c-0.3,0.5-0.5,1-0.6,1.5c0.5-2.4,4.6,1.7,2.3,3.3c1.1-0.4,0.5-1.5,1-2.2
				c0.9-1.1,1.5,1.5,1.6,2.1c0.3,2.7-1.8,5.6-3.2,7.7c-1.6,2.5-2.7,4.6-3.8,7.3c-0.4,1-0.9,1.9-1.8,2.6c-0.4,0.3-1,1-1.5,1.1
				c-0.8,0.2-1.4-0.4-2.2,0c0.3-1-0.3-1-1-0.8c-1,0.3-1.9-0.1-2.9-0.4c-0.5-0.2-2.4,1.2-2.7,1.6C206.7,90.9,204,89.1,203.6,88.7"/>
		</g>
		<g id="Bolivia">
			<path id="path2626" class="st0" d="M92.4,203.5c1.9,0.1,3.8,0.3,5.7,0.4c0.9,0.1,0.4,0.2,0.6,0.7c0.2,0.9,1.6,0,2-0.2
				c0.4-0.2,1.3-0.4,1.6-0.8c0.4-0.7,0.6-1.7,1.2-2.2c1.4-1.2,2.6,0.7,3.4-1.2c0.7-1.7,2.8-1.7,4.1-2.7c1.2-0.9,1.8-2.6,3.4-3.1
				c1.8-0.5,3.8-1.4,5.8-1.1c2.1,0.3,1.7,0.5,3.1-0.8c3.1,2.1-0.2,6.1,0.7,8.8c0.2,0.7,0.8,1.1,1,1.7c0.3,0.7-0.4,1.4-0.5,2
				c-0.5,1.8,1.3,2.8,1.7,4.2c0.3,1,0.2,0.9,1,1.6c0.5,0.4,0.4,1.6,0.9,1.8c0.6,0.4,1.1-0.1,1.7,0.6c0.7,0.8,1.3,0.9,2.1,1.5
				c0.1,0.1,0.4,1.1,0.6,1.2c0.5,0.6,1.1,0.7,1.9,0.8c1,0.2,1.5,0.6,2.5,0.1c0.8-0.4,1.6-0.2,2.3,0.3c0.6,0.4,1.1,0.9,1.7,1.3
				c0.8,0.5,1-0.6,1.6-0.4c1.2,0.4,1.3,2.7,2.9,2.9c1.4,0.2,2.4,1.3,3.8,1.4c1.9,0.1,2.2,3,3.8,3.4c1.3,0.3,2.6,0.1,3.9-0.1
				c1.9-0.3,3.8,1.2,5.3,2.1c2.5,1.4,0.9,2.8,1.8,4.9c1,2.3,1.4,4.3,1.9,6.7c-0.6,0-1.2,0-1.9,0.1c0.1,1.8,2.3,2.8,2.6,4.7
				c0.2,1.4,0.1,3.1,0.7,4.4c0.8,1.7,3.9,1.1,5.4,1.3c2.8,0.3,5.8,0.7,8.6,0c0,1.3-0.7,2-0.8,3.2c-0.1,0.9,0.3,2.1,0.6,3.1
				c0.4,1.4,2.1,3.7,3.6,4c0.8,0.1,1.2-0.4,1.6,0.6c0.3,0.8,0.6,1.5,0.9,2.2c0.8,2,1.8,3.1,1.4,5.2c-0.2,1.1-1.1,2.9-0.8,4.1
				c0.5,1.6-0.6,2.9-1.2,4.4c-0.8,2-0.9,3,0.8,4.3c1.2,1-0.7,1.7-1.6,2.3c0.6-2-0.7-3.3-2.2-4.3c-1.6-1-3.7-2.9-5.6-3.3
				c-5.1-1.2-11.2,1.5-16.1,2.4c-2.4,0.4-3.7,0.4-4,3c-0.3,2.1-2.2,3.6-2.5,5.7c-0.3,2,0.7,3.8,0.3,5.8c-0.6,2.9-0.8,5.8-1.5,8.7
				c-1.4-1.2-1.2-2.2-3.2-2.2c-1.5,0.1-3.3-0.1-4.8,0.5c-1.7,0.7-1.6-1-2.5,1.3c-0.8,2-1.2,3.8-1.4,5.9c-2.2-3-1.8-6-6-6.7
				c-1.7-0.3-4.2,0.5-5.7-0.2c-1.3-0.6-2.1-2.3-3.6-2.6c-0.2,2.2-0.1,2.9-2.3,3.6c-1.1,0.4-2.2,2.5-2.9,3.5c-1,1.5-1.3,2.3-3.3,2.5
				c-0.7,0.1-1.5,0.1-2.1-0.2c-1.1-0.6-0.4-1.8-0.8-2.7c-0.4-1.1-0.5-2.4-1.1-3.4c-0.5-0.9-1.1-1.5-1.4-2.6c-0.5-1.9-1-4.3-2.1-5.9
				c-0.6-0.9-1.6-1.3-2.2-2.1c-0.7-0.9,0.1-1.8-0.3-2.8c-0.4-0.8-1.5-0.8-1.9-1.7c-0.5-0.9,0.6-1.5-0.6-2.6c2.1-1.3,2-1.1,0.5-3.1
				c-0.2-0.3,0.6-1.6,0.8-1.8c0.8-1.3,0-1.7-1.1-2.5c-2-1.6-2.8-3-3.5-5.5c-0.3-1.1-2-3.9-0.9-5c-3.3-0.7-2.5-5.9-5.1-6.5
				c0.1-0.7,0.6-1,1.1-1.4c0.8-0.6,1-1.5,1.6-2.2c0.5-0.7,0.8-1.3,1.4-1.8c0.1-0.1,0-1.3,0.1-1.5c0.2-0.6,1.9-2.4-0.1-2.4
				c-1.5,0-1.9-0.4-2.5-1.8c-0.4-1-1.3-2.5-1.1-3.6c0.2-1,1.6-2.5,1.1-3.5c-0.8-1.7-2.1-2-1-4.1c0.7-1.4,1.4-2.4,1.8-3.7
				c0.5-1.6,0.9-1.5-0.1-3.2c-0.9-1.5-0.2-2.8-0.4-4.4c-0.1-1.3-0.9-4.1,0.1-5.2c1-1.1,1.9-1.9,1.1-3.4
				C97.2,212,94.6,207.8,92.4,203.5"/>
		</g>
		<g id="Brazil">
			<path id="path2754" class="st0" d="M57.1,173.9c0.7-0.7,0.4-1.2,1.4-1.7c1.2-0.6-0.2-1.8,0.1-3.1c0.6-2.4,3.2-2.1,4.2-3.8
				c0.7-1.2,0.1-2.3-0.2-3.5c-0.3-1.1,0.3-2.1,0.9-2.9c1.2-1.7-0.1-4.2,1.2-5.8c0.6-0.8,2-0.8,2.8-1.6c0.7-0.7,0.8-1.4,1.7-1.7
				c1.2-0.4,1.8-1.6,3-2.1c1.1-0.4,2.7-0.4,3.9-0.7c1.4-0.3,2.5-0.2,3.6-1.3c0.2-0.2,1.6-1.8,2-1.2c0.3,0.5,0.9,0.4,1.5,0.3
				c0.7-0.1,1.4,0.9,1.8,1.5c0.2-0.2,0.4-0.5,0.6-0.7c1,1.7,1.6-1.7,1.7-2.3c0.4-2.8,0.8-5.6,1.1-8.3c0.4-3.8,1-7.5,1.6-11.3
				c0.2-1.6,1.1-3.1,0.7-4.7c-0.4-1.6-1.4-2.6-1.4-4.2c-0.1-1.7-1.1-2.2-2.4-3c-1.7-1.1-1.3-2.8-1.3-4.5c0-1-0.3-2.2,0.2-3.2
				c0.3-0.5,2.2-1.1,2.8-0.9c0.9,0.3,1.2-0.8,2.3-0.2c1.2,0.6,1.6,0.3,1.5-1.1c-0.1-2.1-3.4-3.5-5.2-2.2c0.2-1.5-0.5-3.9,0.1-5.3
				c0.6-1.3,3-0.5,3.9-0.5c2.2,0,4.4,0,6.6,0.1c0.4,0,1.7,0.1,1.8-0.5c0.1-0.3,0.3-1.9,0.8-1.8c0.8,0.1,0.5,2.9,2,1.8
				c1-0.7,1.5-1.8,2.4-2.7c1.2-1.1,2.4,0.8,2.9,1.7c0.9,1.7,0.8,2.8,0.6,4.7c0,0.4-0.2,1.4,0.6,1.3c1.1-0.2,1.3-0.2,2.2,0.7
				c1.1,1.1,2.1,2.4,3.5,3c1.9,0.9,2.5-1,4-1.7c2.7-1.4,1.1,2,1.8,2.8c0.7-0.2,2-2.1,2.4-2.7c0.7-1.1,1.1-1.6,2.3-2.1
				c1.1-0.4,1.9-0.7,2.7-1.5c0.6-0.6,1.8-1.6,1.7,0c0.9-1.4,1.8-1.9,2.2-3.6c0.3-1.3,0.9-1.4,2.1-1.7c0.4-0.1,2.6-1.2,2.8-1.6
				c1.5-2-0.7-2.5-2.3-2.4c-0.8,0-1.5-0.1-2.2-0.6c-0.4-0.3,0.3-1.4,0.2-1.8c-0.4-2.2-2.1-3.6-1.6-6.1c0.4-1.8-1-2.4-2.1-3.5
				c-0.6-0.6-2.6-2.9-1.7-3.9c0.7,0.3,0.9,1.3,1.6,1.3c1,0.1,2.8-0.6,3.3,0.8c0.3,1.1,0.7,1.4,1.8,0.8c1.1-0.5,2.3,1.2,3.2,0.4
				c1.6-1.5,2.7,3.4,4.7,2.9c1.3-0.3,0.1-2.9,0.6-3.8c0.4-0.6,1.5-0.3,2.1-1c0.9-1,1.7,0.2,2.6,0.1c1.5-0.2,4.4-1,4.9-2.4
				c0,0.1,2.1-1.1,1.9-1.2c1,0.2,1.6,0.2,2.3-0.7c1.2-1.5,4.6-3.4,1.9-5.2c1.1-0.2,2,0.1,3.1-0.2c0.9-0.3,1.9-0.2,2.3,0.8
				c0.8,1.9-0.8,3.2-0.7,5c0.1,0.9,2.3,0.9,2.9,1.5c0.2,0.2-0.3,1-0.1,1.5c0.3,0.8,0.8,1.5,1.2,2.3c0.5,0.8-2.1,2.8-2.3,3.5
				c-0.2,0.7,0.1,1.5-0.1,2.2c-0.3,1.3-1.1,2.6-1.3,3.9c-0.2,2,0.6,3.3,1.4,4.9c0.4,0.8-0.2,3.8,1.1,3.8c-0.1,0.2-0.2,0.5-0.3,0.7
				c1.4,0.2,2.4,1.9,3.2,3c0.7,0.8,1.9,0.4,2.5,1.2c0.5,0.8,0.8,0.8,1.5,0.4c0.5-0.3,2.2-0.7,1.8-1.4c-0.7-1.4,2.8-1.1,3.3-1.3
				c0.7-0.2,1.2-1,1.9-1.4c0.9-0.5,1.5,0.3,2.4-0.7c1.1-1.3,2.3-2.6,3.8-1.5c1.5,1.1,2.8-0.3,4.4,0.1c1,0.3,3.5,1.6,3.9-0.1
				c0.4-1.6-2.3-2-1.3-3.5c1.2-1.8,1.8-0.6,3.6-0.7c1.1-0.1,2.1-0.2,3-0.6c2-0.8,1.5-0.6,3,0.6c0.3,0.2,0.2-0.6,0.6,0
				c0.4,0.7,1.1,1,1.7,1.5c0.8,0.6,1.7,0.6,2.6,1.1c1,0.5,0.6-0.4,1.4-0.6c0.7-0.1,0.9-0.9,1.5-1.2c0.5-0.3,1.1,0.4,1.6,0.4
				c0.6,0.1,3.1-0.5,2.6,0.8c0.7-0.3,1.8,0.5,2.4,0c0.8-0.7,1.9-1.3,2.5-2.2c0.9-1.3,1.6-2.9,2-4.5c1.1-4.1,4-7.1,6.6-10.3
				c0.1,0.6,0.3,1.1,0.7,1.5c-0.3-0.9-1.1-2.1-0.3-3c2.2,1.4,2.5,3.5,2.2,5.9c0.1-0.7,0.2-1.5,0.8-1.9c-0.1,3.1,0.2,6.4,1.3,9.4
				c0.5,1.2,2.3,4.9,1,6c1-0.3,1.2,0.8,1.6,1.5c0.6,1.3,2.2,0.8,3.3,1.3c2.5,1.1,2.1,4.1-0.1,5c0.6-0.2,1.2-0.1,1.7,0.4
				c-1,1-2.7,1.8-3,3.2c-0.2,0.7-1,1.1-1.4,1.6c-0.6,0.9-0.9,1.9-1.6,2.7c-1,1.1-2.2,1.9-3.3,2.9c-1.4,1.2-2.1,2.9-3.2,4.3
				c-1.1,1.3-1.4,2.3-1.3,4c0.1,0.9-1.6,1.1-1.7,2.4c-0.1,1.7-1.4,0.8-2.2,0.8c-0.8,0-3.4,1.2-3.7,2c0.7-0.2,4.6-0.9,3.5,0.9
				c0.7-0.8,1.9-0.7,2.8-1.3c1-0.6,1.8-1.3,3-1.8c1.5-0.6,3.6-2.4,4.4-3.8c1.9,1.1,0.1,3.9,1.3,5.5c0.5,0.6,0,2.2,0.8,2.5
				c0.7,0.2,1.9-0.2,1.4,1c1.6,0.3,4.5-2.6,4.8,0.7c-0.1-1,0.9-1.2,1.6-1.4c0.4,0,0.7-0.2,0.8-0.5c0.3-0.8,1.1-0.5,1.8-0.6
				c-0.9,2.7-1.6,4.4-1.5,7.2c1.2-1.6,0.5-5,2.5-6c1.4-0.6,1.6-0.8,2.4-2.1c1.3-2.2,1.7-0.6,3,0.3c0-0.5-0.1-0.9-0.4-1.3
				c0.8-0.1,1.5-0.2,2.2-0.4c-0.8-0.4-1.6-0.1-2.4,0.1c-0.2-1.1,0.6-1.1,1.1-1.7c0.9-0.9-0.1-2.8,1-3.8c1.3-1.3,0.9-0.2,1.8-0.5
				c0.6-0.2,1.9-1.8,2-0.2c1.2-1.2,1.3,0.5,2.4,0.1c-0.5-0.4-0.6-1-0.3-1.6c0.7,0.2,2.3,0.6,2,1.7c0.2-0.1,0.5-0.2,0.7-0.4
				c0.1,0.3,0.2,0.5,0.3,0.8c0.6-0.5,0.7-0.5,0.7,0.3c0.6-0.2,1-0.7,1-1.3c-0.4,0.9,0.9,1.1,0.6,2c0.1-0.6,0.5-1,1.1-0.7
				c0,0.6-0.4,1.1-1,1.2c1-0.6,2,0.9,3-0.1c-0.1,1.4,0.9,0.6,1.2-0.2c-0.4,1.6,1,1,0.9,2c0.4-0.2,0.7-0.4,0.9-0.8
				c-0.1,0.9,1,0.6,1.2,1.4c0.2-0.2,0.5-0.5,0.7-0.7c0,0.5,0.2,1,0.6,1.4c0.2-0.2,0.5-0.4,0.7-0.6c0.1,0.7,0.4,1.1,1.1,0.4
				c-0.5,0.4-0.7,1-0.3,1.5c0.1-0.6,0.6-1,1.1-1.1c-0.8,0.7-0.5,2.3,0.2,3c0.3-0.6-0.1-1.6,0.8-2c1.5-0.6,0.8,0.5,1.5,0.7
				c0-0.6,0.3-1.1,0.9-1.3c-0.2,0.5-0.4,1-0.4,1.5c1.7-1-0.2,2,1.6,0.9c-0.2,0.2-0.5,0.5-0.7,0.7c0.6,0.2,1.1-0.1,1.4-0.6
				c-0.5,1.1,1.2,0.5,0.5,1.9c-0.7,1.3-0.4,2.3-2,2.8c0.6-0.4,1.1,0,1.2,0.6c0-0.9,1-2.3,1.9-1.1c0.9,1.3-0.7,1.7-1.2,2.6
				c-0.4,0.8-1.2,3.3-0.9,4.2c0.3,1-1.2,1.8-0.5,2.5c0.1-1.4,1.7-1.8,2.3-2.9c0.6-1.1,0.2-2.9,0.8-3.8c0.3-0.5,1.8-1.5,2.2-0.7
				c0.8,1.3-1.7,2-1.8,3.1c0.7-0.5,1-0.3,0.7,0.5c0.8-0.4,2-3.7,2.5-2c0.1-1.2,2.3-1.8,3.2-1.3c-0.1-2.3,4.6,0.2,5.5,0.7
				c0.6,0.3,3.9,1.7,3.9,2.3c0.7-0.5,2.6,0.7,2.2-0.8c0.9,0.2,1.6,0.9,2.4,1.3c1,0.4,2.1,0.4,2.9,1.2c0-1.4,0.8-1.2,1.9-1.3
				c2.2-0.1,4.1-0.9,6.3-0.5c4,0.9,7.7,4.3,10.9,6.8c1,0.8,2.2,1,3.1,2c0.8,1,1.5,2.1,2.3,3.1c0.9,1.1,2.1,1.7,2.9,2.8
				c0.9,1.2,2.5,1.3,3.4,2.6c1,1.2,2.4,0.7,3.4,1.8c1.3,1.2,3.5,0.7,5,0.5c3.6-0.4,6.2,0.9,7.2,4.4c0.4,1.4,1,2.7,1,4.2
				c0,0.4-0.4,1.2,0,1.3c0.4,0.2,0.6,0.7,0.8,1.1c0.6,1.5,1.7,5,0.9,6.6c0.2-0.4,0.4-0.7,0.6-1.1c-0.2,1.6,1,3.6-0.6,4.8
				c0.3,0.1,0.5,0.1,0.8,0.2c-0.7,1.4,0.4,3-0.4,4.2c-0.9,1.3-0.2,3-0.9,4.3c-0.8,1.6-1,3.3-1.8,4.9c-0.8,1.7-2.5,2.9-3.2,4.7
				c-0.2-0.2-0.5-0.4-0.7-0.6c0.1,0.7-0.2,1.6-0.9,0.4c0.1,0.5,0.4,0.7,0.9,0.7c-1,2.1-2.6,4.8-4.3,6.3c-0.7,0.6-1.7,0.9-2.4,1.5
				c-0.8,0.7-1.4,1.5-2.3,2c0.2-0.6-0.2-1-0.8-1.2c-0.1,0.7,0.8,0.9,0.6,1.5c-0.2,0.8-0.9,1.9-1.6,0.9c0.4,0.5,1.3,1,0.8,1.8
				c-0.3,0.5-1.7,1.9-1.1,0.3c-0.5,0.7-0.4,1.6-1,2.2c0.3-0.1,0.6-0.2,0.9-0.3c-1.6,2.3-4.1,13.7-8.2,13c0.8-1.7-1-2-1.5-3.4
				c0,0.8-0.9,3-1.6,1.3c0.2,0.7,1.3,1,1.3,1.7c-0.1,1.3-1.7,2.3-1.3,3.7c-1.2-0.8-0.9,1.2-0.9,2c0.1-0.4,0.2-0.7,0.4-1.1
				c0.4,1,0.4,1.9,0.4,2.9c-0.3-0.2-0.5-0.5-0.8-0.7c0.6,0.5,1.2,2.2,0.9,3c0.2-0.5,0.4-1,0.6-1.5c0.1,3-0.9,5.8-0.4,8.8
				c0.4,2.6,1.5,5.4,1.7,8c0.2,4.7-2.7,9-1.4,13.8c0.7,2.7-1,3-2.1,5c-1.3,2.3-1.5,5.2-1.2,7.8c0.2,1.9,1.3,5.6-0.9,6.5
				c-2.1,0.9-0.4,5-2.9,5.3c1.7,1.5-1.2,3.5-2.2,4.4c-0.9,0.8-0.6,1.4-0.9,2.5c-0.4,1.6-1.2,3.1-0.9,4.8c0.1,0.9,0.8,2.3,0.1,3.1
				c-1.1,1.3-2.8,1.3-4.2,2.1c-0.9,0.6-1.9,1.6-2.3,2.6c-0.3,0.7,0,1.3,0.2,1.9c0.2,0.6-0.6,1-0.3,1.7c-1-1.1-3.8-0.5-5-0.3
				c-0.7,0.2-1.9,0.5-2.6,0.1c-1-0.6-0.3-1.6-0.4-2.5c-2.3,0.3-0.4,1.2-0.7,2.4c-0.3,1.2-4.9,0.7-6,1.3c0.7-0.8,1.9-0.4,2.8-0.7
				c-0.9-0.8-2-1.3-3.2-0.6c-1,0.6-1.5,0.1-2.6,0.3c-0.8,0.1-2.1,0.2-2.4,1.1c-0.3,0.9,1.1,1.2,1.6,1.6c-1.1,0.9-2.7,0-3.4,1
				c-0.6,0.9-1.7,1.1-2.6,1.7c-0.8,0.5,0.2,1.4-0.6,1.9c-1.1,0.7-2.9-1.3-4.5,0c-0.2,0.1-1.2,2.1-1.6,1.6c-0.3-0.4-0.1-1-0.9-0.9
				c0.4,1.3-1.3,1.5-2.2,2.1c-1.2,0.8-1.7,1.9-2.6,2.9c-1,1.1-2.5,1.4-3.6,2.3c-0.9,0.8-1.4,2.1-2.5,2.8c0.2,0.1,0.5,0.3,0.7,0.4
				c-0.8,0.8-1.6,1.8-2.1,2.9c-0.1-0.5,0.1-1,0.4-1.4c-0.8,0.3-1.5,0.1-2.2-0.2c0.3,1.5-0.5,2.4-1.9,1.1c0,0.9,2,1.7,2.8,1.7
				c-0.5,0.5-0.7,1.2-0.9,1.9c-0.1,0.6-1.2,0.4-1.6,0.7c0.5,0,1,0,1.4,0.1c-0.2,0.7,0.1,1.4-0.1,2.1c-0.2,0.8-1.1,0.9-1.3,0
				c0.3,0.6,0.1,1.4,0.8,1.7c0.9,0.4,0.4,2.2,0.6,2.9c0.3,1.1,1.7,2.7,1.1,4.1c1.1-0.3,0.9,1,0.1,1.1c1,0.7,0.2,3.8,1,5.1
				c0.7,1.2-0.6,4.2-0.6,5.4c-0.4-0.3-0.7-0.6-0.9-1c0.3,0.6,0.2,1.4,1,1.6c-0.8,1.1-2.1,1.8-3.1,2.7c-1.1,1-1.9,2.2-2.5,3.5
				c-1.7,3.1-2.1,6.4-3,9.7c-0.8,3.1-2.4,6-4.2,8.7c-1.7,2.6-4.3,4.4-6.3,6.7c0.4-0.9-0.2-2.1-0.4-3c1.1,0.3,1.5,0.4,2.4-0.3
				c0.8-0.6,1.3-1.9,2.1-2.3c1-0.6,1.2-1.1,1.2-2.3c0-0.8,0.1-2.1,1.1-1c-0.4-1.1,0.2-1.6,0.9-2.4c0.6-0.7,0.7-1.4,0.5-2.2
				c-0.1-0.6-0.7-2.6,0.6-1.4c0-0.3-0.4-2.2-0.9-2.1c-0.3,0.1-2,1.4-2.1,1.8c-0.5-0.5-0.7-1.2-1.5-1.4c-0.8-0.3-0.7-1.5-1.4-1.9
				c-0.1,2,0.9,1.9,1.6,3.3c-1.7,0.4-0.5,2.3-0.6,3.4c-0.1-0.5-0.3-1-0.6-1.4c-0.2,0.7,0.4,1.6,0.1,2.1c-0.2,0.3-0.7,0.2-0.6,0.6
				c0.3,1.6-1.1,2.5-2.2,3.2c-0.9,0.5-0.6,1.7-0.8,2.5c-0.2,0.7-2,2.5-0.3,2.7c-0.9,0.6-0.3,1.9,0.6,1.1c0.1,0.9-0.5,1.8-0.9,2.5
				c-0.6,1.3-0.6,2.8-0.8,4.2c-0.4,2.7-2,4.3-3.4,6.5c-1.1,1.8-2.7,1.4-3-0.7c-0.1-0.9-0.4-1.9-0.4-2.8c0-1.1,1.3-2.1,1.8-3
				c0.7-1.5-1.2-2.1-2.2-2.6c-1.2-0.5-1.8-1.5-2.4-2.6c-1.3-2.4-3.6-2.4-5.5-4c-1-0.8-1.6-2.1-2.8-2.7c-0.5-0.1-1-0.2-1.5-0.3
				c-0.6-0.3-0.8-1-1.4-1.2c-0.9-0.4-1.3,0.1-2.2-1c-0.9-1.1-1.7-2.4-3.2-2.8c0.6,1.2-2.4,3.2-2.5,0.7c-0.1-2.1-2.6-3.4-4.1-4.5
				c-1.1-0.8-3.4-3.7-5.1-2.5c-0.5,0.4-0.4,1.4-1.3,1.3c-1-0.1-1.8,0.1-2.6-0.8c1.5-0.6,1.6-2.8,2.9-3.8c1.5-1.1,2.2-2.8,2.7-4.5
				c0.6-1.9,2.2-3.3,3.2-5c0.5-0.9,1.4-3.3,2.6-2.1c0.3-0.6,0-1.1-0.6-1.3c1-1.2,2.1-2.4,3.5-3.1c1.4-0.8,1.6-1.6,2.5-2.6
				c0.9-1,2.1-1.3,3.3-1.9c0.9-0.4,2.4-2.4,3.5-1.9c0.2-1.8,0.2-3.2,0.1-5c-0.1-2.2-0.3-3.3-1-5.3c-0.5-1.4-0.8-3.1-2.4-3.6
				c-0.9-0.3-2.6-0.5-2.8,0.9c-0.9-0.5-2-1.1-1.6-2.3c0.5-1.7,0.6-2.8,0.8-4.6c0.1-1.2-0.2-2.9,0.4-4c0.6-1.1-1.3-2.2,0-3.2
				c-0.9-0.6-1.6-1.8-2.7-1.9c-1.2-0.1-2,1-3.1,1.4c-2.9,1-3.6-1.9-4.2-4.2c-0.4-1.3-0.7-2.8-1-4.2c-0.2-1.3,0-2.7-1.1-3.7
				c-1-0.9-0.4-2.2-2-2.6c-1.2-0.3-2.3-0.2-3.3-1.1c-1-0.9-1.5-0.3-2.4,0.4c-0.8,0.8-2,0.2-2.9,0.1c-1.4-0.2-2.8-0.2-4-0.8
				c-0.7-0.4-2.8,0.3-3-0.6c-0.2-0.8,0.1-1.7,0-2.6c0-0.8-0.6-1.9-0.3-2.7c0.5-1.4,0-2.6,0.2-3.9c0.2-1-1.6-1.4-0.6-2.6
				c-0.8-0.1-1-0.9-1.1-1.6c-0.1-1.1-0.7-1.3-1.3-2.1c-1.3-1.8,3.3-1.9,1.4-3.3c-2.3-1.7-1.5-3.1-0.4-5.5c0.3-0.7,1.3-1.9,1-2.5
				c-0.6-1.1-0.2-2,0.1-3.2c0.2-1,0.9-2.4,0.8-3.4c-0.1-1-1.1-1.7-1.5-2.6c-0.5-1.1-0.5-3.3-1.8-3.5c-1.7-0.2-3.7-1.4-4.3-3.1
				c-0.4-1.1-0.8-2.5-0.9-3.7c0-1.2,0.9-2.2,0.8-3.5c-2.4,0.6-5,0.3-7.4,0c-1.6-0.2-5.1,0.3-6.3-0.9c-1-1.1-0.8-3.4-1-4.8
				c-0.3-1.9-2.6-3-2.6-4.7c0.6-0.1,1.2-0.1,1.9-0.1c-0.4-2.1-0.6-4.3-1.5-6.2c-0.4-0.7-0.8-1.3-0.7-2.2c0.2-1,0.4-1.6-0.4-2.4
				c-2.5-2.7-6.4-3.4-9.8-2.6c-1,0.2-2.7-2.3-3.1-3c-0.5-0.7-0.9-0.4-1.6-0.4c-0.6,0-2-0.9-2.4-1.3c-0.4-0.4-1.1,0-1.5-0.3
				c-0.7-0.5-1.1-1.4-1.6-2.1c-0.6-0.9-0.9-0.7-1.8-0.3c-1,0.5-1.4-0.7-2.1-1.1c-1.8-1.2-2.5,0.1-4.3-0.3c-2.1-0.5-2.3-0.7-3.4-2.2
				c-0.5-0.8-2.4-2-3.3-2.1c-0.9-0.1-0.6-1.3-1.1-1.9c-0.4-0.4-1.2-0.3-1.2-1c0-1.4-1.3-2.2-1.5-3.9c-0.1-0.9,0.6-1.8,0.4-2.6
				c-0.2-0.7-1-0.8-1.1-1.7c-0.1-0.7-0.1-1.3-0.2-2c-0.2-0.9,0.7-1.5,0.9-2.2c0.3-1.5,0.1-4-1.3-5c-0.3,0.3-0.6,1.1-1.2,1.1
				c-1.4-0.1-2.4-0.1-3.8,0.1c-1.5,0.2-4.1,0.2-5.1,1.7c-1.3,2.1-3.3,2.1-5.1,3.6c-0.5,0.4-1.3,1.1-1.5,1.8c-0.2,1.1-1.3,0.2-2,0.2
				c-1-0.1-1.5,1-1.8,1.7c-0.5,1-1.4,1.6-2.4,2c-0.3,0.1-2,0.7-1.9-0.1c0.2-1.1-1.1-0.8-1.8-0.9c-2-0.1-5.1-1-7-0.4
				c-1,0.3-1.9,1.4-3.1,1c-0.7-0.2-1.6-1.3-2.3-0.7c-0.3-2.6-0.2-5.3-0.6-7.9c-0.2-1.3,0.1-1.7,0.5-2.8c0-0.4-0.1-0.7-0.3-0.9
				c-0.4-0.7,0.3-1,0.5-1.7c-1.9,0-3.6,3-4.9,4.2c-1.9,1.7-5.2,1-7.5,0.7c0.4-1.2-0.6-3.3-1.5-4.1c-1.7-1.4-4.6-0.4-6.4-1.3
				c2.1-2.8,1.4-3.5-0.8-5.9c-0.5-0.5-0.5-1-0.7-1.6c-0.2-0.7-1-0.8-1.4-1.4c-0.9-1.2-0.7-2.7-2.2-3.7
				C60.3,176.5,57.6,174.7,57.1,173.9"/>
			<g id="BrazilNorthIslands">
				<path id="path2756" class="st0" d="M220.2,122c0.7-0.1,1.4-0.6,1.9-1.1C221.3,120.8,220.4,121.2,220.2,122"/>
				<path id="path2758" class="st0" d="M221.9,123c0.6-0.7,1.5-0.5,2.1-1.1C223.4,120.9,221.5,121.9,221.9,123"/>
				<path id="path2760" class="st0" d="M224.1,121.6c2-0.5,6.7-5.2,5.6-7.4c-1.2-2.3-3.4,0.8-3.7,2c-0.2,0.9,0.2,1.9-0.7,2.4
					C224.4,119.3,223.6,120.3,224.1,121.6"/>
				<path id="path2762" class="st0" d="M228,113c0.7-0.5,2.8-1.9,1.8-3C228.8,110.6,228.4,112,228,113"/>
				<path id="path2764" class="st0" d="M228.1,119.4c1.1-0.4,1.9-1.9,1.2-2.9C229.3,117.6,228.1,118.2,228.1,119.4"/>
				<path id="path2766" class="st0" d="M231.2,116.3c-0.8,0.3-1.4,1-1.6,1.9c1-0.2,1.2-1.3,2-1.9
					C231.5,116.3,231.3,116.3,231.2,116.3"/>
				<path id="path2768" class="st0" d="M230.1,113.5c0.3-0.7,0.5-1.5,1.3-1.8C230.3,110.6,229.8,112.7,230.1,113.5"/>
				<path id="path2770" class="st0" d="M230,117.1c0.7-0.7,1.1-1.7,1.9-2.3c0.4-0.3,0.7-1.3-0.2-0.9
					C230.7,114.3,229.9,116.2,230,117.1"/>
				<path id="path2772" class="st0" d="M230.5,113.6c0.6-0.2,1-0.6,0.8-1.3C230.7,112.5,230.4,113,230.5,113.6"/>
				<path id="path2774" class="st0" d="M232.1,111.3c0.5-0.6,1.2-0.9,1.8-1.5c0.7-0.7-0.5-1-1-0.8
					C231.8,109.5,229.8,110.9,232.1,111.3"/>
				<path id="path2776" class="st0" d="M231.1,113.8c0.6-0.3,1.9-0.8,1.4-1.7C231.6,112.2,231.5,113.2,231.1,113.8"/>
				<path id="path2778" class="st0" d="M231.5,116.1c0.4-0.2,0.6-0.5,0.8-0.9C231.7,115.2,231.3,115.5,231.5,116.1"/>
				<path id="path2780" class="st0" d="M231.7,108.8c0,0.1,0,0.3,0.1,0.4c0.6-0.1,1-0.3,1.4-0.7
					C232.7,108.1,232.1,108.3,231.7,108.8"/>
				<path id="path2782" class="st0" d="M232.7,121.5c0.5,0.9,0.9,1.9,1.6,2.6c0.5,0.6,2.8,0.7,1.6,0.1c1,0.1,2.3-0.5,3.3-0.2
					c0.7,0.2,1.7,0.7,1.4-0.5c0.2,0.3,0.3,0.5,0.5,0.8c0.7-0.5,1.4-1.2,1.4-2.1c0.4,1.5,3,0.4,3.8,0c1.5-0.8,1.5-2.3,2.3-3.6
					c0.8-1.2,1.1-2.5,1.4-3.9c0.3-1.4,1.8-3.7-0.5-3.8c-1.9-0.1-4.2-1.3-6-0.5c-0.8,0.3,0.1,0.7-1.2,0.6c-1.1,0-2-0.2-3-0.5
					c-1.9-0.5-4.5-1.4-5.7,0.8c-0.7,1.2-0.8,3.1,0.8,3.5c-0.6-0.1-1.2-0.3-1.7-0.4c-0.2,0.7,0.2,1,0.2,1.6c0,0.7-0.6,1.3-0.2,2
					c0.4,0.8,1.6-0.3,2.3-0.1c-1,1.7-0.8,0.5-2.5,0.7C232.9,119.5,232.7,120.6,232.7,121.5"/>
				<path id="path2784" class="st0" d="M234.3,108.8c1,0.7,0.9-0.3,0.6-1C234.2,106.4,233.4,107.9,234.3,108.8"/>
				<path id="path2786" class="st0" d="M235.2,107.3c0.7-1.1,1.3-2.3,0.3-3.5C235.1,104.8,234.2,107,235.2,107.3"/>
				<path id="path2788" class="st0" d="M235,90.5c0.2-0.2,0.3-0.5,0.5-0.7C234.7,89.5,234.5,89.8,235,90.5"/>
				<path id="path2790" class="st0" d="M235.7,92.6c1.1-0.5,0.5-1.5,0-2.2C234.6,90.8,235.2,91.9,235.7,92.6"/>
				<path id="path2792" class="st0" d="M238,108.8c0.7,1.4,2.1-0.8,2.7-1.4c1.5-1.6-1.2-1.3-2-1c-0.8,0.3-2.7,0.3-3,1.4
					C235.4,108.6,237.5,108.7,238,108.8"/>
				<path id="path2794" class="st0" d="M236.7,105.8c0.4-0.3,2.4-1.8,1.6-2.4C237.1,102.4,235.8,104.9,236.7,105.8"/>
				<path id="path2796" class="st0" d="M236.7,106.8c0.5-0.2,0.8-0.5,1.1-0.9C237.3,105.9,236.9,106.3,236.7,106.8"/>
				<path id="path2798" class="st0" d="M236.7,102.4c0.7,0,1.6-0.2,1.5-1.1C237.5,101,236.5,101.4,236.7,102.4"/>
				<path id="path2800" class="st0" d="M238.5,100.8c0.5-0.3,0.5-0.6,0.2-1.1C238.2,100,238.2,100.3,238.5,100.8"/>
				<path id="path2802" class="st0" d="M240.4,108.8c-1,1.6,1.5,1.3,2.3,1C244.1,109.3,241.6,107.6,240.4,108.8"/>
				<path id="path2804" class="st0" d="M246.6,124.4c0.2-0.6,0.4-1.3,0.4-1.9C246.1,122.8,245.7,123.8,246.6,124.4"/>
				<path id="path2806" class="st0" d="M250.4,118.9C252.4,120.8,250.8,116.5,250.4,118.9"/>
				<path id="path2808" class="st0" d="M256.2,114.7c0.8,0.3,0-0.8,0-0.8C256.2,114.2,256.2,114.5,256.2,114.7"/>
				<path id="path2810" class="st0" d="M262.4,336.8c0.2,0.2,0.4,0.4,0.6,0.6c0.3-0.7,0.5-1.5-0.1-2.1
					C262.5,335.8,262.3,336.2,262.4,336.8"/>
				<path id="path2814" class="st0" d="M265.2,117.6c0.4-0.1,0.6-0.4,0.6-0.8C265.1,116.7,264.9,116.9,265.2,117.6"/>
			</g>
			<g id="BrazilSouthIslands">
				<path id="path2812" class="st0" d="M264.8,349.5c0.7-0.9,1.2-2.7,0.4-3.7C264.2,346.5,264.7,348.6,264.8,349.5"/>
			</g>
			<g id="BrazilSoutheastIslands">
				<path id="path2822" class="st0" d="M285.5,316.2c0.1-0.7-0.4-1.1-0.1-1.8c-0.9-0.2-1.2,0.7-1.4,1.4
					C284.6,315.8,285.1,315.9,285.5,316.2"/>
				<path id="path2826" class="st0" d="M291.8,309.7c0.6-0.1,1.1-0.5,1.4-0.9C292.6,308.3,291.5,308.8,291.8,309.7"/>
			</g>
			<g id="BrazilEastIslands">
				<path id="path2824" class="st0" d="M286.9,129.1c0.2-0.2,0.4-0.5,0.6-0.7C286.8,128.4,286.6,128.6,286.9,129.1"/>
				<path id="path2816" class="st0" d="M276.9,120.9c0.6-0.2,0.9-0.7,0.6-1.2c-0.3,0.8-0.5,1-0.6,0.5
					C276.9,120.5,276.9,120.7,276.9,120.9"/>
				<path id="path2818" class="st0" d="M278.6,123.2c0.3-0.1,0.5-0.2,0.8-0.3C278.7,122.5,278.5,122.6,278.6,123.2"/>
				<path id="path2820" class="st0" d="M280.2,135.3c0.5-0.9,0.8-1.9,0.8-3C279.9,132.9,280.3,134.4,280.2,135.3"/>
				<path id="path2828" class="st0" d="M326.2,226.2C327.3,223.4,324.4,225.7,326.2,226.2"/>
				<path id="path2830" class="st0" d="M327.2,222.5c0.5-0.5,1.9-1.4,0.8-2.2C328.2,221.2,327.2,221.6,327.2,222.5"/>
				<path id="path2832" class="st0" d="M327.2,221.6C327.5,221.5,327.5,221.5,327.2,221.6"/>
				<path id="path2834" class="st0" d="M338.9,205.1c0.3-0.4,0.5-0.9,0.6-1.4C339.3,204.2,339.1,204.6,338.9,205.1"/>
				<path id="path2836" class="st0" d="M355.3,175.9c0.1,0.2,0.1,0.3,0.2,0.5C355.9,175.7,355.8,175.5,355.3,175.9"/>
				<path id="path2842" class="st0" d="M348.3,193c-0.2-0.2-0.4-0.4-0.6-0.7C348,192.6,348.1,192.8,348.3,193"/>
			</g>
		</g>
		<g id="Venezuela">
			<path id="path3351" class="st0" d="M62.5,29.4c2-2.3,3-4.8,3.6-7.7c0.6-2.8,1.5-4.8,3-7.3c1.2-2,3.3-2.6,4.4-4.7
				c1.3-2.4,4-2.1,6.1-3.4c-0.9,2.1-3.6,0.6-4.8,2.2c-1.1,1.3,0.4,4.3,1.8,4.9c-1.2-0.1,0,2.7,0.1,3.2c0.4,1.6-1.2,3.2-2.2,4.2
				c-1.4,1.3-2.1,2.9-1.2,4.6c0.3,0.7,0.4,1.5,1.1,2c0.7,0.5,0.8,0.3,0.7,1.2c-0.3,2,1.3,2.5,2.9,1.5c1.7-0.9,2.3-2.3,2.5-4.2
				c0.3-2.4-0.8-3.7-2-5.6c-0.5-0.8-0.9-1.6-1.2-2.5C77,17.1,77.6,16,77,15.4c0.9,0.1,1.7-1.3,2.4-1.7c1.3-0.7,2.5-1.7,3.9-1.9
				c1.3-0.2,2.3-0.4,3.4-1.1c0.4-0.3,1.7-1.3,2.2-1c-0.1-0.4-0.3-0.7-0.6-1c0.6,0.2,2.2,1.6,2.8,1c0.4-0.4,0-1.6-0.5-1.8
				c-0.9-0.4-2,0.5-2.9,0.5c0.2-1-0.7-6.3,2.3-5c1.3,0.5,1.1,3.5,1.3,4.6c0.5,2.5,3.2,0.8,5,1.5c2,0.7,4.5,1.2,5.4,3.6
				c0.5,1.4-0.9,4.6,1.5,5.1c2.8,0.6,6.4-0.7,9.2-1.1c2.4-0.3,4.9-0.8,6.4,1.3c0.6,0.9,1.5,1.6,2.5,2c0.8,0.3,1.7,0.5,2.5,0.7
				c-0.1,0,2.8,0.6,1.5,0.6c2.3,1.2,3.3-1.4,5.1-1.6c1.1-0.1,1.3-1.2,2.2-1.7c1.2-0.6,2.7,0.5,3.9-0.2c-1.1-1.2-3.7,0.1-4.4-1.4
				c0.6,0,1.3,0,1.9,0c0.9,0,1.1-0.5,1.8-0.6c0.3,0.1,0.6,0.2,0.9,0.4c0.9,0.2,1.8,0.1,2.7-0.1c3.7-0.6,7.6,0.1,11.2-0.7
				c-0.6,1.2-2.4,0.9-3.5,1.5c-1.7,0.9-3.6-0.5-5.2,0.8c0.5-0.5,1-0.4,1.2,0.3c-0.6-0.1-1.1,0.3-1.1,0.9c1.4-0.8,2.4,0,2.4,1.6
				c0,1.3-2.1,0.4-2.8,0.4c0.5,1.8,3.4,0.5,3.1-1.1c0.8,0.1,1.1,1,1.2,1.7c0.1,0.9,0.9,1.9,0.8,2.8c0.6-0.6,0.8-1.4,0.6-2.2
				c0.7,0.7,0.8,2.1,0.2,2.9c0.8-0.5,0.4-1.6,0.4-2.4c0.4,0.1,0.8,0.2,1.1,0.4c-0.1-0.1-2.5-1.3-1.1-1.2c1.3,0.2,3.1,1.6,2.4,3
				c0.3-0.6,0.8-0.5,0.4-1.1c0.5-0.3,1.1-0.3,1.7-0.1c-1.2-1.4,0.8-0.1,1.2,0.6c0.8,1.3,2.3,0.8,3.3,1.6c2.8,2.2-0.5,2.2-1.2,4.2
				c0.2-0.3,0.5-0.5,0.7-0.7c0.2,1-0.9,2.8-1.4,3.7c-0.3,0.5-0.2,1-0.9,1c-0.6,0-2.5-0.5-2.9,0c0.9,0.5,2.3,0.6,2.8,1.7
				c0.6-0.7,1.4-1.3,1.5-0.1c0.8-0.9,1.4-1.3,2.7-1.6c1.1-0.2,1.6,1,2.6,0c1.8-1.8,5.1,2.6,4.1,3.1c-1,0.5-1.6,1.3-2.4,2.1
				c-0.8,0.7-2.1,1.1-2.7,1.7c-0.4,0.5-0.8,1.1-1.2,1.6c-0.8,1,0.4,1.7,0.3,2.8c-0.1,0.7,0.2,1.5,1,1c1-0.5,1.7,0.7,0.9,1.5
				c-0.8,0.8-2,1.1-2.8,1.8c-0.4,0.4-1-0.2-1.4-0.2c-0.3,0-0.5,0.6-0.9,0.8c-3,1.2,0.1,3.1-1.6,4.8c-0.4,0.5-2,1.5-1.5,2.3
				c1,1.3,2,2.7,3,4c1.3,1.5,3.8,3.9,1.4,5.7c-0.8,0.6-1.3,1.5-2.1,2.1c-0.4,0.3-2.1,0.1-2.2,0.3c-0.4,0.7-1.7,0.6-1.8,1.3
				c0,0.9-1.6,0.9-2.2,1.2c-1.2,0.6-2.6,1.3-3.9,0.7c-0.9-0.4-1.7,0.7-2.6,0.8c-1.1,0.2-1.1,1.4-0.9,2.3c0.4,1.3-0.7,2.3-1.8,1.3
				c-0.8-0.7-1.1-1.6-1.8-2.3c-0.9-1-1.5,0.3-2.4,0c-1.2-0.4-1.7-0.1-2.9-0.2c-1-0.1-0.8,0.3-1.1-0.9c-0.4-1.1-1.8-1.2-2.8-1
				c-1.3,0.3-1.2-0.9-2.2-1.3c-0.8,0.8,0.7,2.7,1.2,3.3c1.5,1.8,2.7,2.1,2.7,4.6c0,0.8,0,1.6,0.3,2.4c0.3,1,1.3,2,1.2,3.1
				c-0.2,1.8-0.2,2.6,1.9,2.7c0.6,0,3.1-0.4,2.9,0.7c-0.4,2.1-1.3,1.3-2.5,2.6c-0.7,0.7-2.4,0.5-2.8,1.3c-0.4,0.8-0.1,1.7-0.7,2.5
				c-0.5,0.7-1.2,1.3-1.7,2.1c0.1-2-2.7,0.8-3.5,1.2c-1.3,0.5-2.2,1-3,2.2c-0.5,0.8-1.7,2.7-2.6,3c-0.6-0.7,0.2-1.6,0-2.4
				c-0.3-1.3-2.3,0-2.8,0.3c-2.9,2.1-4.8,0.1-6.8-2.4c-0.9-1.2-1.1-2.9-1.5-4.2c-0.5-1.6-1.6-3.8-1.6-5.4c0.1-1.3-3.2-5.6-4.8-4.4
				c-0.1-1.5,2.1-2.9,3.1-3.7c1.8-1.4,0.6-2.9-0.7-4.3c-2.8-3.2-1.8-9-1.8-12.8c0-1.4,0.6-1.7,1.5-2.6c0.6-0.6,0-1.7,0.3-2.4
				c0.3-0.8,1.5-1.2,1.4-2.2c-0.1-1.3,0-1.6-1.4-2.1c-1.5-0.6-4.2,0.8-6,0.9c-1.1,0.1-2.3,0.1-3.4-0.1c-1.7-0.3-1.4,0.5-2.8,0.8
				c0.3-0.1-1.7-0.4-1.5-0.3c-0.8-0.5-1.4-2.1-1.9-2.9c-0.7-1.1-1.4-2.1-2-3.3c-0.3-0.6-0.8-1.5-1.6-1.2c-1.5,0.5-2.2-0.9-3.7-1
				c-0.9-0.1-1.6,0.7-2.5,0.9c-1.3,0.3-2.4-0.6-3.7-0.3c-0.8,0.1-1.3-0.4-2.1,0.1c-0.8,0.4-1.9-0.1-2.4-0.8
				c-0.4-0.6-0.5-1.2-0.6-1.9c-0.2-0.9-1.5-0.6-2-1.2c-0.9-1.2,0.2-3.8,1-4.9c1.4-1.9-1.4-3.8-2-5.2c-0.7-1.5,0.1-4.9-2.1-4.3
				c0-0.5,0-1-0.2-1.5C64.5,29,63.6,29.5,62.5,29.4"/>
			<g id="g4656">
				<path id="path3353" class="st0" d="M154.5,35.5c-0.7-0.1-1.5-0.3-2.2-0.6C153,34.5,154.5,34.4,154.5,35.5"/>
				<path id="path3355" class="st0" d="M155.2,33.6c0.4-0.7,1.1-1.5,2-1.1C157,33.5,156,33.3,155.2,33.6"/>
				<path id="path3357" class="st0" d="M155.4,35.3c-0.2-0.2-0.4-0.4-0.6-0.6c0.5,0,1-0.1,1.5-0.3C156.4,34.9,156,35.2,155.4,35.3"
					/>
				<path id="path3359" class="st0" d="M156.1,34c-0.2-0.1-0.5-0.2-0.7-0.3c0.5-0.3,0.9-0.3,1.4-0.1C156.6,33.7,156.3,33.9,156.1,34
					"/>
				<path id="path3361" class="st0" d="M157,34.3c-0.1-0.5,0.1-0.6,0.8-0.3C157.6,34.1,157.3,34.2,157,34.3"/>
				<path id="path3363" class="st0" d="M157.2,31.9c-0.2,0-0.5,0-0.7,0c0.2-0.5,0.6-0.9,1.2-0.7C157.6,31.4,157.4,31.6,157.2,31.9"
					/>
				<path id="path3365" class="st0" d="M157.6,30c-0.7-0.2-0.7-0.5,0.2-0.7C157.8,29.5,157.7,29.8,157.6,30"/>
				<path id="path3367" class="st0" d="M157.7,30.4c-0.7,0.3-1.2,1-1.9,1.4C156.1,31,156.9,30.4,157.7,30.4"/>
				<path id="path3369" class="st0" d="M157.9,29.9c0.1-0.3,0.4-0.5,0.7-0.6C158.4,29.5,158.1,29.7,157.9,29.9"/>
			</g>
			<g id="g4677">
				<path id="path3534" class="st0" d="M124.9,14.7c-0.2-0.1-0.5-0.1-0.7-0.2c0.2-0.2,0.4-0.4,0.7-0.6
					C125.2,14.2,125.2,14.5,124.9,14.7"/>
				<path id="path3536" class="st0" d="M134.2,14.9c-0.2-0.5-3.6-1.3-1.8-1.9c0.9-0.3,1,0.7,1.5,0.6c0.9-0.1,1.1-1.2,1.9-1.5
					C136.3,14.1,136.1,13.9,134.2,14.9"/>
			</g>
			<path id="path3538" class="st0" d="M143.8,18.1c0.4,0.5,0.7,1,0.9,1.5C144.3,19.3,143.8,18.7,143.8,18.1"/>
			<path id="path4714" class="st0" d="M152.8,4.9c-0.8-0.7-0.1-1.7,0.6-2C153.7,3.7,153.5,4.5,152.8,4.9"/>
			<path id="path6046" class="st0" d="M150.1,21.9c0.8-1.3,3.1-1.1,3.6-2.6c0.3-0.9,0.1-3-1.2-2.9c1-1,2.6-1.2,3.9-1.3
				c2.6-0.2,0.4,1.4,0.6,2.9c0.2,1.4,1,2.7-0.8,3.4C154.2,22.2,152.1,21.2,150.1,21.9"/>
			<path id="path6052" class="st0" d="M159.1,12.4c0.2-0.9,1-1.5,1.8-1.7C161,11.8,159.7,12,159.1,12.4"/>
			<path id="path6441" class="st0" d="M90.1,0.8c-0.1-0.2-0.2-0.5-0.4-0.7c0.8-0.3,1.1,0.8,1.2,1.4C90.6,1.2,90.3,1,90.1,0.8"/>
			<path id="path6443" class="st0" d="M99.3,4.7c-1.2-0.3-2.9-1.4-2.9-2.8C97,2,99.1,4,99.3,4.7"/>
			<path id="path6445" class="st0" d="M103,4.8c-0.2-0.4,0.1-1.5-0.4-1.7c-0.4-0.2-0.6-0.1-0.5-0.8C103,3.1,104.2,3.6,103,4.8"/>
		</g>
		<g id="Colombia">
			<path id="path3786" class="st0" d="M17.6,95.1c-0.3-0.1-0.5-0.1-0.8-0.2c0.3-1.7,2.1-2.3,3.5-1.4c0.8-1.5-1.1-2.9-0.4-4.3
				c1-1.9,3.1-1.8,4.9-2.1c0.3-0.1,0.2-0.9,0.7-0.6c0.3,0.2,1.1,0.4,1.1-0.2c0-1.2,1.6-2.7,0.6-3.5c1.7,0,2-2.3,2.5-3.4
				c0.4-0.9,1.2-1.6,2-2.1c-1-0.8,0.2-1,0.5-1.8c-0.7,0-1.6,0.6-1.9-0.4c0.6-0.1,1-0.6,0.9-1.2c-0.5-0.2-1.7,1.3-1.8,0.1
				c-0.1-1.2,0.6-1.4,1.5-1.9c-1.4,0-0.8-1.9-0.6-2.7c0.4-1.6,0-3.6-0.1-5.2c-0.1-1.2-0.6-2.3-0.7-3.5c0-0.7,2-0.9,1.7-2.4
				c-0.2-0.9-2.3-3-0.9-3.5c1.3-0.5,0.2-3.1-0.4-3.7c-1.1-1.2-1.2-3.1-2.4-4.1c-0.8-0.7,0-1.5,0.5-2.2c0.5-0.7,0-1.7,0.7-2.4
				c0.4,0.4,0.6,0.9,0.8,1.4c1.5-1.1,3.7-3.2,3-5.3c-0.7-2.1-2.1-2.6-0.8-4.6c0.7,1,1.6,2.3,2.2,3.3c0.7,1.1,2.3,1.4,0.8,2.8
				c2,2.2,1-4.2,0.7-4.9c-0.4-1,4.2-3.3,4.8-4.1c0.7-1,1.3-2.7,2.5-3.2c0.7-0.3,2.3-0.1,2.7-0.9c0.6-1.1-0.5-1.5-0.3-2.2
				c0.4-1.2,0.6-2.7,1.3-3.8c-1.1-0.1-0.8-0.5-0.1-0.8c0.7-0.3,0.4-1.2,0.4-1.8c0-1.3,2.2-1.7,2.2-2.2c0-0.7,2.7-3.4,3.3-3.4
				c1.3,0,2.3,1.1,3.6,1.2c-1.1-0.1-0.9,1-1.9,1c0.7,2.7,2.3-0.9,2.7-1.9c0.9-2.4,2-2.3,4.6-1.8c3.5,0.6,4.6-1.7,7.4-3.4
				c1.5-0.9,6-2,4.6-4.6c0.6-0.2,2.2-0.7,1.3,0.5c1.1-0.2,0.4-1.2,1.6-1.8c1.4-0.6,2.7-0.6,3.9,0.4c4.2,3.5-4.8,4.9-6.1,6.6
				c-0.7,0.9-1,2.2-1.8,3c-0.6,0.6-1.5,0.4-2.1,1c-1,1.1-2,2.8-2.7,4.2c-0.9,2-1,4.1-1.5,6.2c-0.5,2.1-2,4.6-3.4,6.2
				c1.1,0,2-0.4,2.9-1.2c0.2,0.5,0.3,1,0.2,1.5c2.2-0.6,1.4,3.3,2.6,4.7c1.6,2,2,3.2,1.1,5.7c-0.5,1.2-1.2,3.9,0.5,4.5
				c1.9,0.7,0.9,3,2.9,3.4c0.8,0.2,1.6-0.3,2.3-0.4c1.3-0.1,2.4,0.7,3.7,0.6c1.1-0.1,2.1-0.9,3.2-0.9c1,0,1.8,1,2.8,1.2
				c0.7,0.2,1.4-0.4,2,0.1c0.9,0.7,1.4,2.1,2.1,3c0.6,0.9,1.1,1.7,1.6,2.6c0.7,1.2,1,0.8,2,1.1c1.5,0.4,2.9-0.8,4.8,0
				c0.6,0.2,1.9-0.4,2.6-0.4c1.4,0,2.6,0.1,3.8-0.7c1.4-0.8,3.7,0.8,3,2.3c-0.4,0.8-1.4,1.5-1.6,2.4c-0.2,1.2,0.2,1.8-0.9,2.5
				c-1.5,1-0.9,5-1,6.7c-0.2,1.9,0.6,4,1,6c0.3,1.5,3.2,3.6,2.8,5.2c-0.6,1.9-4.2,2.7-4.2,5c1.3-1,4.6,2.6,5,3.7
				c-0.1,0.3-0.2,0.6-0.2,0.9c0.2,0.6,0.7,1.1,0.7,1.7c0,1.2,0.7,2.6,1,3.8c0.2,1,1.3,3.4,0,3.6c-1.2,0.1-0.9-1.1-0.8-1.9
				c0.2-1.2-1.2-6.7-2.9-6.1c-0.9,0.3-3.7,5.1-4.4,2.3c-0.3-1-1.6-1.5-1.5,0c0.2,1.7-2,1.1-3.2,1.1c-1.7,0-3.5,0-5.2,0
				c-1.2,0-2.4-0.7-3.5-0.2c-1.7,0.7-0.3,4.5-0.5,5.9c1.4-0.9,4.6-0.1,5.2,1.4c0.2,0.6,0.4,2.4-0.7,2.3c-0.7-0.1-1.1-0.9-1.8-0.8
				c-1.6,0.3-4.3,0.7-4.4,2.5c-0.1,2.2-0.3,5.3,1.6,6.8c1,0.7,2.1,1.4,2.1,2.8c0,1.3,0.6,1.8,1.2,3c1.2,2.6-0.3,6.1-0.7,8.7
				c-0.9,6.3-0.7,13.1-2.7,19.2c-0.5-1.2-1.4-2.2-2.2-3.1c-0.9-1-2.1,0-3.2-0.6c-1-0.6,1.6-4.5,2-5.1c0.7-1.2,3-3.5,1.9-4.7
				c-0.5-0.5-1.3-1.8-2-1.5c-1.2,0.5-2.3-1.4-3.1-1.9c-1.4-0.8-1.6-0.1-2.9,0.5c-1.3,0.6-2.5-0.5-3.5-1.1c-1.1-0.8-3.2,1.7-4.5,2.2
				c-0.8,0.3-2.4-0.2-3.4,0c-1.4,0.2-2.1-0.1-3.2-1c-0.9-0.7,0-2.3-0.3-3.3c-0.4-1.4-2.6-0.6-2.9-2c-0.2-1-0.4-2.2-0.8-3.1
				c-0.4-1-1.9-0.8-2.5-1.6c-0.7-0.9-1.1-0.9-2-1.2c-1.1-0.4-1.5-2.1-1.6-3.1c-0.2-1.9-3.9-4.7-5.7-5.3c-0.3-0.1-0.7-0.7-1-0.2
				c-0.3,0.5-0.3,0.7-1,0.4c-1-0.5-2.6-1-3.5-1.7c-0.7-0.5-4.1-4.7-4.5-1.8c-0.2,1.5-5.5-0.3-6.6-0.5c-1.9-0.3-0.5-1.9-1.9-2.5
				c-1.2-0.5-0.7-1.5-2.2-1.6c-1.2,0-3.4-1.7-4.3-2.4C20.2,98,18.7,96.7,17.6,95.1"/>
			<g id="g4690">
				<path id="path3582" class="st0" d="M26,86.5c0.5-0.3,0.4-0.6-0.4-0.7C25.7,86,25.8,86.3,26,86.5"/>
				<path id="path3584" class="st0" d="M28.2,81.5c-0.2,0.2-0.5,0.5-0.6,0.7C28.3,82.4,28.5,82.2,28.2,81.5"/>
				<path id="path3586" class="st0" d="M28.9,72.6c0.2,0.3,0.4,0.5,0.6,0.8C29.3,73.2,29.1,72.9,28.9,72.6"/>
				<path id="path3588" class="st0" d="M30.2,64.1c0-0.3,0.1-0.5,0.1-0.8C30.3,63.6,30.3,63.9,30.2,64.1"/>
				<path id="path3788" class="st0" d="M23.8,87c-0.2-0.3-0.3-0.5-0.4-0.9C23.9,86.2,24.4,86.7,23.8,87"/>
				<path id="path3790" class="st0" d="M23.8,87C24,87.2,23.9,87.2,23.8,87"/>
				<path id="path3794" class="st0" d="M26.6,86.4c-0.2-0.2-0.4-0.5-0.6-0.7C26.5,85.7,26.4,85.9,26.6,86.4"/>
				<path id="path3802" class="st0" d="M29.9,71.4c0.3,0.2,0.5,0.4,0.8,0.6c-0.5,0.3-1,0.4-1.5,0.2C29.3,71.9,29.6,71.6,29.9,71.4"
					/>
				<path id="path3804" class="st0" d="M30.3,71.7c0.1,0.1,0.2,0.1,0.3,0.2C30.4,71.9,30.3,71.9,30.3,71.7"/>
			</g>
			<path id="path5692" class="st0" d="M55.9,13.8c0.2-0.1,0.4-0.1,0.6-0.2C56.3,13.7,56.1,13.7,55.9,13.8"/>
		</g>
		<g id="Argentina">
			<path id="path4454" class="st0" d="M108.9,362c0.1-0.7,1-0.9,1.1-1.6c0.2-0.9-0.3-2.3-0.3-3.3c0.1-2.8,1.7-3.9,2.7-6.3
				c0.7-1.5,0.7-3.1,1-4.7c0.2-0.8,0.4-1.7,0.8-2.4s1.3-0.1,2-0.5c3-1.4-0.1-3.2-1.1-4.7c-1.1-1.8,0.9-2.9,0.2-4.6
				c-0.4-1.2-4-7.6-1-7.7c-0.3-0.8-1.9-2.6-1.7-3.4c0.6-1.8,1.7-3.1,3.4-3.8c1.5-0.7,4-1.3,4.7-3c0.7-1.7,0.6-3.9,0.9-5.7
				c0.1-0.7,0.6-1.9,0.3-2.6c-0.2-0.5-1.5-1.2-1.4-1.7c0.1-0.6,1.3-2.4,1.7-2.6c1.3-0.5,0.7-2,1.9-2.6c2-1,2.1-1.2,2.4-3.6
				c1.6,0.3,2.5,2,3.9,2.6c1.7,0.7,3.6-0.2,5.4,0.1c4.2,0.6,4,3.8,6.1,6.8c0.1-1.3,0.1-2.6,0.6-3.9c0.3-0.7,0.8-3.1,1.5-3.4
				c0.5-0.2,1.5-0.1,2.1-0.3c1.1-0.3,2.5-0.1,3.6-0.1c0.7,0,2.2-0.4,2.4,0.4c0.3,1.1,2.4,2.3,3.2,3.1c0.9,0.9,1.5,1,2.1,2.2
				c0.4,0.9,1,1.8,1.6,2.6c1.4,1.8,3.9,3.1,5.8,4.5c1.1,0.8,1.6,1.9,2.6,2.7c0.9,0.8,2.2,0.7,3.2,1.1c1.4,0.6,2.4,0.9,4,0.9
				c1.2,0,2.1,1.1,3.1,1.6c2.6,1.3,4.6,3.8,7.5,4.8c0.8,0.3,1.8,0.4,2.5,1c1,0.9,1.4,0.4,2.4,1c1,0.6,2.2,0.7,3,1.6
				c0.5,0.6,1.1,1.2,1.6,1.9c1,1.3-0.9,2.7-1.1,4.2c-0.4,2.2-2.4,2.8-1.9,5.4c0.4,2.4-1.4,3.1-1.9,5.2c-0.3,1-0.6,0.7-0.1,1.9
				c1.5-0.6,3-0.6,4.6-0.3c2.7,0.5,5.2,2.1,7.9,1.3c0.8-0.3,1.2,1,2.1,0.4c0.8-0.6,1.7,0.8,2.4,1c0.5-1,0.5-2.3,1.9-2.5
				c1-0.1,1.5,1,2.4,0.9c1.4-0.2,1.2-1.9,1.5-2.8c0.4-1.1,2.7-1,2.5-1.6c0-0.2,1.3-2.1,1.5-2.1c1,0.2,0.8-2.2,0.9-3
				c0.2-1.6,0.2-3.4-0.2-5c-0.4-1.6,0.6-1.1,1.5-0.5c0.2-1.3,1.9-1.2,2.8-0.9c1.6,0.6,1.9,2.2,2.4,3.6c0.7,2,0.9,3.1,1,5.3
				c0,1.1,0.3,2.1,0.1,3.3c-0.1,0.6-0.2,1.1-0.3,1.7c-0.4-0.1-0.7-0.1-1,0.1c-1.2,0.7-2,1.6-3.3,2.1c-0.6,0.3-2.8,1-2.9,1.9
				c-0.1,1.3-1.6,1.4-2.5,2c-0.5,0.3-0.6,1.1-1.1,1.5c-0.7,0.6-1.5,1.1-2.1,1.8c0.6,0.2,0.9,0.7,0.6,1.3c-1.3-1.4-3.9,4.1-4.7,5.1
				c-1.3,1.9-1.6,5.6-4.1,6.6c-1.1,0.4-1,1.9-1.5,2.8c-0.3,0.5-0.7,0.7-1.2,0.8c0.3,0.8,0,1.3-0.6,1.8c-1.6,1.4,0.1,1.9,0.3,3.5
				c0.1,0.8-0.5,0.6-0.6,1.2c0,0.7,0.4,1.4,0.5,2.1c0.1,0.7-0.1,1.5-0.4,2.1c-0.6,1.3,0.6,0.5,0.5,1.7c-0.1,1.6-1,1.9-0.7,3.6
				c0.3,1.5,1.1,2,0.7,3.5c-0.4,1.3,0.5,3,1.1,4.1c1.2,1.9-1.4,1.2-1.3,2.4c0.1,1.5-0.7,3,0,4.4c0.4,0.8,3.5,5.3,1,5.2
				c1.1,0.9,1.3,2.1,2.6,3c1.5,0.9,3,1.6,4.5,2.4c2.6,1.2,6.2,3.2,4.8,6.4c-1,2.3,2,7,4.8,5.8c1.1-0.5,1.6,2.8,1.8,3.4
				c0.7,1.7-0.5,3.7-1.2,5.3c-0.7,1.4-2.3,3.5-2.4,5.1c-0.1,1.7,0.1,2.2-1.4,3.3c-2.8,2-6.1,3-9.4,3.7c-4.1,0.8-8,2-12.2,2.2
				c-1.6,0.1-3,0-4.5-0.1c-1.8-0.2-3-1.3-4.7-1.5c0.2,0.5,0.6,0.9,1,1.2c0.4,0.4,0,1.3,0.2,1.8c0.1,0.3,3.4,2.7,1.3,1.9
				c1,0.7,1.4,1.2,1.6,2.4c0.2,0.9,0.3,2.3-1,1.6c0.2,0.9,0.4,1.8,0.4,2.7c0,0.7-0.8,1.4-0.2,2c0.4,0.5,0.9,0.8,1.4,1.2
				c0.7,0.6,0.3,1.6,1.3,1.1c-0.6,3.5-4.2,4.1-7.2,4.3c-3.9,0.4-7.2-2.3-11.1-2.9c1.6-0.3-0.1-0.9-0.6-0.6c-0.7,0.4-1.1,1.2-1.1,2
				c-0.1,2.1,2.5,3.7,2.9,5.7c0.3,1.7,0.4,3.8,2.2,4.5c1,0.4,3.6,0.6,2.8,2.2c0.4,0.1,4.1,0.5,3.8-0.4c-0.2-0.8-1.9-0.8-2.5-1.1
				c1.2,0.2,1.9-1.1,3-1.1c1.2-0.1,2.4,1.6,2.6,2.6c0.2,0.9,1.4,2.3,0.7,3.3c-0.5,0.7-2.1,0.9-2.9,0.8c-1.2-0.1-1-1.5-1.6-2.1
				c-1-1-2.3-1.4-3.5-0.6c-3.2,2.1,2.1,3.9,3.9,3.4c-0.2,1-1.2,1.3-2,1.7c-1.6,0.7-1.5,1.4-2.1,2.8c-0.6,1.5-0.7,2,0.3,3.4
				c0.4,0.5,0.8,1.1,0.9,1.7c-0.1,0.4-0.1,0.8,0,1.3c0.4,0.4,0.7,0.9,0.7,1.5c0,0.3,0.1,1.3-0.3,1.4c-0.6,0.1-1.3,0.4-1.4,1.1
				c-0.1,1.2,1.7,1.4,1.5,2.3c-0.2,1-7.4-0.4-5.8,2.2c-3.1-0.7-3.9,3.1-4.3,5.3c-0.7,3.8,1.8,5.3,4.6,7.2c1.4,0.9,2.6,2.2,4.2,2.9
				c2,0.9,4.4-0.3,6.3,0.8c2.6,1.6,3,6.8-1.1,6.3c0.8,0.3,1.3-0.4,2-0.4c1.1-0.1,1.5,0.7,2.2,1.4c-0.6,0.1-0.8,0.4-0.5,1
				c-1.2-0.2-3.6,2.8-4.3,3.6c-1,1-1.7,1.9-2.4,3c-0.5,0.8-0.9,1.3-0.9,2.2c0,0.8,0.1,1.5-0.6,2.1c0.6,0.1,1-0.2,1.2-0.8
				c0.1,2.1,2.4,5.9-0.8,6.9c-2.4,0.8-3.1-2.8-5.1-3.2c0.5,0.2,1.9,1.2,1.4,1.9c-0.3,0.5-1.7,0.1-2.2,0.5c2-0.8,2.8,0.5,4.5,0.9
				c-0.2,1.3-2.3,1.3-2.8,2.7c-0.6,2,0.7,3.3-0.4,5.3c1.5-1.8,3.6,2.2,4.1,3.2c0.8,1.6-2.5,0.7-3.3,1.3c0.9-0.3,2.9,0.5,3.2,0.3
				c1.2-0.7,2.1,0.9,3,1.6c1.7,1.4,3.6,2.4,4.4,4.4c-0.4-0.7-1.4-0.7-2.1-0.8c-1.3-0.1-2.5-0.8-3.7-1.2c-3.1-0.9-6.4-1.3-9.6-1.3
				c-1.4,0-2.8,0-4.3,0c-1.2,0-3.7,0.5-4.7-0.2c-1.6-1-3-3.3-5-3.5c0.7-1,0.1-2.5-0.8-3.1c-1.1-0.8-0.2-1.9-0.8-2.8
				c-0.4-0.6-1.5-2.2-2.4-1.8c-0.7,0.3-1.3-0.1-2,0c-0.5,0.1-0.8,0.8-1.2,1c-0.9,0.5-2.3-2-2.6-2.6c-0.6-1.2-3-2-3.2-3.2
				c-0.1-0.6-0.4-0.7-0.7-1.2c-0.2-0.4,0-1-0.2-1.4c-0.2-0.6-1-0.9-1.2-1.5c-0.3-0.7,0-1.5-0.1-2.2c1.2,0.2,1.3-0.5,1.6-1.4
				c0.2-0.5-0.1-1,0.3-1.4c0.4-0.4,1.1-0.1,1.5-0.6c0.8-0.9-0.1-2.4-0.7-3.2c-0.7-0.9,1.1-1,1.2-1.7c0.1-0.8-1.1-1.9-1.7-2.3
				c-1.2-0.8-1.4-1.4-1.4-2.8c0-1,0.2-4.5,2-4.2c-0.4-0.8-1.3-0.9-1.3-1.7c0-0.5-0.5-1-0.3-1.5c0.2-0.4,0.6-0.6,0.8-1
				c0.8-1.6-1.9-4.1-3-4.9c1,0,1.6-1.9,0.5-2.2c-0.8-0.2-2-2-1.2-2.7c0.7-0.6,0.9-0.2,1.4-1.3c0.4-0.9,0.6-0.9-0.2-1.7
				c-0.7-0.7-1.5-1.3-2.2-1.8c-1.1-0.8-2.7,0-3.7-1.1c-0.9-0.9,4.7-0.5,5.2-1.2c-0.2,0.3,0-1.8,0.1-1.5c-0.8-2.4-4.7,0-5.6-2.3
				c-0.2-0.4-0.5-0.8-0.7-1.1c-0.2-0.6,0.8-1.2,0.4-1.8c-0.5-0.8-1.8-1.2-1.1-2c0.9-1-3.6-1.9-2-3.3c0.9-0.8-0.2-1.4-1-1.6
				c-1.5-0.3-2.1-0.8-2.6-2.3c-0.4-1.1-0.4-2.5-0.8-3.6c-0.3-0.8-1.5-1.5-0.4-2.3c0.7-0.5,2-0.1,1.1-1.3c-0.8-1-2.5-2.5-2.3-3.9
				c0.3-2.5-2.3-4.7-2.7-7c-0.2-0.9-0.1-2.1,0.3-2.9c0.7-1.3-1.2-1.6-1.4-2.7c1.7,0.6,0.6-1.9,0.1-2.5c-1-1.1-0.7-1.7,0.7-1.8
				c-0.9-0.9-0.4-3.3-0.8-4.5c-0.6-1.8,1.2-2.2,2.3-3.2c1.2-1.1-1.4-2.8-1.8-4.2c-0.5-1.7-3.1-3.8-2.8-5.5c0.2-1.1-0.9-3.9-1.5-4.9
				c-0.6-1.2-0.9-3.7,0.1-4.7c0.5-0.5,0.9,0,1.2-0.6c0.2-0.5,0.2-1.2,0.5-1.6c0.3-0.3,1.1-0.5,1.1-1c0.1-1.2-0.3-2.4-0.8-3.5
				c-0.4-0.9-0.8-1.8-1.3-2.6c-0.1-0.2-1-0.8-1-0.9c0-0.8,1-0.4,1.1-1.3c0.1-0.9-0.1-1.8-0.2-2.6c-0.1-0.8,0.1-4.8,1.4-4.6
				c1.2,0.2-0.5-2.9-0.6-3.2c-0.5-1.2,0.1-5.2-1.2-5.6c-0.8-0.3-0.3,1-1.4-0.3c-0.8-1-0.6-1.4-0.4-2.5c0.1-0.9-0.5-1.2-1.1-1.6
				c-0.7-0.5-0.5-1.1-0.7-1.8c-0.5-1.7-2.2-2.7-2.7-4.4c1.6,0.7-0.2-1.5-0.8-1.8c-1.5-0.8-2-3.2-2-4.6c-0.1-1.8,1.3-1.1,0.9-3
				c-0.3-1.4,1.1-3.9,0.1-5.1c2.4,1.6,1.5-2.6,1.2-3.5C110.4,366.7,108.2,363.3,108.9,362"/>
			<path id="path4136" class="st0" d="M187.7,446.7c0.1-0.5-0.1-0.6-0.7-0.2C187.2,446.6,187.5,446.7,187.7,446.7"/>
			<path id="path4138" class="st0" d="M188.9,448.3c0.1-0.9-0.8-1.3-1.5-0.9C187.9,447.8,188.4,448.1,188.9,448.3"/>
		</g>
		<g id="Suriname">
			<path id="path4608" class="st0" d="M180.1,78c-0.8-0.5-2.6-3.5-2.6-4.4c0-1.4,2.4-4.1,1.7-5.4c-1.2-2.4,2-2.5,3.6-2.7
				c0.9-0.1,2.1-2.2,0.5-2.6c1.6-1.9,1-6.2,4.5-5.7c1.1,0.2,7.1,0.7,6.5,2.6c0.8-1.5-0.4-2.6,2-2.6c0.9,0,3.8-0.1,3.9,1.3
				c0.5-0.6,1.4-0.3,2-0.3c-0.2-0.1-2.1-0.8-1.8-1c1.3-0.9,4.8,0.5,6.2,0.7c2.5,0.4,2.4,2.2,1.3,4c-1.2,2-2.8,3.1-2.7,5.7
				c0.1,2.2-0.2,4.9,0.9,6.9c0.9,1.6,3,3,1.8,5c-0.4,0.7-1,1.3-1.2,2.1c-0.2,0.8,0.2,1.6,0,2.5c-0.4,1.6-1.5,3.4-2.6,4.6
				c-0.4,0.4-2.8-1.2-3.1-1.5c-1-1.2-3,0.3-4.4,0.5c-1.1,0.2-1.3,0.5-2.3-0.1c-1.1-0.6-0.9,0-1.4,0.6c-1.5,1.6,0.4,1.5,0.7,3.3
				c0.4,2.2-3.3,1-4.1,0.4c-0.6-0.4-1.6-0.5-2.1-1c-0.5-0.6-0.7-1.5-1.1-2.2c-0.7-1.4-2.5-3.6-2.5-5.2c0-0.6-0.2-3.7-1-3.8
				c-0.5-0.1-1.5,0.7-1.9,0.1C180.4,79.2,180.7,78.4,180.1,78"/>
		</g>
		<g id="Ecuador">
			<path id="path6721" class="st0" d="M2.2,127.8c1.5,0.5,1.6-1.8,1.5-2.7c-0.1-0.7-0.4-1.3-0.6-2c-0.4-1.2,0.9-2.1,0.4-3.2
				c-0.5-1.2-1.9-2.9,0.4-3.1c1-0.1,1.3-0.5,1.5-1.4c0.2-1.2,0.9-0.9,1.9-1.1c-1.7-0.2-1.8-2.3-0.8-3.3c1.5-1.5,2.6-2.6,2.7-4.9
				c0-0.7-0.9-3.6-0.3-4c0.7-0.4,3.4-2.4,3.4-0.5c-0.4-1.2,1-1.7,1.9-2c0.9-0.3,2.8-1.5,3-0.4c0.4-0.9,0.7-1.9,1.4-2.7
				c2,1.9,5.1,5.3,8.1,5.2c0.9,0,1,1.1,1.9,1.4c1.2,0.4,0.1,2.8,2.2,2.7c1.6,0,2.8,0.7,4.4,0.8c0.5,0,1.7,0.7,2-0.3
				c0.1-0.3-0.5-0.6-0.1-0.8c1.5-0.7,2.6,0.6,3.5,1.6c1.3,1.6,3.2,1.7,4.8,2.8c-0.9,0.2-1.7,0.1-2.6-0.1c-0.1,0.6,1.8,2.4,2.1,2.9
				c1.1,1.4,0.3,2.9,1,4.6c-0.6,0.1-1-0.1-1.4-0.5c-1.1,5.7-4.4,10.8-9.2,14.1c-2.3,1.6-5.3,2.1-7.9,3.2c-1.3,0.6-2,1.4-2.9,2.5
				c-0.3,0.3-0.6,0.7-0.8,1c-0.2,0.6,0.2,0.9-0.3,1.5c-0.5-2.3-1.5,2.2-1.6,2.4c-0.8,1.4-1.6,3.4-1.5,5c0.1,1.9-1.3,1.9-1.8,3.4
				c-0.5,1.6-0.4,1.8-1.9,1.8c-1.8,0-2.2-2-2.8-3.4c-0.7-1.7-1.5-0.4-2.7-1c-0.8-0.4-1.6-2-2.6-1c-1.3,1.3-2.7,1-1.3-0.9
				c-1-0.1-1.2-1.5-0.5-2.1c0.4-0.4,1.3-0.1,1.8-0.5c0.8-0.6-0.4-4.5-1.3-4.9c1.1-0.6,2-0.3,2.7-1.6c0.6-1.1,0.7-2.4,1.1-3.6
				c0.4-1.5,0.5-1.5,0-2.9c-0.5-1.3-0.6-2.6,0.3-3.8c-1.6,0.8-0.6,2.6-0.8,3.9c-0.4,2.2-1.9,0.2-0.3,0.1c-0.8-0.1-0.9-0.7-0.6-1.3
				c-0.5,0.5-2.3,2.7-1.9,3.5c-1.2-0.8-2.1-2.1-3.3-2.8C3.4,129.2,2.4,128.9,2.2,127.8"/>
			<g id="EcuadorIslands">
				<path id="path4732" class="st0" d="M10.7,131.7c0.3-0.5,0.2-1-0.1-1.4C10.5,130.7,10.5,131.2,10.7,131.7"/>
				<path id="path4734" class="st0" d="M11.1,130.4c-0.1-0.3-0.2-0.5-0.4-0.7C10.8,130,11,130.2,11.1,130.4"/>
				<path id="path5302" class="st0" d="M12.1,101c0.1,0.2,0.2,0.3,0.1,0.5C12.2,101.3,12.1,101.2,12.1,101"/>
				<path id="path6533" class="st0" d="M9.6,131.9c-0.8,0.1-1.6,0.7-1.9,1.4c-0.1,0.3,0.1,2.1,0.7,1.7c0.2-0.2,0.6-1.1,0.6-1.4
					c0-0.4,1.1-0.8,1.4-1.3C10.1,132.2,9.8,132,9.6,131.9"/>
			</g>
		</g>
		<path id="path4806" class="st0" d="M201.3,391.2c-0.1-0.3-0.2-0.5-0.3-0.8C201.1,390.6,201.2,390.9,201.3,391.2"/>
		<g id="FalklandIslands">
			<path id="path4810" class="st0" d="M233,556.1c0.4-0.1,0.6-0.4,0.4-0.8c-0.7-0.9-1,1-1-0.7C230.9,554.8,232.4,555.9,233,556.1"/>
			<path id="path4812" class="st0" d="M237.5,551.4c0.1,0.2,0.2,0.4,0.3,0.6c-1.6,0.6-2.9-0.9-4.5-0.8c0.7,0.7,1.4,0.4,1.9,1.2
				c0.4,0.7,2.1,1.2,2.8,1.4c-1.2-0.4-2.3,0-3.4,0.3c0.8,1.2,2-0.8,2.9,0.4c-0.6-0.1-0.9,0.1-0.7,0.7c-0.2-0.3-0.4-0.5-0.6-0.8
				c0,0.7-0.9,2.1,0.5,1.2c-0.4,1.1-2.7,1-3.6,1.2c0.4,0.2,3.6,1.6,1.6,0.4c0.4-0.1,1.8,1.5,2,0.9c0.5-0.9,1.9-0.5,1.3-1.9
				c2,0.7,2.7-1.6,3.6-2.9c0.3-0.5,0.7-1,0.8-1.6c0.1-0.6-1.5-1.4-1.2,0.1C240.4,551.5,238.4,550.9,237.5,551.4"/>
			<path id="path4814" class="st0" d="M235.6,551.2c0.4,0.2,0.8,0.2,1.2,0.1c-0.2-0.6-0.6-0.9-1.2-0.7c0.3,0.2,0.5,0.4,0.8,0.6
				C236.1,551.2,235.8,551.2,235.6,551.2"/>
			<path id="path4816" class="st0" d="M237.2,550.6c0.2,0.2,0.5,0.3,0.8,0.3C237.7,550.8,237.4,550.7,237.2,550.6"/>
			<path id="path4818" class="st0" d="M238.4,550.1c0.4,0.6,1.7,0.6,2.2,0.3C239.9,550.2,239.1,550.3,238.4,550.1"/>
			<path id="path4820" class="st0" d="M242.1,558.5c0.5-0.5-0.2-0.8-0.6-0.7C241.7,558,241.9,558.2,242.1,558.5"/>
			<path id="path4822" class="st0" d="M241.8,557.3c1,0.5,1.7,1.6,2.9,1.6c-0.5-0.3-0.8-0.9-0.5-1.4c0.7,0.3,1.4,0.7,2.2,0.8
				c0-0.9-1-1.4-1.7-1.7c0.9-0.1,1.4,0.5,2.2,0.5c0.5,0,0.9-0.4,1.4-0.2c0-1-1.9-1.2-2.4-1.9c1,0.6,2.2,0.7,3.4,0.6
				c0.7-0.1,1.8-1,0.7-1.2c1.1,0.2,2.2-0.1,3.2-0.5c-0.3,0.1-2.8-1-3.1-1.3c0.8-0.4,1.5,0.1,2.3-0.1c-0.7-0.5-3.9-2.5-4-0.2
				c0.6,0.1,1.2,0.4,1.6,0.9c-0.9,0-3.5-1.7-1.6-1.4c-0.8-1.4-3-1.3-4.3-1.1c0.4,0.6,0.1,1.2-0.5,1.4c0.6,0,0.9,0.3,0.8,0.9
				c-0.3-0.1-0.5-0.3-0.8-0.4c0.2,0.8,1.4,0.9,1.4,1.9c-1.2-1.5-3.5,1.4-2.6,2.7C242.3,557.1,242.1,557.2,241.8,557.3"/>
			<path id="path4824" class="st0" d="M249.4,556.5c0.2,0.2,0.4,0.3,0.7,0.4C249.9,556.8,249.6,556.7,249.4,556.5"/>
		</g>
		<g id="Paraguay">
			<path id="path5308" class="st0" d="M154.1,301.2c0.7-2.9,1.1-5.8,1.4-8.8c0.2-1.6,0-3.1-0.2-4.7c-0.1-1.6,0.7-2.9,1.4-4.3
				c1-1.9,0.9-4.7,3.3-5c3-0.4,6.1-1.1,9-2c4.8-1.5,8.2-1.1,12.5,1.3c1.7,1,4,2.2,4.2,4.4c0.1,1.3,1.1,5.4,2.5,5.8
				c-0.9,1.1,0.5,1.4,0.8,2.2c0.2,0.6,0,2.5-0.1,3.2c-0.2,0.5-0.2,1-0.3,1.5c0.1,0.7,0.6,1.3,0.3,2c-0.3,0.8-0.3,2-0.2,2.8
				c0.1,0.5,5.2,1.3,6,1.3c1.1,0,2.2,0.6,3.4,0.6c1.1-0.1,1.5-2.1,2.6-1.3c1.1,0.8,1.7,1.1,3,1.3c1,0.1,2,0.7,2.2,1.7
				c0.2,1.1,1.1,1.8,1.2,3.1c0.2,1.6,1.1,3.1,1.3,4.7c0.2,1.9,0.7,5.6,3.2,5.4c1.4-0.1,2.4-1.2,3.7-1.5c1.3-0.2,2.2,1.3,3.1,1.9
				c-0.6,0.4-0.6,0.9-0.3,1.5c0.6,1.1,0,1.7,0.3,2.8c0.3,1.1-0.1,2.3-0.3,3.4c-0.2,1.1,0.1,2-0.5,3c-1,1.7-0.1,5.3,0.1,7.2
				c0.1,0.6,0.1,4.2-0.8,4.4c-0.4,0.1-2,1.9-1.8,2.3c0.2,0.4-1.4,0.4-1.6,0.5c-0.5,0.2-0.7,1-0.9,1.4c-0.2,0.4-1.1,3.1-1.9,2.4
				c-1.9-1.7-3-0.3-3.9,1.6c-0.6-0.2-1-1.1-1.6-1.1c-0.8,0-1.3,0.4-2.1,0c-0.8-0.5-1.3,0.3-2,0.3c-0.7,0-1.5-0.4-2.2-0.6
				c-2.3-0.6-4.7-1.6-7.1-1.4c-1.2,0.1-1.9,0.9-2.3-0.5c-0.1-0.3,0.9-2.3,1.1-2.5c2.5-1.6-0.2-6.1,2.1-7.2c1.1-0.5,1.4-2.8,1.9-3.9
				c1.1-2-0.5-3.5-2.2-4.6c-1.3-0.9-3.1-0.8-4.3-1.8c-0.7-0.6-1.5-0.8-2.4-0.9c-1-0.2-1.8-1-2.6-1.5c-2-1.1-3.7-2.1-5.5-3.6
				c-2-1.6-3.8-1.2-6-2.1c-1.4-0.5-4.3-0.9-4.8-2.6c-0.5-1.7-4.3-3-5.6-4.2c-1.4-1.2-2.2-2.7-3.2-4.3
				C157.1,303.4,155.3,302.8,154.1,301.2"/>
		</g>
		<g id="Guyana">
			<path id="path5694" class="st0" d="M152.6,57.4c1.5-1.6,2.2-2.2,1.7-4.3c-0.4-1.5,0.3-2.2,1.7-2.3c0.7-0.1,0-0.9,0.9-0.7
				c1,0.3,1.3-0.3,2.2-0.6c0.7-0.2,1.6-0.7,1.9-1.4c0.3-0.6-0.3-1.6-1-1.4c-1.8,0.6-0.7-1-1.5-2c-0.7-0.9,0.2-1.8,0.8-2.6
				c0.7-0.9,0.8-0.5,1.8-1.1c1.4-0.7,2-2.5,3.2-3.2c1.7-1,0.5-1.5-0.3-2.9c1.2,1.4,2.7,2.3,4.1,3.5c-0.7-1-2-1.2-2.5-2.4
				c1.7,0.8,3.4,1.8,4.6,3.2c1,1.1,2.3,3.2,3.5,4c1.4,0.8,1.7,3.4,1.2,4.7c-0.4,1-0.9,1.7-1,2.8c-0.1,1-0.1,2-0.7,2.9
				c1.9-0.3,0.5-5,3.4-4c2.2,0.8,4.9,2.4,5.4,4.9c1.4-1.3,2.5,1.4,2.7,2.4c0.4,1.8-0.3,4.5-1.5,5.9c1.9,0.5-0.2,1.5,0.3,2.5
				c-1.2,0.2-5.3-0.1-4.7,2.2c0.6,2-1,3.3-1.3,5.3c-0.2,1.3,1.2,4,2.2,4.9c1,0.9,0.3,2,1.8,2.2c0.3,0,1.1-0.3,1.3,0
				c0.6,1,0.7,2.1,0.9,3.2c0.3,2,2.4,3.7,2.4,5.7c0,2,2.3,2,3,3.2c-2.5,1.6-4.9-1.6-7.2,0.3c-0.4,0.3-0.6,0.8-1,1.1
				c-0.6,0.7-1.5,0.4-2.3,0.6c-1.4,0.5-1.5,1.2-3.2,1.2c-0.5,0-0.8,0.4-1.2,0.8c-0.3,0-0.5,0.1-0.7,0.3c0.1,0.3,0.1,0.6,0.1,0.9
				c-0.4,0.7-2.5,1.1-3.2,0.8c-0.5-0.2-0.2-0.8-0.9-0.8c-0.6,0-1.8-0.4-2-1.1c-0.4-1-1.8-2.5-2.9-2.7c0.1-0.2,0.2-0.5,0.3-0.7
				c-1,0.1-0.9-0.8-0.8-1.5c0.2-1.2-0.1-1.7-0.8-2.5c-1.2-1.4-1.1-4.2-0.8-5.9c0.3-1.3,1.3-2.5,1.3-3.9c0-1.2,0.3-1.1,1-2.1
				c0.4-0.6,1.4-1.8,1-2.5c-0.3-0.6-1.2-1.5-1.2-2.2c0-0.7,0.4-1.4-0.4-1.7c-0.6-0.2-2-0.3-2.3-0.8c-0.3-0.5,0.8-2.2,0.9-2.8
				c0.2-1.1,0-2.3-0.8-3c-1.2-1.1-3.2,0.6-4.7-0.1C155.7,62.7,153.5,59.1,152.6,57.4"/>
		</g>
		<g id="Uruguay">
			<path id="path5885" class="st0" d="M199.9,373c0.6-0.9,1.9-1.7,1.4-3c1,0.7,1.9,1.2,3.1,0.6c0.7-0.3,0.7-1.4,1.5-1.5
				c1.6-0.2,3.1,1.7,4.1,2.6c1.4,1.2,4,2.2,4.2,4.2c0.1,0.7-0.1,1.9,1,1.7c0.8-0.2,2.1-0.9,1.6-1.9c1.3,0.3,3.7,4.3,4.7,3.9
				c1-0.3,1.1,0.4,1.9,0.9c1,0.6,2.1,0.6,3,1.6c0.7,0.7,1.2,1.5,2.1,2.1c1.1,0.7,2.4,0.8,3.3,1.7c1.8,1.6,2.4,3.6,4.6,4.7
				c2.6,1.3,1.3,2,0.1,3.9c-0.9,1.4-0.3,5,1.1,5.9c0.9,0.6-0.6,3.9-1.2,4.9c-0.5,0.8-2.2,4.4-3.6,3.1c0.8,1-0.9,1.5-1.6,1.8
				c-1.8,0.7-2.4,0.8-4.3,0.4c-1.5-0.3-3.2-1.1-4.7-0.3c-0.6,0.3-1.3,0.7-2.1,0.8c-1.1,0.1-1-0.7-1.8-1.1c-1.2-0.7-2.8-0.4-4-1.2
				c-1.7-1-2.3-2-4.4-1.9c-1.4,0.1-2.5,0.6-3.5-0.5c-1.3-1.5-3.4-2.5-4.5-4.2c-0.8-1.2-1.9-6.3-0.2-6.8c1.8-0.5,0.5-2.5-0.1-3.5
				c-0.4-0.7-0.6-1.4-0.9-2.1c-0.2-0.6,0.5-1.1,0.3-1.9c-0.3-0.7-1.5-2.8-0.9-3.5c1.4-1.6-0.4-2.6,0.2-3.6c0.4-0.7-0.1-4.2,0.1-4.3
				C201.9,375.5,200.2,374.2,199.9,373"/>
		</g>
		<g id="Chile">
			<path id="path6393" class="st0" d="M91.9,267.5c1.6-0.9,3.5-0.1,4.1-2.3c0.3-1-1.1-2.5-0.3-3.4c0.2-0.1,0.4-0.2,0.6-0.1
				c0.6,0,1.2-1.1,1.6-1.5c0,1.2,1.3,1.8,1.7,2.9c0.3,1.1,1,1.5,2.1,1.7c-1,0.9,0.5,3.6,0.8,4.6c0.9,2.6,1.4,4.1,3.6,5.9
				c2,1.6,1.1,2.1,0.3,4.2c-0.1,0.4,1.5,1.4,1.5,2.1c0,0.9-1.3,0.9-1.9,1.3c1.1,1,0.2,2.1,0.9,3.2c0.3,0.5,1.2,0.4,1.5,0.9
				c0.5,0.7-0.1,0.8,0,1.5c0.3,2.2,3.2,3.2,3.5,5.8c0.3,3.1,2.3,5.6,3.2,8.5c0.7,2.2,0.6,5,3.8,4c3.2-1,3.4,1,3.1,3.6
				c-0.2,2,0.3,5.3-1.4,6.8c-1.8,1.5-4.9,1.1-6.1,3.4c-0.4,0.8-1.6,1.2-1.7,2.3c-0.1,0.9,1.5,2.6,1.8,3.5c-2.3,0.1-0.7,3.7-0.2,4.8
				c0.4,0.9,0.9,1.8,1.3,2.8c0.5,1.5-0.9,1.8-0.8,3.1c0.1,1.9,3.2,3.9,2.8,5.5c-0.3,1-1.9,1.4-2.7,1c-1-0.5-1.2,2.4-1.3,2.9
				c-0.7,2.8-1.5,4.8-3,7.3c-1.3,2.1,0.2,4.5-0.6,6.7c-0.4,1.1-1.4,1.3-1,2.7c0.3,1.2,1.2,2.1,1.5,3.3c0.2,0.7,0.2,1.4,0.4,2.1
				c0.2,0.6,0.7,0.9,0.9,1.4c0.4,1.1-1,2.3-2,1.6c0.8,1-0.2,2.9-0.2,3.9c0,0.8,0.8,1.9,0,2.5c-0.5,0.5-0.9,0.4-1,1.3
				c-0.1,1.7,1.1,3.4,1.9,4.8c0.4,0.7,1.2,0.4,1.7,1.1c0.4,0.5,0.2,1.2-0.6,0.8c0.5,1.9,2.6,3.1,3,5c0.1,0.8,0.2,1.5,1,1.9
				c1.1,0.5,0.2,1.6,0.4,2.5c0.6,2.2,2.8,0.2,2.7,2.8c0,2,0,3.7,1.1,5.4c0.2,0.3,0.9,2.1-0.1,1.9c-0.9-0.3-0.8,0.2-0.8,0.9
				c0,0.9-0.4,1.7-0.5,2.5c-0.2,1,0.1,2,0.1,3c0,1.1-0.7,0.8-0.9,1.5c-0.2,0.8,0.3,0.5,0.6,1.1c1,2,1.5,4,2.3,6
				c0.3,0.6,0,1.1-0.7,1.1c-0.6,0.1-0.7,1-0.8,1.5c-0.4,1-2.3,0.7-1.9,2.1c0.3,0.9-0.4,1.6-0.1,2.5c0.3,0.8,1,1.6,1.1,2.5
				c0.1,1.5,0.6,2.9,0.9,4.3c0.3,1.6,2,2.5,2.6,3.9c0.4,0.9,0.6,2,1.2,2.8c0.3,0.4,1.3,1.2,1,1.8c-0.6,1.4-3.2,1.3-2.7,3.2
				c0.3,1.2,0.1,4.1,0.9,4.9c-1,0-1.7,0.2-1,1.3c0.2,0.5,2.3,3.7,0.2,3c0.2,1.1,1.3,1.2,1.6,2c0.2,0.6-0.4,1.3-0.6,1.9
				c-0.4,1.9,1.2,3.1,1.7,4.9c0.4,1.5,0.7,3.4,1.3,4.7c0.6,1.4,1.7,2.4,2.5,3.6c-0.6,0.5-1.9,0.3-2.1,1.2c-0.2,0.8,1,2.1,1.1,3.1
				c0.1,1.1,0.7,3.4,1.7,4.1c0.9,0.6,3,0.2,3.1,1.7c0.1,1.3-1.9,0.3,0.1,1.9c0.4,0.3,1,0.8,1.3,1.1c0.8,0.9-0.5,0.6-0.2,1.2
				c0.2,0.6,1.1,0.8,1.4,1.3c0.5,0.8-0.7,1.3-0.3,2.1c0.5,0.9,0.6,1.8,1.7,2c1.4,0.3,3.2-0.3,4.3,0.8c0.3,0.3,0.2,1.8,0,2.1
				c-1,0.9-2.8,0-4,0c-2.5,0.1,0.2,1.6,1.3,1.7c2.4,0.2,5.1,2.7,3.3,4.9c-0.2,0.3-0.8-0.1-1,0.3c-0.4,0.6,0.5,1.6,0.6,2.1
				c0.1,0.5,0.9,0.5,1.2,0.9c0.5,0.6-0.3,1.8-1,1.8c1,0.7,3.9,3.3,3,4.8c-0.4,0.7-1.3,0.9-0.8,1.8c0.1,0.3,0,1.2,0.3,1.3
				c0.5,0.2,1,0.6,1.2,1.1c-1.1-0.2-2,2.8-2,3.6c0.1,1-0.2,1.8,0.4,2.7c0.5,0.7,2.9,2.2,2.6,3.3c-0.2,0.6-1.2,0.6-1.4,1.2
				c-0.3,1,1.9,1.9,1.1,3.3c-0.4,0.7-1.7,0.6-2,1.4c-0.4,1,0.3,2.7-1.6,2.4c0.2,1,0.1,2.1,0.7,2.9c0.5,0.7,1.3,2.3,1.4,3.2
				c0.1,1.2,2.4,2,3.1,2.9c0.6,0.9,1,2.5,2.1,3c0.7,0.3,0.9-0.1,1.5-0.5c0.7-0.5,1.2-0.2,2-0.2c1.6,0,1.7-0.3,2.7,1.3
				c0.7,1.1,0.1,2.4,1.1,3c0.9,0.5,1.4,2.4,0.8,3.2c1.5,0.2,3.9,2.1,4.8,3.3c1,1.3,5.3,0.4,6.8,0.4c5.9,0,11.4,1.2,17.1,2.7
				c-1.5,0-2.8-0.6-4.2-0.9c-2.6-0.5-1.3,0.9-2.1,2c-0.7,1-2.1,0.1-3,1c-1,1.1-2.8,0.9-4.2,1.3c0.9,1.2,0.9,2.6,1.2,4
				c0.3,1.3,1.1,2.1,1.7,3.2c1.7,3-2.3,2-3.8,1.7c-1.8-0.4-5.9-1.5-6.6-3.5c-0.7-2,3.2-0.9,1.5,0.5c0.9,0,0.6-1.1,1-1.6
				c0.3-0.4,2.3,1.4,1.3,2.4c1.6-0.5-1.3-3,1.7-3.5c0.5-0.1,0.6-1.5,0.6-1.8c0-1-1.7-0.8-2.3-1.4c0,1.1-1.5,2-2.2,2.6
				c-1.3,0.9-2.4-0.5-3.6,0.3c0.9-0.2,1.6,0.6,2.2,1.1c-0.5,0.1-1,0.1-1.5-0.2c0.2,0.5,0.1,1.1-0.2,1.5c0.9,0.1,1.6,0.8,2.2,1.4
				c-2.2,0.6-5.9-1.8-7.4-3.2c1.1,0.5,2.6,0.5,3.7,0.4c-0.2-1-2.5-1-2.6-2.9c0-1.1,1.9-1.6,1.6-0.2c1.3-0.4,1.4-0.3,2.3-1.3
				c0.9-1.1,3.3,0.5,4.5-0.3c-0.8-1-6.1-1.8-6.3,0c-0.7-0.3-1.2-0.6-0.1-1c-0.7,0-3.4,0.1-2.8,1.4c0.5-0.5,1-0.5,1.5-0.1
				c-0.2,0.6-0.7,1-1.2,1.1c0.4,0.6,1.5,2.2,0.1,2.3c-0.9,0.1-2.9-1.1-1.1-1.6c-0.9,0.3-1.6-0.5-2.2-0.9c0.5,0.1,1,0.1,1.5,0
				c-0.3-0.1-0.5-0.3-0.8-0.4c1-0.6-0.1-1.8,1.2-1.4c-1.1-0.4-1.1-0.6,0-0.5c-0.5-0.2-1-0.2-1.5,0c0.5,0.4,0.7,1,0.3,1.5
				c-0.2-0.5-0.7-0.9-1.3-0.9c0,0.6-0.3,1.1-0.9,1.4c0.3-0.7,0.1-1-0.6-0.8c1.6-1.3-2.3-3.8-2.6-5c0.7,0.8,1.9,1.5,3,1.5
				c0.5,0,2.4-1.7,1.9,0.3c0.8-0.5,2.2,0.3,1.1-1c0.4,1.7-0.6-0.5-0.6-1.4c0.8,0.1,1.6,0.9,2.2,1.4c1.1,0.9,0.4,1.7-0.3,2.7
				c0.7-0.5,1.5-0.1,2.2-0.1c-1-0.5-0.2-1.7-1.1-2.2c-0.5-0.3-2.3-1.7-0.7-1.9c-1-0.8-1.4-2-2.5-2.6c-1.2-0.7-2.6-0.7-3.6-1.7
				c-0.2,0.2-0.3,0.5-0.4,0.7c0.9-0.1,5.3,1.1,5.2,2.3c-0.1,1-4.6-1.4-5.3-1.3c0.5,0.6,1.1,0.5,1.7,0.9c0.6,0.5,0.2,1.4,1.2,1.4
				c-0.4,0.4-0.6,0.9-0.7,1.4c-0.7-1-1.2-2.2-2.2-3c0.8,1,1.9,2.3,1.9,3.7c-1.1-1-2.6-1.4-3.2-2.9c0.5,0.4,1,0.7,1.5,1.1
				c-0.4-0.7-1.6-1.1-1.4-2.1c-0.5,0-1,0.5-1.4,0.4c-0.5-0.1-0.4-0.8-0.9-0.9c-0.6-0.1-1.4-1.7-1.5-2.2c1.3,0.3,2,1.4,3,2.2
				c-1-1.1-1.6-2.5-2.7-3.5c1.6,1.4,0.4-0.4-0.4-0.5c-0.1,0.2-0.1,0.5-0.2,0.7c-0.6-0.2-1.1-0.4-1.6-0.9c1,1.6-1.4-1.1-1.8-1.4
				c-0.5-0.4,0.7-0.6,0.8-0.6c0.3-0.1,0.6-0.1,1,0c1.2,0.1-1.2-1.4,0.7-0.4c-0.6-0.5-0.6-1.7,0.4-1.7c-0.8,0-1.8-0.8-1.1-1.6
				c-0.8,0.7-0.1,2.2-0.6,3.1c-0.6,1-3.1-2.4-3.7-2.7c0.5,0.2,1,0.4,1.5,0.8c-1.5-1.4,0.1-0.4,0.9-0.4c-0.9-0.8-3-0.8-3.4-1.9
				c0,1.7-1.9-0.8-2.9-0.9c1-2,4.3,1.1,5.9,0.9c-1.4-0.3-4.4-1.2-4.6-3c1.2-0.1,2,1.2,3.2,0.7c-0.8,0-0.9-0.5-0.6-1.2
				c-0.7,1.7-4.2-0.9-1.7-1.4c-0.6,0.1-2.5-0.5-1.4-1.1c1.5-0.9,2.6,0.7,3.9,1.1c-0.9-0.6-2-1.2-2.8-1.7c-0.4-0.3-1.1-0.3-1.1-1
				c0-0.7,0.7-0.8,1.2-0.5c-0.8-0.4-2.2-3.3-0.6-2.4c-0.5-0.4-1-0.3-1.5,0.1c0.4,0.4,0.4,3.3,0.1,3.7c-1.1-1.1-2.9-3-2.8-4.6
				c0-0.4-1.3-1.1-0.7-1.6c0.5-0.4,1.6-0.4,2.1-0.2c-0.2-0.2-3.9-0.6-2.6-1.8c0.6-0.5,2,0.2,2.6,0.4c-0.6-0.3-0.9-0.9-0.4-1.5
				c-0.5,0.1-3.3-0.2-1.5-0.8c-1.8,0.8-2.7-2.5-4.5-1.9c-0.3-1.9,2.6,0.3,3.1,0.8c-0.3-0.5-0.7-1-1.1-1.4c1.3-0.2,2.4,0.5,3.6,0.9
				c0.5,0.2,1.1,0,1.6,0.3c0.7,0.5,1.5,0.2,2.1,0.7c0.3-0.4,0.2-0.8-0.1-1.2c-0.3,1.6-2.7-0.6-2.8-1.4c0.9,0.7,2,0.5,3,0.8
				c-0.4-0.1-0.8-0.2-1.2-0.2c-0.8-0.1-1.2-1-1.8-1.4c-0.5-0.4-1.1-0.2-1.5-0.8c-0.4-0.5-0.1-1.1-0.6-1.5c0.6,0.8,0.8,2.9-0.8,2.5
				c-1.4-0.3-4.3-0.1-5.3-1.1c0.6-0.2,0.8-0.6,0.4-1.1c1.4-0.4,2,1.3,3.3,1.6c-1.1-0.2-0.4-1.4,0.4-1c-0.2-1.3-0.9,0-1.7-0.5
				c-0.6-0.3-0.8-1-1.5-1c-0.7,0,0.3-3.4,1.5-1.4c-0.2-0.6,0-1,0.6-0.9c-0.1-0.4-0.2-0.7-0.4-1c-0.1,0.9-1,1.2-1.4,0.3
				c0.5-0.2,0.9-0.3,1.4-0.4c-0.5-0.7-1.5-0.8-2.1-1.2c-1.4-0.9-1.7-1.3-3.3-0.4c0.6-0.2,1.2,0,1.5,0.5c-1.2-0.3-2.4-0.5-3.5-1.1
				c-1.9-1.1-0.6-1.5-1.3-2.8c-0.7,1.4-3.5,1.6-3.6,2.8c1.3-2.1,3.4,3.2,0.5,0.9c-1.9-1.5-0.2-5.5,2.1-4.5c-0.7-0.1-0.9-0.6-0.5-1.1
				c1.2,0.9,0.6-1.3,1.8,0c-1-0.7,0.3-1.6-0.8-2.3c0.7,2.8-2.8,0.5-0.7,0.6c-0.7-0.1-1.6-0.3-1.8-1.1c1,0.4,1.9-0.6,2.9-0.4
				c0.9,0.2,1.1,1.1,2,1.2c-1.3-0.9,0.1-1.2,0.8-1.3c0.9-0.1,0.6,1,1.6,1.1c-0.5,0.7,0.6,2,0.3,0.5c2.1,1-1.1,2.4-2.3,1.8
				c0.8,0.5,3.5,0.9,4.5,0.9c-0.5-0.2-0.9-0.8-0.9-1.4c0.6,0.4,1.4,0.6,1.7,1.4c0.3,0.8-0.6,1.5-0.1,2.4c1.4-0.2,1.8-3.6,1.6-4.7
				c-0.2,0.8-0.4,1.6-0.9,2.2c0.1-1.5-2-5.4,1-5.3c-0.9-0.5-1.7,0.2-2.2,0.9c-0.2-0.7-0.6-1.6-0.4-2.3c0.2-0.8,1.2-0.8,1.4-1.6
				c0.5,0.7,1.3,0.9,2.1,1.3c0.9,0.5,1.2-0.5,0.4-0.5c-0.6,0.1-1-0.2-1.5-0.5c-0.9-0.6-1.9-0.1-2.8-0.6c1.6-1.2-2.2-2.4,0.8-2.7
				c2.1-0.2,3.1-3.2,2-4.9c-0.7,1.2-5.3-1.2-5.2-2.4c0.2-0.2,0.4-0.3,0.8,0c-1.3-1.4,1.3-2.3,0.5-3.5c-0.2,0.9-1,0.9-1.1-0.1
				c0-1.2-0.8-0.7-1.3-1.8c-0.5-1,0-1.3,0.2-2.2c0.1-0.5-0.8-1.9,0.6-1.6c0-0.9-0.6-1-1.1-1.6c-0.4-0.5-0.3-1.1-0.6-1.6
				c-1.1-1.9,0.3-0.8,1.5-1.1c-1.1-0.2-2.3-1.4-2.6-2.5c1.6-0.6,2.4,0.8,3.2,1.9c-0.2-1.5-1.2-3-1.9-4.3c-1.5,1.4-3.6-0.6-1.8-1.8
				c1.1-0.8,2.7-1.3,1.2-2.7c0.9,3.9-2.2,1.1-4,0.6c-1.4-0.3-0.4,1.8-1.2,2.3c-1.1,0.7-5.3-0.5-3-1.5c-4-0.1-4.5-6.3-4.9-9
				c-0.2-1.2-1-4-0.4-5.1c0.6-1.2,1.4-0.1,1.1-1.7c-0.2-1.1,0.3-2.1,0-3.1c-0.4-1.6-0.9-2.5-2-4.2c-1.2-1.7-2.6-3.3-3.2-5.3
				c-0.4-1.2,0-2.1-1-3.2c-0.6-0.7-1.3-1.4-1.7-2.2c-0.4-0.7,0.1-1.1-0.1-1.6c-0.5-1-1-1.6-0.8-2.8c0.8,0.6,2.3,1,2.8-0.3
				c0.5-1.6-1.1-2.8-0.5-4.4c0,0.6,0.4,0.9,0.9,0.9c0-0.4-0.1-0.8-0.3-1.2c-0.2-0.7,0.4-1.5,0.4-2.3c0-1.5-0.9-2.5,0-4
				c0.7-1.2-0.6-1.8,0-3.2c0.4-1,1.2-2.8,1.4-3.9c0.4-2.7-0.8-5.5-0.7-8.1c0.1-1.4,1.4-2.7,1.3-4c-0.1-1.1-1-2.5-1.4-3.5
				c-0.4-0.9,0.2-2.1,0.5-2.9c0.4-0.9-0.3-2.3-0.4-3.1c-0.1-0.6,0.3-1.1-0.1-1.7c-0.5-0.6-0.9-1.2-1.1-1.9c-0.6-1.6-0.8-3.1-1.4-4.7
				c-1.2-2.9-2.6-6-3.1-9.1c-0.3-1.6,0.1-1.7,1.2-2.5c0.9-0.6,0-2,0.6-2.8c0.6-0.8-1.2-5-1.9-5.5c-0.8-0.6-1.8-2.5-1.2-3.5
				c0.8-1.4,0.9-2.7,1.4-4.2c0.3-1-0.4-2.7-0.4-3.7c0-1.7,1.3-2.8,0.7-4.5c-1-2.6,0.4-5.9,0.4-8.7c0-2.4-1.5-4.5-1.4-6.8
				c0.1-1.3,1.5-1.6,1.4-2.8c-0.1-1.7-1.3-3.4-1.7-5c-0.4-1.8-0.1-3.5-0.3-5.2c-0.1-0.9-0.5-1.5-0.2-2.4c0.2-0.7,0.5-1.5,0.3-2.3
				c-0.2-0.9-1.6-0.4-1.8-1.4c-0.2-1.1,0.1-2.3,0.2-3.3c1.7,1.5,1.6-3.4,1.6-4.2c-0.1-4.2,0.8-9.1-0.8-13c-1.7-4.2-0.6-8.9-2.2-13.2
				c-0.7-1.8-1.4-4-1.7-5.9C92.7,270.6,93.2,268.2,91.9,267.5"/>
			<g id="IslandsChile">
				<path id="path4456" class="st0" d="M185.8,561.7c1.5,1.3,3.3,2.2,4.4,3.9c-1-1.8-3.3,1.4,0.5,1.4c1.4,0,1.9,1.6,2.8,2.4
					c1.1,1,2.8,1.3,3.8,2.2c2.8,2.5,6.8,3.6,10.2,5.2c1.5,0.7,3.8,1.6,5.5,1.5c0.8,0,1.7-0.2,2.5-0.2c1.2,0.1,0.9,1.3,0.6,2.3
					c-0.9-0.5-2.1,0.4-3.2,0c-1.2-0.5-2.9,1.1-4.4,0.8c-1.7-0.4-3.2-0.8-5-0.8c-2-0.1-4.5,0-6.4-0.7c-1.2-0.5-1.9,0.7-3-0.8
					c-0.9-1.4-1.5-3.1-2.2-4.7C189.8,570.1,187.6,566,185.8,561.7"/>
				<path id="path4808" class="st0" d="M220.2,580.4c1-1.2,3.1-0.9,4.5-1.4c-1.8-0.5-3.5,0.1-5.2,0.8
					C219.7,580,220,580.2,220.2,580.4"/>
				<path id="path6062" class="st0" d="M114.4,470.5c-0.7-0.5-0.9-0.1-1.2,0.4c-0.4,0.7-1.9-0.8-2.4-0.8c1.2,1.3,0.1,3,0.8,4
					c1.1,1.7,0.9,4.3,1.8,6c0.4,0.7-0.4,1.2-0.1,2c0.3,0.8,1.3,1,2.1,1.2c0.6,0.2,1.3,0.4,2,0.4c1.4,0.2,0.2-1.8,0.1-2.2
					c2.1-0.2,0-1.7-0.7-2.3c0.5,0.1,1,0.1,1.4,0c-0.3-0.5-4.2-3-2-3c-1.6-1,0.1-1.5,0.9-2.2C115.9,473.1,114.9,471.9,114.4,470.5"/>
				<path id="path6064" class="st0" d="M111.7,486c0.3-0.2,0.5-0.4,0.7-0.6c-0.5-0.3-1-0.3-1.4,0C111.3,485.6,111.5,485.8,111.7,486
					"/>
				<path id="path6066" class="st0" d="M114.1,496.9c0.2-0.6-0.1-0.9-0.7-0.7C113.6,496.5,113.9,496.7,114.1,496.9"/>
				<path id="path6068" class="st0" d="M115.3,494.8c-0.1-0.4-0.1-0.6-0.6-0.7C115,494.4,115.2,494.6,115.3,494.8"/>
				<path id="path6070" class="st0" d="M116.4,477.4c0.1-0.6-0.1-0.6-0.7-0.1C115.9,477.4,116.2,477.4,116.4,477.4"/>
				<path id="path6072" class="st0" d="M117.4,476.7c-0.2-0.7-0.8-1.1-1.5-0.9C116.5,476,117,476.3,117.4,476.7"/>
				<path id="path6074" class="st0" d="M117.6,495c-0.3-0.7-1.1-0.7-1.5-0.1C116.6,494.9,117.1,494.9,117.6,495"/>
				<path id="path6076" class="st0" d="M117,489.9c-0.4-0.1-0.3-0.4-0.8-0.1C116.5,489.8,116.7,489.8,117,489.9"/>
				<path id="path6078" class="st0" d="M117.5,493.7c0.3-0.4,0.4-0.8,0.3-1.2c-0.4,0.5-0.9,0.6-1.5,0.4
					C116.5,493.3,116.9,493.7,117.5,493.7"/>
				<path id="path6080" class="st0" d="M117.3,490.2c-0.2-0.1-0.5-0.1-0.7-0.1C116.8,490.1,117,490.1,117.3,490.2"/>
				<path id="path6082" class="st0" d="M117.4,491.6c-0.2-0.2-0.4-0.2-0.7-0.1C116.9,491.5,117.1,491.6,117.4,491.6"/>
				<path id="path6084" class="st0" d="M118.2,488.5c-0.1-0.5,0.2-1,0.8-1.1c-0.8,0.2-1.7-0.2-2.3,0.6
					C117.3,488,117.8,488.2,118.2,488.5"/>
				<path id="path6086" class="st0" d="M118.7,496.3c0.2-0.8-0.8-1.1-1.4-1.1C117.7,495.8,118.2,496.1,118.7,496.3"/>
				<path id="path6088" class="st0" d="M118,470.8c0-0.4-0.2-0.7-0.6-0.8C117.6,470.3,117.8,470.5,118,470.8"/>
				<path id="path6090" class="st0" d="M119.2,480.4c-0.4-0.4-0.9-0.5-1.4-0.4C118.2,480.1,118.7,480.3,119.2,480.4"/>
				<path id="path6092" class="st0" d="M119.4,495.9c0.8-0.3,1.3-1.1,2.2-1.1c-0.7-0.7-1.9-0.9-2.8-0.7
					C117.2,494.7,118.4,495.6,119.4,495.9"/>
				<path id="path6094" class="st0" d="M119.4,491.8c0-0.3,0.1-0.6,0.3-0.9c-0.5-0.2-1-0.3-1.6-0.1
					C118.4,491.3,118.9,491.6,119.4,491.8"/>
				<path id="path6096" class="st0" d="M118.2,492.2c0.3,0.1,0.5,0.1,0.8,0.2C118.8,492.4,118.5,492.3,118.2,492.2"/>
				<path id="path6098" class="st0" d="M119.2,503.5c-0.2-0.2-0.5-0.3-0.8-0.4C118.6,503.3,118.9,503.4,119.2,503.5"/>
				<path id="path6100" class="st0" d="M119.4,488.9c-0.2-0.2-0.4-0.3-0.7-0.2C118.9,488.7,119.1,488.8,119.4,488.9"/>
				<path id="path6102" class="st0" d="M119.9,493.8c0.1-0.2,0.2-0.4,0.3-0.6c-0.5-0.2-1-0.3-1.5-0.4
					C118.9,493.3,119.4,493.7,119.9,493.8"/>
				<path id="path6104" class="st0" d="M119.9,490.7c-0.1-0.4-0.4-0.7-0.9-0.9C119.1,490.4,119.4,490.8,119.9,490.7"/>
				<path id="path6106" class="st0" d="M120.1,492.7c0.4-0.7-0.4-0.7-0.8-0.4C119.6,492.5,119.8,492.6,120.1,492.7"/>
				<path id="path6108" class="st0" d="M119.6,503.8c0.2,0,0.5,0.1,0.7,0.1c0-0.5,0-1-0.1-1.4C119.5,502.7,119.2,503.2,119.6,503.8"
					/>
				<path id="path6110" class="st0" d="M119.4,497.5c0.9,0.4,2-0.2,2.8-0.4C121.3,496.3,119.9,496.4,119.4,497.5"/>
				<path id="path6112" class="st0" d="M120.6,500.1c0.2-0.6-0.4-1.1-0.9-1.2C119.7,499.5,120,499.9,120.6,500.1"/>
				<path id="path6114" class="st0" d="M120.5,491.9c0.1-0.8-0.2-0.8-0.8-0.1C120,491.8,120.3,491.8,120.5,491.9"/>
				<path id="path6116" class="st0" d="M120.4,502.5c-0.2-0.3-0.4-0.5-0.6-0.7C120,502.1,120.2,502.3,120.4,502.5"/>
				<path id="path6118" class="st0" d="M120.5,500.9c0.2-0.7-0.1-0.8-0.7-0.3C120,500.7,120.3,500.8,120.5,500.9"/>
				<path id="path6120" class="st0" d="M121.2,490.2c0.3-0.8-0.6-1.4-1.2-1.4C120.3,489.3,120.7,489.7,121.2,490.2"/>
				<path id="path6122" class="st0" d="M120.8,493c0.4-0.5,0.2-0.7-0.5-0.7C120.5,492.5,120.6,492.7,120.8,493"/>
				<path id="path6124" class="st0" d="M121,496.3c0.1-0.3,0.1-0.5,0-0.8c-0.3,0.1-0.5,0.3-0.7,0.6
					C120.5,496.2,120.8,496.3,121,496.3"/>
				<path id="path6126" class="st0" d="M121.4,504.1c1-0.5,1.3-2.5-0.1-2.6C119.7,501.5,121.2,503.5,121.4,504.1"/>
				<path id="path6128" class="st0" d="M122.4,497.5c-0.6,0.3-1.3,0.4-1.9,0.6c0.2,1.5,3,1.4,4,1.2
					C124.3,498.4,123.4,497.5,122.4,497.5"/>
				<path id="path6130" class="st0" d="M123,500.6c0.5,0,0.9-0.1,1.4-0.1c-0.4-0.8-2.1-1.2-2.9-0.8C122,500.1,122.5,500.4,123,500.6
					"/>
				<path id="path6132" class="st0" d="M122.8,497.1c0.4-0.8-0.4-1.5-1.2-1.2C121.8,496.5,122.2,496.9,122.8,497.1"/>
				<path id="path6134" class="st0" d="M122.7,495.3c0.3-0.1,0.6-0.1,0.9-0.2C122.5,493,120.9,494.7,122.7,495.3"/>
				<path id="path6136" class="st0" d="M122.5,473.2c0.1-0.5-0.1-0.7-0.7-0.4C122,473,122.2,473.1,122.5,473.2"/>
				<path id="path6138" class="st0" d="M127.1,528.8c1.3-1.3-3.2-6.1-4.9-5.1c0.3,0.4,1.4,0.9,1.5,1.4c0.1,0.8,1.2,0.7-0.1,1.2
					c0.7,0.3,1.5-0.5,1.8,0.2C125.6,527.3,126.4,528.5,127.1,528.8"/>
				<path id="path6140" class="st0" d="M122.9,502.5c0.4-0.7,1.2-0.5,1.8-0.2C124.3,501.1,122.2,501.1,122.9,502.5"/>
				<path id="path6142" class="st0" d="M123.3,496.1c0.2,0,0.3,0,0.5,0c0-0.6-0.3-0.9-0.9-0.7C123.1,495.7,123.2,495.9,123.3,496.1"
					/>
				<path id="path6144" class="st0" d="M123.9,501.2c0.1-0.6-0.2-0.7-0.8-0.2C123.4,501.1,123.6,501.2,123.9,501.2"/>
				<path id="path6146" class="st0" d="M124.2,489.2c-0.1-0.8-0.2-1.5-1.1-0.9C123.2,488.8,123.6,489.2,124.2,489.2"/>
				<path id="path6148" class="st0" d="M124.4,503.7c1.1-0.7-0.5-1.7-1.3-1.1C123.4,503.1,123.8,503.5,124.4,503.7"/>
				<path id="path6150" class="st0" d="M124,521.5c0.2-0.5,0.1-0.8-0.3-1.2c-0.2,0.2-0.4,0.4-0.5,0.7
					C123.5,521.3,123.7,521.4,124,521.5"/>
				<path id="path6152" class="st0" d="M124.3,528.7c1,0.2,1.6-0.5,1.1-1.4c-0.7-1.1-1.3-0.3-2.2-0.1c0.2,0.9,1.1,0.9,1.8,1.1
					C124.8,528.5,124.6,528.6,124.3,528.7"/>
				<path id="path6154" class="st0" d="M124.8,505.3c0.1-0.6,0.2-1.7-0.8-1.5C124.2,504.4,124.4,504.9,124.8,505.3"/>
				<path id="path6156" class="st0" d="M124.7,529.6c0.6-0.2,1.2-0.6,1.6-1c-0.9-0.3-1.4,0.7-2.3,0.3
					C124.3,529.2,124.5,529.4,124.7,529.6"/>
				<path id="path6158" class="st0" d="M125,521.1c0.3-0.7,0.1-0.9-0.7-0.6C124.5,520.7,124.7,520.9,125,521.1"/>
				<path id="path6160" class="st0" d="M128.7,495.3c-0.2-0.3-0.4-0.5-0.6-0.8c1.1-0.3,0.8-1.4-0.2-1.5c-0.3,0-0.6,0-0.9-0.2
					c-0.9-0.7-0.7,0.3-1.8-0.3c-0.2,0.6,0.2,1,0.7,1.2c-0.5,0.4-1,0.5-1.6,0.5c0.2,0.7,0.7,1.7,1.7,1.5c-1.6,0.3,0,1,0.6,1.1
					C127.5,497,128.2,495.9,128.7,495.3"/>
				<path id="path6162" class="st0" d="M126.8,523.5c0.2-0.8-0.1-1.7-0.8-2.1c-0.3,0.5-0.3,1,0,1.4c-0.5-0.5-1.8-0.7-1.5,0.4
					C125.3,522.5,126,523.4,126.8,523.5"/>
				<path id="path6164" class="st0" d="M127.3,526.7c2.3-1.7-1.1-3-2.6-2.7C125.4,525,126.3,525.9,127.3,526.7"/>
				<path id="path6166" class="st0" d="M128.2,532.1c-0.1-1.2-2.3-2.3-3.3-1.7C125.1,531.9,127.5,530.8,128.2,532.1"/>
				<path id="path6168" class="st0" d="M126.7,524c-0.2-0.6-0.9-0.7-1.5-0.7C125.8,523.5,126.3,523.7,126.7,524"/>
				<path id="path6170" class="st0" d="M126.9,504c0-0.4-0.4-2.7-1-2.5C124.1,502.1,126.2,503.4,126.9,504"/>
				<path id="path6172" class="st0" d="M125.9,505.9c0.2-0.4,0.5-0.8,1-0.9C126.2,504.1,125,505.1,125.9,505.9"/>
				<path id="path6174" class="st0" d="M126.2,532.1c0.1-0.5-0.1-0.6-0.7-0.3C125.7,531.9,126,532,126.2,532.1"/>
				<path id="path6176" class="st0" d="M126.1,504.1c-0.1-0.4-0.3-0.6-0.6-0.8C125.7,503.5,125.9,503.8,126.1,504.1"/>
				<path id="path6178" class="st0" d="M125.6,500.5c0.3,0,0.5-0.1,0.8-0.1C126.2,500.4,125.9,500.4,125.6,500.5"/>
				<path id="path6180" class="st0" d="M126.6,498.9c-0.2-0.3-0.4-0.5-0.6-0.7C126.2,498.4,126.4,498.6,126.6,498.9"/>
				<path id="path6182" class="st0" d="M126.3,515.9c0.4-0.2,0.5-0.5,0.5-0.9C126,514.8,125.8,515.2,126.3,515.9"/>
				<path id="path6184" class="st0" d="M127.6,507.8c0.3-1.1-0.6-2-1.5-1.1C126.7,507,127.2,507.3,127.6,507.8"/>
				<path id="path6186" class="st0" d="M127.1,533.6c-0.2-1,1.5-1.7-0.2-2.2C127.1,532.4,125.3,533.4,127.1,533.6"/>
				<path id="path6188" class="st0" d="M127.5,506.3c-0.2-0.5-0.5-0.7-1-0.9C126.6,506,126.9,506.3,127.5,506.3"/>
				<path id="path6190" class="st0" d="M128.2,531.3c0.3-0.1,0.5-0.2,0.8-0.4c-0.4-0.8-1.2-1.2-2.1-1.2
					C127.3,530.3,127.7,530.8,128.2,531.3"/>
				<path id="path6192" class="st0" d="M127.5,523.2c-0.2-0.3-0.4-0.5-0.6-0.8C127.1,522.7,127.3,522.9,127.5,523.2"/>
				<path id="path6194" class="st0" d="M128.1,530c0-0.5-0.2-0.9-0.7-1.1C127.1,529.5,127.5,529.9,128.1,530"/>
				<path id="path6196" class="st0" d="M130.9,528.7c1.3-0.3-2.5-4-2.9-4.6c0.1,0.5,0.2,1,0.3,1.5c0.2,0.6,0.8,0.8,0.9,1.4
					c-0.5-1.3-2.1-0.5-1.3,0.7C128.4,528.7,130,528.4,130.9,528.7"/>
				<path id="path6198" class="st0" d="M128.4,535.9c-0.2-0.2-0.4-0.3-0.7-0.4C127.9,535.7,128.1,535.8,128.4,535.9"/>
				<path id="path6200" class="st0" d="M134.2,539.8c0.7,0.3,1.6,0.3,2.2,0c-0.2-0.2-0.4-0.4-0.6-0.6c1.3,0.9,0.8-1.3-0.3-1.5
					c2,0.4-0.9-2.1-0.5-0.1c-0.2-1.7-0.3-4.1-1.6-5.4c-0.5-0.5-0.2-1.2-1-1.4c-0.5-0.2-1.1-2.8-1.1-0.9c-0.8-3.1-3.6,1.3-1.5,0.4
					c-1.6,0.4-0.1,1.5,0.6,0.7c-0.5,0.7,0.8,2.7,0.9,3.5c-0.4-0.4-0.9-0.7-1.4-0.9c1,2-1.8-0.9,0,1.2c-0.3-0.5-0.9-0.8-1.4-0.7
					c0.5,0.4,1,0.9,1.4,1.4c-0.8-0.5-1.3-1.3-2.2-1.7c-0.1,1.3,1.3,1.6,1.9,2.5c0.7,1,1.8,2.5,3.1,2.6c0.1-1-1-1.3-1.1-2.2
					c-0.1-0.9,0.9-1,0.9-1.8c0.8,0.1,1.1,1.1-0.1,0.9c0,0.6,0.4,1,0.9,1.2c-0.3,0.1-0.5,0.3-0.8,0.4c0.2,0.6,1,0.6,1.5,0.9
					c1,0.6-0.8,1.3,0.8,1C134.7,539.3,134.5,539.6,134.2,539.8"/>
				<path id="path6202" class="st0" d="M128.5,529.2c0.8-0.5,0.5-0.8-0.4-0.7C128.3,528.7,128.4,528.9,128.5,529.2"/>
				<path id="path6204" class="st0" d="M131.8,539c-0.5-1.5-2.1-2.2-3.6-2.4c0.2,0.8,0.9,1.9,1.8,1
					C130.1,538.6,131.3,538.4,131.8,539"/>
				<path id="path6206" class="st0" d="M128.5,521.9c0.2-0.4,0.4-0.3,0.2-0.8C128.7,521.4,128.6,521.6,128.5,521.9"/>
				<path id="path6208" class="st0" d="M130.9,533.7c0.3-1.2-1.8-2.9-2.2-1.6C128.5,532.6,130.6,533.4,130.9,533.7"/>
				<path id="path6210" class="st0" d="M129.5,533.6c-0.2-0.2-0.4-0.3-0.7-0.3C129,533.4,129.3,533.5,129.5,533.6"/>
				<path id="path6212" class="st0" d="M130.2,525.8c1.1-0.8-0.3-1.6-1.1-1.5C129.5,524.8,129.9,525.3,130.2,525.8"/>
				<path id="path6214" class="st0" d="M130.3,522.8c0.9-0.3,1.9-0.1,2.5-0.8c-1.2-0.6-2.4-0.1-3.7-0.3
					C129.3,522.3,129.7,522.7,130.3,522.8"/>
				<path id="path6216" class="st0" d="M132.4,526.9c0.2-0.7-0.9-1.1-1.3-1.4C130.7,526.4,131.8,526.6,132.4,526.9"/>
				<path id="path6218" class="st0" d="M134.2,542.3c0.3-0.5,0.6-1,1.1-1.4c-0.8,0.5-1.6,0.5-1.4-0.6c-0.4,0.2-0.7,0.1-1-0.2
					c-0.6-0.5-1.3,0.1-2,0c0.5,0.4,2.4,0.7,2.3,1.7c-1,0.2-0.8-1-1.8-0.9c0,0.4,0.1,1,0.4,1.3c0.6,0.6,1.8-0.2,1.1,1.1
					C133.6,543.2,134,542.8,134.2,542.3"/>
				<path id="path6220" class="st0" d="M133.9,527.1c-0.3-0.5-0.9-0.9-1.5-0.8C132.9,526.6,133.4,526.9,133.9,527.1"/>
				<path id="path6222" class="st0" d="M134.4,546.4c0.2-0.7-0.4-1.3-0.7-1.9c0.6,0.3,1,0.1,1.1-0.6c-0.8,0.2-1.5-0.5-2.2,0.1
					c0.7,0.2,0.8,0.7,0.2,1.2C133.7,545.3,133.5,546.4,134.4,546.4"/>
				<path id="path6224" class="st0" d="M134.5,523.1c-0.1-0.4-0.3-0.6-0.7-0.7C134,522.6,134.3,522.9,134.5,523.1"/>
				<path id="path6226" class="st0" d="M135,543.1c-0.2-0.2-0.4-0.2-0.7-0.1C134.5,543,134.8,543.1,135,543.1"/>
				<path id="path6228" class="st0" d="M135.7,536.5c0.2-0.2,0.4-0.3,0.6-0.5c-0.4-0.5-0.9-0.8-1.4-1
					C135.1,535.5,135.4,536.1,135.7,536.5"/>
				<path id="path6230" class="st0" d="M135.7,523.9c-0.2-0.2-0.5-0.3-0.7-0.4C135.2,523.6,135.5,523.7,135.7,523.9"/>
				<path id="path6232" class="st0" d="M136.4,546.5c0.1-0.6-0.1-1.4-0.9-1.3C135.6,545.8,135.9,546.3,136.4,546.5"/>
				<path id="path6234" class="st0" d="M136.5,540.5c0.3-0.2,0.5-0.3,0.8-0.5C137,540.2,136.8,540.3,136.5,540.5"/>
				<path id="path6236" class="st0" d="M136.9,543.9c0.3-0.3,0.5-0.7,0.6-1.1C136.9,542.9,136.6,543.4,136.9,543.9"/>
				<path id="path6238" class="st0" d="M139,547.2c0-0.6-1.6-2.3-2.2-1.7C135.7,546.4,138.3,547.2,139,547.2"/>
				<path id="path6240" class="st0" d="M139.7,549.1c0.4-0.7,1.2-1.2,2-0.7c-1.2-0.8-1.3-2.6-3.2-2.3c0.4,0.5,0.8,1,1.1,1.5
					c-0.8-0.1-1.5-0.3-2.3-0.4c0.1,0.8,1.5,1.8,2.2,1.1C139.6,548.5,139.7,548.8,139.7,549.1"/>
				<path id="path6242" class="st0" d="M138,553.4c1.1-0.3,0.5-1.8,0.6-2.5c-0.5,0.4-1,0.2-1.2-0.4
					C137.5,551.3,137.4,552.7,138,553.4"/>
				<path id="path6244" class="st0" d="M137.9,549.5c0.3-0.1,0.5-0.3,0.7-0.4C138.4,549.2,138.2,549.3,137.9,549.5"/>
				<path id="path6246" class="st0" d="M142,546.8c0-0.9-1.2-1.3-1.8-1.6c1.4,0,0.4-0.2-0.1-0.8c-0.6-0.6-1.1-0.9-1.9-0.5
					c0.6,0.4,0.8,1,1.2,1.5C140,546.4,141.1,546.3,142,546.8"/>
				<path id="path6248" class="st0" d="M139.5,552.1c0.9-0.2,1.3-1.1,1.5-0.2c0-0.3,0-0.6,0-0.9c0.3,0.2,0.5,0.3,0.8,0.5
					c-0.7-1.2-1.6-2.5-2.7-0.6C139.6,551.1,139.9,551.5,139.5,552.1"/>
				<path id="path6250" class="st0" d="M140.4,555.5c0.9-0.3,0.2-1.2-0.3-1.4C140,554.6,140.1,555.1,140.4,555.5"/>
				<path id="path6252" class="st0" d="M142,549.8c0.1-0.8-0.9-0.9-1.2-1.5C140.1,549.2,141.4,549.6,142,549.8"/>
				<path id="path6254" class="st0" d="M142.3,557.4c0.4-0.9,0.3-3.8-1.3-3.6c0.2,0.5,0.5,1,0.8,1.4
					C140.4,555,141.6,556.9,142.3,557.4"/>
				<path id="path6256" class="st0" d="M143,549.9c0.2,0,0.3-0.1,0.5-0.1c-0.6-0.7-1.1-1.5-1.9-2.1C142,548.4,142.5,549.2,143,549.9
					"/>
				<path id="path6258" class="st0" d="M143,557.5c0.5-0.5,0.8-2.6-0.5-2.2C142.5,556.1,142.9,556.8,143,557.5"/>
				<path id="path6260" class="st0" d="M144.6,559.1c0.8-1-1.1-0.7-1.5-0.8C143.6,558.5,144.1,558.8,144.6,559.1"/>
				<path id="path6262" class="st0" d="M144.9,551.9c0-0.7-0.6-1.3-1.4-1.1C143.9,551.3,144.4,551.7,144.9,551.9"/>
				<path id="path6264" class="st0" d="M143.6,557c0.5-0.1,0.9-0.4,1.1-0.8C144.2,556,143.7,556.4,143.6,557"/>
				<path id="path6266" class="st0" d="M146.8,556c0-1-2.2-1.9-3-1.9C144.7,555,145.7,555.5,146.8,556"/>
				<path id="path6268" class="st0" d="M143.9,558c0-0.2,0-0.5,0-0.7C143.9,557.5,143.9,557.7,143.9,558"/>
				<path id="path6270" class="st0" d="M145,551.2c0.2-0.1,0.4-0.3,0.6-0.4c-0.3-0.6-0.8-0.8-1.3-0.3
					C144.5,550.8,144.8,551,145,551.2"/>
				<path id="path6272" class="st0" d="M147.1,554.7c0.2-0.1,0.3-0.2,0.5-0.4c-0.8-0.4-1.2-1.3-2-1.7
					C145.9,553.9,145.8,554.2,147.1,554.7"/>
				<path id="path6274" class="st0" d="M146.9,551.2c0-0.6-0.3-0.9-0.9-0.9C146,550.8,146.3,551.2,146.9,551.2"/>
				<path id="path6276" class="st0" d="M148.8,559.6c0.4-0.1,0.7-0.3,0.9-0.6c-0.9-0.5-2.6-2.4-3.7-1.3c0.9-0.3,1.6,0.4,2.3,0.8
					C146.6,558,148.4,559.5,148.8,559.6"/>
				<path id="path6278" class="st0" d="M157.2,567.3c0.6,0.2,1.3,0.2,1.9,0.1c-1.1-0.3-1.9-1.2-3-1.5c2.3,2.2-3.1-2.2-0.7,0.1
					c-1.6-1.2-3.1-1.2-4.9-1.7c-1.4-0.4-2.5-1.9-4.1-1.5c1.9,0.9,3.2,2,5.2,2.6c1,0.3,2,0.1,3,0.5
					C155.4,566.2,156.2,567.6,157.2,567.3"/>
				<path id="path6280" class="st0" d="M147.7,557.5c-0.2-0.4-0.3-0.5-0.8-0.4C147.1,557.3,147.4,557.4,147.7,557.5"/>
				<path id="path6282" class="st0" d="M148.7,554.9c-0.1-0.7-1-0.9-1.5-1C147.6,554.3,148.1,554.6,148.7,554.9"/>
				<path id="path6284" class="st0" d="M150.8,558.3c-0.3-1.4-2.4-2.3-3.7-2.4C148,557.1,149.7,557.3,150.8,558.3"/>
				<path id="path6286" class="st0" d="M148.6,555.6c-0.3-0.3-0.1-0.6-0.7-0.4C148.1,555.4,148.4,555.5,148.6,555.6"/>
				<path id="path6288" class="st0" d="M150.8,559.6c0.2,0,0.3-0.1,0.5-0.1c-0.5-1-1.7-1.5-2.7-1.4
					C149.3,558.6,150.1,559,150.8,559.6"/>
				<path id="path6290" class="st0" d="M149.4,556.5c0.5-0.4,0.3-0.6-0.5-0.7C149.1,556,149.2,556.2,149.4,556.5"/>
				<path id="path6292" class="st0" d="M149.9,558.1c0.1-0.5-0.1-0.6-0.8-0.3C149.4,557.9,149.6,558,149.9,558.1"/>
				<path id="path6294" class="st0" d="M151.7,562.4c1-0.6,0.6-2.7-0.7-2.5C150,560.2,151.7,562,151.7,562.4"/>
				<path id="path6296" class="st0" d="M153.1,566.8c-0.5,0-0.8-0.1-0.8,0.6C152.6,567.2,152.8,567,153.1,566.8"/>
				<path id="path6298" class="st0" d="M153.6,565.6c0.2,0.3,0.4,0.4,0.7,0.5C154.1,566,153.9,565.8,153.6,565.6"/>
				<path id="path6300" class="st0" d="M155.9,564.3c-0.2-1-1.6-0.9-2.2-0.5C154.5,563.5,155.3,563.8,155.9,564.3"/>
				<path id="path6302" class="st0" d="M154.1,556.8c0.6-0.2,0.9-0.7,0.6-1.3C154.2,555.8,153.9,556.2,154.1,556.8"/>
				<path id="path6304" class="st0" d="M155.9,569.6c0.2-0.2,0.3-0.5,0.5-0.7C155.5,568.6,155.3,568.9,155.9,569.6"/>
				<path id="path6306" class="st0" d="M157.7,567.9c-0.4,0-0.7,0.1-1.1,0.2c0.2,0.2,0.4,0.5,0.6,0.7c-0.5-0.1-1-0.3-1.5-0.4
					C156.4,568.7,158.7,569.5,157.7,567.9"/>
				<path id="path6308" class="st0" d="M164.8,574c0.8-0.5,1.7-1,2.6-1.2c-0.8-0.3-0.9-1.6,0.1-1.1c-0.3-1.5-1.8-0.8-2.4-1.7
					c-0.4-0.7-1.7-1.3-1.6-0.1c-0.3-0.6-1.4-1.7-1.5-0.3c-0.4-0.6-1.7-2.3-2.6-1.7c0.1,0.2,0.3,0.5,0.4,0.7c-0.5-0.1-1-0.1-1.5,0
					c1,0.5,1.8,1.1,2.9,1.4c-1.1,0.1-2.9-1.5-3.7-0.1c0.6-0.2,1,0.1,0.9,0.7c1.9-0.8,1.3,0.4,2.1,1.5c0.4,0.6,1.1,0.8,1.5,0.1
					c0.5-0.9,1.6-1,2.6-0.6c-0.2,0.2-0.5,0.5-0.7,0.7c0.3,0.2,0.5,0.4,0.8,0.6c-0.5,0.2-1,0.4-1.5,0.5
					C163.8,573.7,164.3,573.8,164.8,574"/>
				<path id="path6310" class="st0" d="M161.9,574c0-0.9-1-1-1.5-0.5C161,573.4,161.5,573.6,161.9,574"/>
				<path id="path6312" class="st0" d="M168,573.5c-0.1,0-0.3,0-0.4,0.1c0.4,0.6,0.3,0.9-0.4,1C168.1,575.7,169.5,574,168,573.5"/>
				<path id="path6314" class="st0" d="M168.4,576.5c0.2-0.5,0.2-0.7,0.8-0.6c-0.5-0.4-1-0.4-1.5,0
					C167.9,576.1,168.1,576.3,168.4,576.5"/>
				<path id="path6316" class="st0" d="M168.6,571.7c-0.3,0-0.5,0.1-0.7,0.3C168.1,571.9,168.4,571.8,168.6,571.7"/>
				<path id="path6318" class="st0" d="M171.4,572.5c-0.6-0.2-1.1,0.4-1.4-0.3c-0.3-0.6-1.6,0.6-2,0.7c0.4,1.2,3.5,1.3,3.1,2.8
					c2,0,0-1.4-0.4-2c0.4,0.5,0.9,0.6,1.4,0.4C171.7,573.5,171.5,573,171.4,572.5"/>
				<path id="path6320" class="st0" d="M169.9,575.4c-0.2-0.2-0.5-0.5-0.8-0.7C169.4,575,169.7,575.2,169.9,575.4"/>
				<path id="path6322" class="st0" d="M170.1,576.8c-0.2-0.1-0.5-0.2-0.7-0.2C169.6,576.7,169.8,576.8,170.1,576.8"/>
				<path id="path6324" class="st0" d="M170.5,576.6c0.3-0.7,0-0.9-0.7-0.5C170,576.2,170.3,576.4,170.5,576.6"/>
				<path id="path6326" class="st0" d="M174.2,573c-0.7-0.3-1.8-0.5-2.6-0.3c0.2,0.1,2.2,4,2.2,1.1c0,1.7,1.9,0.1,1.6,1.7
					c0.6-0.1,1.1-0.3,1.6-0.6c-0.4-0.5-2.1-2.6-1.7-0.7C174.8,574.1,174.3,573.6,174.2,573"/>
				<path id="path6328" class="st0" d="M172.9,579.1c-0.1-0.5,0-0.7-0.6-0.7C172.5,578.7,172.7,578.9,172.9,579.1"/>
				<path id="path6330" class="st0" d="M174,574.9c0.1,0.4,0.1,0.6,0.6,0.7C174.4,575.4,174.2,575.1,174,574.9"/>
				<path id="path6332" class="st0" d="M180,574.8c-0.3-0.9-1.2-1.4-1.6-2.2c0.5,0.5,0.9,0.5,1.4,0.1c-1.1-0.5-1-2.2-2.1-2.7
					c-1.6-0.8-0.8,1.4-0.1,1.9c-0.5-0.2-1-0.2-1.5,0.1C177,573.4,178.2,574.4,180,574.8"/>
				<path id="path6334" class="st0" d="M179.7,580.7c0.1-0.2,0.1-0.4,0.2-0.6c-1,0.1-1.9-0.5-2.9-0.2c0.1,0.3,0.2,0.5,0.4,0.7
					C178.1,579.8,179.1,580.1,179.7,580.7"/>
				<path id="path6336" class="st0" d="M180.8,574.2c0.2-0.9,0-1-0.7-0.3C180.3,574,180.5,574.1,180.8,574.2"/>
				<path id="path6338" class="st0" d="M184.2,582.8c0.2-0.6,0.4-1.2,1.2-0.7c-0.4-1-2-0.8-2.8-0.9c0.6,0,1.1-0.3,1.3-0.9
					c-0.6-0.1-1.1,0.6-1.7,0.5c-0.7-0.1-1.4-0.3-2.1-0.1C180.8,582.4,183.4,581,184.2,582.8"/>
				<path id="path6340" class="st0" d="M181.7,575.2c0.1-0.9-1-0.7-1.4-0.4C180.8,574.9,181.2,575,181.7,575.2"/>
				<path id="path6342" class="st0" d="M183,579.8c-0.6-0.1-1.1,0-1.5,0.4C182.1,580.4,182.6,580.2,183,579.8"/>
				<path id="path6344" class="st0" d="M186.3,580.4c-0.2,0.2-0.4,0.5-0.6,0.7C186.4,581.1,186.3,580.9,186.3,580.4"/>
				<path id="path6346" class="st0" d="M187.3,583.1c-0.2-0.3-0.4-0.4-0.7-0.5C186.9,582.8,187.1,582.9,187.3,583.1"/>
				<path id="path6348" class="st0" d="M187.5,583.3c-0.3,0-0.5-0.1-0.8-0.1C187,583.2,187.2,583.3,187.5,583.3"/>
				<path id="path6350" class="st0" d="M187.4,581.5c1.3-0.2,2.8,0.1,3.8-0.9c-1.1-0.2-3.6-0.6-4.5,0.2
					C187,581,187.2,581.2,187.4,581.5"/>
				<path id="path6352" class="st0" d="M187.2,582.2c0.3,0.7,2.3,0.9,2.9,0.8c-0.7,1.3,2.7,2.2,3.5,1.7c-0.5-0.4-1-0.7-1.5-1.1
					c-1.9-1.3,1.4-0.6-0.8-1.3c0.9-0.3,2,0.8,3,0.9c0.9,0.1,1.6,1.2,1.2,1.7c0.8-0.5,3,0.1,3.9,0.3c1,0.3,1.2,1.6,2.5,1.2
					c-0.8-0.9-1.5-1.7-2.7-2.2c-0.9-0.3-2.4-0.1-3-1c0.8,0.7,2.1,0.4,3,0.1c-1.8-1.2-4.5-0.2-6.1-1.9c1.4,0.5,1.9,0.4,3.3,0.4
					c1.1,0,0.5-1.1-0.3-1.2c-1.1-0.2-2.3,0.2-3.3,0.5c-0.6,0.2-3.9-0.4-2.8,1.1C189.5,581,187.9,581.5,187.2,582.2"/>
				<path id="path6354" class="st0" d="M188,583.6c-0.7,0.1-0.6,0.3,0.3,0.6C188.2,584,188.1,583.8,188,583.6"/>
				<path id="path6356" class="st0" d="M190.2,584.5c-0.2-0.4-0.2-0.6-0.7-0.5C189.7,584.1,190,584.3,190.2,584.5"/>
				<path id="path6358" class="st0" d="M191.7,584.9c-0.2-0.2-0.4-0.4-0.7-0.4C191.2,584.6,191.4,584.8,191.7,584.9"/>
				<path id="path6360" class="st0" d="M205.8,582c-1.1-1.5-7.2-2.8-8.5-0.9c1.1-0.5,1.3,0.9,1.9,1.5c0.5,0.5,3.8,0.4,2,0.6
					c0.5,0.1,1,0.1,1.5,0.1c0.4-0.1-0.1-0.5,0.1-0.6c0.6-0.5,1.2,0.8,1.5,1C205.3,584,206.1,582.7,205.8,582"/>
				<path id="path6362" class="st0" d="M203.8,586.2c0.2-0.2,0.3-0.4,0.5-0.7C203.5,585.3,203.3,585.5,203.8,586.2"/>
				<path id="path6364" class="st0" d="M205.6,588.5c0-0.2,0-0.4,0.1-0.6c-0.5-0.1-1-0.1-1.5,0.2
					C204.7,588.1,205.2,588.2,205.6,588.5"/>
				<path id="path6366" class="st0" d="M206.9,587.6c-0.2-0.5-0.5-1-1-1.2c-0.2,0.2-0.4,0.5-0.5,0.8
					C205.9,587.3,206.4,587.4,206.9,587.6"/>
				<path id="path6368" class="st0" d="M205.7,581.1c0.1,0.6,1,0.5,1.4,0.6C206.7,581.4,206.2,581.2,205.7,581.1"/>
				<path id="path6370" class="st0" d="M207.6,583c-0.4,0-0.7,0.2-0.9,0.5c0.5,0.3,0.9,0.3,1.4,0.2
					C207.9,583.5,207.7,583.3,207.6,583"/>
				<path id="path6372" class="st0" d="M207.9,588.4c0.1-0.5-0.1-0.6-0.7-0.3C207.5,588.2,207.7,588.3,207.9,588.4"/>
				<path id="path6374" class="st0" d="M208.9,588.6c-0.1-0.3-0.4-0.5-0.6-0.7C208.5,588.1,208.7,588.3,208.9,588.6"/>
				<path id="path6376" class="st0" d="M209.7,583.5c0.6-0.6,0.1-1-0.6-0.7C209.3,583,209.4,583.2,209.7,583.5"/>
				<path id="path6395" class="st0" d="M122.5,504.3c-0.1-0.3-0.1-0.5-0.2-0.8C123.3,503.6,123.4,503.9,122.5,504.3"/>
				<path id="path6397" class="st0" d="M140.8,551.3c0.1,0.2,0.1,0.4,0.1,0.6C140.9,551.7,140.9,551.5,140.8,551.3"/>
				<path id="path6399" class="st0" d="M140.8,551.3C140.8,551,140.8,551,140.8,551.3"/>
				<path id="path6401" class="st0" d="M156.2,558.1c0-0.3,0-0.5-0.1-0.8c0.2,0.2,0.3,0.5,0.4,0.8
					C156.5,558.1,156.4,558.1,156.2,558.1"/>
				<path id="path6403" class="st0" d="M176.5,567.2c-0.5-0.7-1.3-2.1-0.7-3c0.2,1,1.7,0.9,1.5-0.2c-0.1-0.6-1.8-1.1-2.2-1.3
					c0.8-0.8,1.9,0.2,2.8,0.4c1.9,0.4,1-1.8,1.6-2.6c0.6-0.9,2.3,1.1,2.9,1.3c1.1,0.3,2-1,3.1-0.4c1.1,0.7,1.2,2.3,1.9,3.3
					c1,1.4,1.7,3,2.3,4.6c1.6,3.7,3.9,7.1,5.2,10.8c-0.7-0.4-1.5-0.5-2.2-0.9c0.4,0.4,0.9,0.7,1.4,0.9c-1,1.1-3.5,0.4-4.7,0
					c-0.6-0.2-1.3-1.2-2-1c-0.9,0.3-1.1,0.5-1.8-0.2c0.2,0.3,0.3,0.6,0.5,0.9c-0.5-0.6-2.9,0.6-2.1-1c-0.1,0.8-2.6,1.2-3.3,0.9
					c0.5-0.4,0.9-0.8,1.4-1.1c-0.9-0.5-2.1,0.5-3,0.7c0-0.6-0.3-1.1-0.7-1.4c-0.3,1.8-1.6-0.3-2.2-0.7c1,1.4-1,0.9-1.7,0.7
					c-0.5-0.1-1.2,0.5-1.7,0.3c-0.5-0.2-0.7-1.1-1.1-1.4c0.9-0.1,1.5,0.6,2.3,0.8c-0.1-0.6-0.4-1-1-0.9c0.6-0.2,1.1-0.1,1.5,0.4
					c-1.6-1.6,3.2,0.1,3.7-0.5c0.4-0.5,0-1.4,1.2-1c0.9,0.2,0,2.6,1.4,2.3c-0.5-0.3-0.8-0.9-0.6-1.4c1.3,0,2.5,1.6,3.8,1
					c-1.2-0.7-2.5-1-3.6-1.9c-1-0.7-2.3-0.2-3-1.4c2,0.3,4.3,0.9,6,2.2c-0.6-0.4-0.8-1.3,0.2-1.1c0.9,0.1,1.6,1.1,2.3,1.6
					c-0.2-0.6-0.6-1-1.1-1.3c0.9-0.3,2,0.9,2.6,0.5c1-0.7,2.5,0.9,1.6,1.9c0.3-0.6,0.8-0.9,1.4-0.4c-0.9-0.9-0.1-1,0.6-0.9
					c-2.7-2.3-8-1.5-10-4.7c-1.4-2.3,4.1-1.8,3.4-3.8C183.3,565.6,178.1,569.8,176.5,567.2"/>
				<path id="path6405" class="st0" d="M185.7,559.3c0.1,0.1,0.2,0.2,0.3,0.4C185.9,559.5,185.8,559.4,185.7,559.3"/>
				<path id="path6407" class="st0" d="M194.5,579.5c0.2,0.2,0.5,0.4,0.7,0.6C194.7,580.3,194.7,579.9,194.5,579.5"/>
			</g>
		</g>
		<path id="path7062" class="st0" d="M101.9,251.5c0,0.2,0,0.5,0,0.7c-3.6-0.2,0.2-3.2-2.1-4.3c-0.5,2.5-1.8,0.6-3.1,0.9
			c0.2-0.4,0.6-1.8-0.2-1.8c-1.1,0-2.1-1.9-2.5-0.6c-1.5-0.8-2.2-1.1-1.2-2.8c0.2,0.2,0.4,0.5,0.6,0.7c0.3-1-0.8-1.5-0.6-2.3
			c0.5-2.2,2.4-0.6,3.2,0.2c1,1,2.3,1.6,3.2,2.6c0.7,0.7,1,1.9,2.2,1.7c-0.1,0.5-0.6,2.1,0.2,2.5c0.7,0.3,1.5-0.4,1.7,0.7
			c-0.9-0.3-1.1,1.2-2.1,1"/>
	</g>
	<text id="svg_1" transform="matrix(1 0 0 1 41.371 78.7939)" class="st1 st2">Colombia</text>
	<text id="svg_2" transform="matrix(1 0 0 1 56.371 220.7939)" class="st1 st2">Peru</text>
	<text id="svg_3" transform="matrix(1 0 0 1 222.371 423.794)" class="st1 st2">Uruguay</text>
	<text id="svg_4" transform="matrix(1 0 0 1 67.371 366.794)" class="st1 st2">Chile</text>
</g>
</svg>
